<svg width="18" height="18" viewBox="0 0 18 18" fill="none" xmlns="http://www.w3.org/2000/svg">
<path d="M10.7401 14.3025C10.7401 14.76 10.44 15.36 10.0575 15.5925L9.00005 16.275C8.01755 16.8825 6.65254 16.2 6.65254 14.985V10.9725C6.65254 10.44 6.35254 9.75751 6.04504 9.38251L3.16502 6.3525C2.78252 5.97 2.48254 5.29501 2.48254 4.83751V3.0975C2.48254 2.19 3.16506 1.50751 3.99756 1.50751H14.0025C14.835 1.50751 15.5175 2.19 15.5175 3.0225V4.6875C15.5175 5.295 15.135 6.05251 14.76 6.42751" stroke="white" stroke-width="1.5" stroke-miterlimit="10" stroke-linecap="round" stroke-linejoin="round"/>
<path d="M12.0525 12.39C13.378 12.39 14.4525 11.3155 14.4525 9.99001C14.4525 8.66452 13.378 7.59 12.0525 7.59C10.727 7.59 9.65247 8.66452 9.65247 9.99001C9.65247 11.3155 10.727 12.39 12.0525 12.39Z" stroke="white" stroke-width="1.5" stroke-linecap="round" stroke-linejoin="round"/>
<path d="M14.9025 12.84L14.1525 12.09" stroke="white" stroke-width="1.5" stroke-linecap="round" stroke-linejoin="round"/>
</svg>
