<svg width="20" height="20" viewBox="0 0 20 20" fill="none" xmlns="http://www.w3.org/2000/svg">
<path d="M19.9024 5.90309C19.8912 5.06334 19.734 4.23193 19.4379 3.44606C19.181 2.78318 18.7887 2.18117 18.286 1.67849C17.7834 1.17581 17.1813 0.783514 16.5185 0.526666C15.7427 0.235455 14.9231 0.0779923 14.0947 0.0609825C13.0281 0.0133053 12.6899 0 9.98226 0C7.27464 0 6.9276 7.43489e-08 5.86872 0.0609825C5.04065 0.0781174 4.22148 0.235578 3.44606 0.526666C2.78308 0.783335 2.18098 1.17557 1.67827 1.67827C1.17557 2.18097 0.783334 2.78308 0.526666 3.44606C0.234872 4.22124 0.0777505 5.04059 0.0620911 5.86872C0.014414 6.93647 0 7.27464 0 9.98226C0 12.6899 -8.26098e-09 13.0358 0.0620911 14.0958C0.0787227 14.9252 0.235059 15.7434 0.526666 16.5207C0.783765 17.1835 1.17629 17.7853 1.67916 18.2878C2.18203 18.7903 2.78419 19.1824 3.44717 19.439C4.22046 19.7419 5.03977 19.9106 5.86983 19.9379C6.93758 19.9856 7.27575 20 9.98337 20C12.691 20 13.038 20 14.0969 19.9379C14.9253 19.9216 15.7449 19.7645 16.5207 19.4733C17.1834 19.2162 17.7852 18.8238 18.2879 18.3211C18.7905 17.8185 19.1829 17.2166 19.4401 16.5539C19.7317 15.7778 19.888 14.9595 19.9046 14.1291C19.9523 13.0624 19.9667 12.7242 19.9667 10.0155C19.9645 7.30791 19.9645 6.96419 19.9024 5.90309ZM9.97561 15.1026C7.14381 15.1026 4.84976 12.8085 4.84976 9.97672C4.84976 7.14492 7.14381 4.85087 9.97561 4.85087C11.3351 4.85087 12.6388 5.39091 13.6001 6.3522C14.5614 7.31348 15.1015 8.61726 15.1015 9.97672C15.1015 11.3362 14.5614 12.64 13.6001 13.6012C12.6388 14.5625 11.3351 15.1026 9.97561 15.1026ZM15.3055 5.85653C14.6435 5.85653 14.1102 5.3221 14.1102 4.66127C14.1102 4.50438 14.1411 4.34903 14.2012 4.20408C14.2612 4.05913 14.3492 3.92743 14.4601 3.81649C14.5711 3.70555 14.7028 3.61755 14.8477 3.55751C14.9927 3.49747 15.148 3.46657 15.3049 3.46657C15.4618 3.46657 15.6172 3.49747 15.7621 3.55751C15.9071 3.61755 16.0388 3.70555 16.1497 3.81649C16.2606 3.92743 16.3486 4.05913 16.4087 4.20408C16.4687 4.34903 16.4996 4.50438 16.4996 4.66127C16.4996 5.3221 15.9652 5.85653 15.3055 5.85653Z" fill="#E6AB3D"/>
<path d="M9.97612 13.3058C11.815 13.3058 13.3058 11.815 13.3058 9.97612C13.3058 8.13721 11.815 6.64648 9.97612 6.64648C8.13721 6.64648 6.64648 8.13721 6.64648 9.97612C6.64648 11.815 8.13721 13.3058 9.97612 13.3058Z" fill="#E6AB3D"/>
</svg>
