<svg width="20" height="20" viewBox="0 0 20 20" fill="none" xmlns="http://www.w3.org/2000/svg">
<path d="M11.1111 20H6.66667V6.66667H11.1111V8.88889C11.579 8.29363 12.1728 7.8093 12.85 7.47062C13.5271 7.13195 14.2708 6.94733 15.0278 6.93C16.3515 6.93735 17.6184 7.46936 18.5505 8.40937C19.4826 9.34938 20.0038 10.6207 20 11.9444V20H15.5556V12.5C15.4696 11.8995 15.1696 11.3503 14.7109 10.9534C14.2521 10.5565 13.6655 10.3387 13.0589 10.34C12.7874 10.3486 12.5204 10.4119 12.274 10.5262C12.0276 10.6405 11.8068 10.8034 11.6249 11.0051C11.443 11.2069 11.3037 11.4433 11.2155 11.7001C11.1272 11.957 11.0917 12.2291 11.1111 12.5V20ZM4.44444 20H0V6.66667H4.44444V20ZM2.22222 4.44444C1.63285 4.44444 1.06762 4.21032 0.650874 3.79357C0.234126 3.37682 0 2.81159 0 2.22222C0 1.63285 0.234126 1.06762 0.650874 0.650874C1.06762 0.234126 1.63285 0 2.22222 0C2.81159 0 3.37682 0.234126 3.79357 0.650874C4.21032 1.06762 4.44444 1.63285 4.44444 2.22222C4.44444 2.81159 4.21032 3.37682 3.79357 3.79357C3.37682 4.21032 2.81159 4.44444 2.22222 4.44444Z" fill="#E6AB3D"/>
</svg>
