<svg width="41" height="40" viewBox="0 0 41 40" fill="none" xmlns="http://www.w3.org/2000/svg">
<path d="M32.5873 40.0001C32.1387 40.0001 31.7066 40.0001 31.2579 40.0001C31.1582 39.9835 31.0585 39.9336 30.9588 39.9336C26.2061 39.4018 22.8992 34.7156 24.0292 30.0627C24.0957 29.7802 24.0624 29.5974 23.8464 29.3814C19.4427 24.9777 15.0556 20.574 10.6852 16.1536C10.4858 15.9542 10.3196 15.9044 10.0371 15.9709C5.86602 17.0344 1.4956 14.5085 0.315741 10.3541C0.182799 9.88876 0.0997063 9.39023 0 8.90832C0 8.39317 0 7.8614 0 7.34625C0.0166177 7.24654 0.0664344 7.14684 0.0664344 7.04713C0.648055 2.69329 4.58647 -0.397611 8.95693 0.0676855C13.7927 0.582835 17.1162 5.26903 15.9696 9.97185C15.9031 10.2544 15.953 10.4205 16.1524 10.6199C20.5561 15.0403 24.9598 19.4606 29.3469 23.8809C29.5297 24.0637 29.6792 24.1135 29.9285 24.0471C30.992 23.7646 32.0556 23.7313 33.1357 23.8975C36.8914 24.4791 39.7828 27.6365 39.9822 31.4253C40.1983 35.2308 37.7222 38.7039 34.0497 39.701C33.5844 39.8173 33.0859 39.8838 32.5873 40.0001ZM4.76928 8.09405C4.76928 9.93861 6.26484 11.4508 8.10941 11.4508C9.95397 11.4508 11.4662 9.922 11.4662 8.09405C11.4496 6.24948 9.97062 4.7705 8.14268 4.75388C6.26487 4.75388 4.76928 6.23286 4.76928 8.09405ZM35.2628 31.874C35.2628 30.0294 33.7506 28.5172 31.906 28.5338C30.0781 28.5505 28.5825 30.0461 28.5659 31.874C28.5493 33.7186 30.0614 35.2308 31.906 35.2308C33.7672 35.2308 35.2628 33.7352 35.2628 31.874Z" fill="white"/>
<path d="M5.89058e-10 31.3255C0.0664709 30.9931 0.132899 30.6774 0.215988 30.345C1.21305 26.0244 5.55029 23.3822 9.83766 24.4956C10.0869 24.5621 10.2365 24.5288 10.4193 24.346C11.2336 23.5151 12.0811 22.6842 12.8787 21.8866C14.7067 23.6813 16.5346 25.476 18.3792 27.2874C18.2795 27.4037 18.1964 27.5034 18.0967 27.6031C17.3156 28.3841 16.5346 29.1652 15.7702 29.9628C15.6539 30.0791 15.5708 30.3118 15.604 30.4613C16.5014 35.0977 13.5434 39.2687 8.87386 39.9334C8.80739 39.9501 8.75751 39.9833 8.69104 39.9999C8.17589 39.9999 7.64412 39.9999 7.12897 39.9999C6.3147 39.8171 5.48385 39.7174 4.61973 39.2521C4.7859 39.1358 4.91883 39.0693 5.01853 38.9696C6.04883 37.9393 7.09573 36.9256 8.10941 35.8787C9.23941 34.6989 9.00678 32.8543 7.66075 31.9403C6.63045 31.2424 5.26779 31.3753 4.3372 32.2893C3.19058 33.4193 2.0606 34.5659 0.880737 35.7624C0.764413 35.4799 0.631467 35.2639 0.564997 35.0146C0.365584 34.3167 0.199378 33.6187 0.0165832 32.9208C-3.44847e-05 32.3558 5.89058e-10 31.8406 5.89058e-10 31.3255Z" fill="white"/>
<path d="M27.1203 18.1145C25.309 16.3197 23.481 14.525 21.6365 12.7137C21.7362 12.614 21.8193 12.5143 21.9024 12.4312C22.6834 11.6335 23.481 10.8525 24.2621 10.0382C24.3784 9.92192 24.4615 9.68927 24.4282 9.53971C23.4312 4.40483 27.1702 -0.0819526 32.3881 0.00113599C33.4351 0.0177537 34.4487 0.250402 35.4458 0.732316C34.9805 1.19761 34.5485 1.61306 34.1164 2.04512C33.4018 2.75968 32.6706 3.47424 31.9727 4.20542C31.2415 4.96984 31.0089 5.86719 31.3412 6.86426C31.6736 7.86132 32.4047 8.45956 33.4517 8.60912C34.3324 8.74206 35.0968 8.44294 35.7117 7.81147C36.7586 6.76455 37.8055 5.71763 38.8524 4.6541C38.9521 4.55439 39.002 4.40483 39.1183 4.32175C40.132 6.36573 40.2816 8.37647 39.5504 10.4371C38.1711 14.3589 34.1828 16.4859 30.1447 15.4556C29.9121 15.3892 29.7626 15.4556 29.5964 15.6218C28.7655 16.4859 27.9346 17.3168 27.1203 18.1145Z" fill="white"/>
</svg>
