<svg width="14" height="15" viewBox="0 0 14 15" fill="none" xmlns="http://www.w3.org/2000/svg">
<path d="M10.6079 3.92129C10.4526 4.0753 10.2427 4.16171 10.024 4.16171C9.80524 4.16171 9.59538 4.0753 9.44007 3.92129C9.36359 3.84549 9.30288 3.75528 9.26145 3.65589C9.22002 3.5565 9.19869 3.44989 9.19869 3.34221C9.19869 3.23453 9.22002 3.12791 9.26145 3.02852C9.30288 2.92913 9.36359 2.83893 9.44007 2.76313C9.59538 2.60912 9.80524 2.5227 10.024 2.5227C10.2427 2.5227 10.4526 2.60912 10.6079 2.76313C10.9293 3.08347 10.9293 3.60202 10.6079 3.92129ZM1.15726 8.74248C0.957011 8.54405 0.798054 8.30792 0.689574 8.04771C0.581095 7.78751 0.525242 7.50839 0.525242 7.22648C0.525242 6.94457 0.581095 6.66545 0.689574 6.40525C0.798054 6.14504 0.957011 5.90891 1.15726 5.71048L6.25701 0.642878C6.66034 0.24272 7.20486 0.0172186 7.77301 0.0150518L11.27 5.24401e-05C11.5543 -0.00193345 11.8363 0.0525031 12.0994 0.160211C12.3626 0.267919 12.6018 0.426758 12.8032 0.627535C13.0046 0.828312 13.1641 1.06704 13.2726 1.32989C13.3811 1.59275 13.4364 1.87451 13.4352 2.15887L13.4095 5.77262C13.4049 6.3364 13.1777 6.87551 12.7774 7.27255L7.75265 12.2652C7.34699 12.667 6.79908 12.8924 6.22808 12.8924C5.65709 12.8924 5.10918 12.667 4.70352 12.2652L1.15726 8.74248V8.74248ZM1.92008 6.46795C1.81996 6.56716 1.74048 6.68523 1.68624 6.81533C1.632 6.94543 1.60407 7.08499 1.60407 7.22594C1.60407 7.3669 1.632 7.50646 1.68624 7.63656C1.74048 7.76666 1.81996 7.88473 1.92008 7.98394L5.46634 11.5088C5.88739 11.9266 6.56985 11.9266 6.9909 11.5088L12.0157 6.51509C12.2155 6.31643 12.3287 6.04687 12.3306 5.76512L12.3574 2.15137C12.3581 2.00908 12.3306 1.86807 12.2764 1.73651C12.2221 1.60495 12.1423 1.48547 12.0416 1.38501C11.9408 1.28454 11.8211 1.20508 11.6894 1.15125C11.5576 1.09743 11.4166 1.07029 11.2743 1.07143L7.77729 1.08643C7.49303 1.08737 7.22056 1.20013 7.01876 1.40034L1.91901 6.46795H1.92008ZM0.580864 9.37459C0.436939 9.75976 0.406876 10.1782 0.494263 10.58C0.58165 10.9818 0.782796 11.3499 1.0737 11.6405L3.17788 13.7447C3.57583 14.1427 4.04827 14.4584 4.56822 14.6738C5.08818 14.8891 5.64547 15 6.20826 15C6.77106 15 7.32835 14.8891 7.84831 14.6738C8.36826 14.4584 8.8407 14.1427 9.23865 13.7447L12.9692 10.0142C13.2706 9.71311 13.4402 9.30462 13.4406 8.87854V8.04287L9.23865 12.2448C9.16472 12.3187 9.08866 12.3894 9.01152 12.4559L8.48119 12.9873C8.18272 13.2858 7.82837 13.5226 7.43838 13.6841C7.04839 13.8457 6.63039 13.9289 6.20826 13.9289C5.78613 13.9289 5.36814 13.8457 4.97814 13.6841C4.58815 13.5226 4.23381 13.2858 3.93534 12.9873L3.40072 12.4526C3.32405 12.386 3.24972 12.3167 3.17788 12.2448L1.0737 10.1406C0.856234 9.9237 0.688132 9.66241 0.580864 9.37459V9.37459Z" fill="#262449"/>
</svg>
