<svg width="69" height="61" viewBox="0 0 69 61" fill="none" xmlns="http://www.w3.org/2000/svg">
<g clip-path="url(#clip0_1884_27017)">
<path d="M3.25932 1.5687C3.98263 1.07434 4.74525 0.65529 5.58709 0.393742C6.23234 0.193125 6.88974 0.0551657 7.56795 0.0327472C7.64311 0.00860431 7.72001 0.0206758 7.79633 0.0206758C11.5742 0.0201009 15.3521 0.0201009 19.1305 0.0212506C19.2085 0.0212506 19.2912 0.00228116 19.3843 0.050567C19.3155 0.138516 19.2305 0.135642 19.1519 0.147139C17.3277 0.407538 15.777 1.20655 14.4871 2.5074C14.0951 2.90288 13.7592 3.34665 13.4631 3.81859C13.4157 3.89447 13.377 3.97897 13.2914 4.02323C12.9243 4.07956 12.5542 4.05025 12.1859 4.05255C10.8197 4.06002 9.45225 4.03588 8.08658 4.06059C6.44396 4.09048 5.22804 4.84294 4.47408 6.30129C4.18557 6.86002 4.07745 7.46705 4.07745 8.09246C4.07687 13.0556 4.07687 18.0187 4.07687 22.9818C4.07687 28.2708 4.07861 33.5598 4.07571 38.8488C4.07514 39.9048 4.38793 40.8452 5.10199 41.6322C5.72932 42.3243 6.51161 42.7525 7.44538 42.8934C7.67318 42.9278 7.90156 42.9462 8.13226 42.9457C9.36611 42.9428 10.6005 42.9439 11.8344 42.9445C11.9321 42.9445 12.0298 42.9388 12.1258 42.9641C12.2582 43.0106 12.2651 43.1244 12.2669 43.2371C12.2715 43.5004 12.2721 43.7637 12.268 44.0269C12.2443 45.5134 12.6282 46.8907 13.3943 48.1634C14.1338 49.3918 15.1416 50.3461 16.4003 51.0399C17.2826 51.5262 18.2227 51.8314 19.2253 51.9481C19.308 51.9579 19.3965 51.9648 19.4641 52.0165C19.5335 52.0694 19.4936 52.0924 19.4283 52.0964C15.5712 52.0953 11.7153 52.0964 7.85878 52.0953C7.77668 52.0953 7.69168 52.1137 7.61189 52.0774C7.56217 52.0751 7.51302 52.0734 7.4633 52.0711C7.34882 52.0274 7.22393 52.0838 7.10945 52.0355C7.08806 52.0338 7.06666 52.0315 7.04527 52.0297C6.9597 51.9878 6.85967 52.0441 6.77584 51.9895L6.77757 51.9906C6.69836 51.9406 6.60065 52.005 6.52259 51.9487C6.45437 51.9464 6.38094 51.9659 6.32543 51.9056C6.21269 51.8682 6.07739 51.9263 5.98083 51.8228L5.98315 51.8239C5.88428 51.7981 5.77789 51.7975 5.68654 51.7446C5.48013 51.6952 5.27429 51.644 5.08812 51.536C5.06094 51.4911 5.00254 51.5388 4.97421 51.4974C4.6539 51.3635 4.33012 51.2365 4.04334 51.0364C3.97164 51.0037 3.88491 50.9945 3.84502 50.9123L3.84386 50.9117C3.76639 50.8864 3.70568 50.8318 3.63629 50.7921C3.59177 50.7622 3.54783 50.7329 3.50331 50.703C3.43509 50.6289 3.31424 50.63 3.25932 50.5363C3.03672 50.3679 2.81007 50.2035 2.61869 49.9983C2.58169 49.9672 2.54237 49.9391 2.50594 49.908C2.23477 49.6494 1.97922 49.3763 1.74794 49.0814C1.69186 49.0653 1.70342 49.0015 1.66873 48.9711C1.63982 48.9383 1.61149 48.9061 1.58258 48.8733C1.53864 48.8457 1.53691 48.7894 1.50164 48.7555C1.45943 48.6974 1.41664 48.6394 1.37444 48.5813C1.32587 48.4911 1.22469 48.4319 1.21486 48.318C1.13738 48.237 1.08766 48.1387 1.03793 48.0404C1.00208 47.9933 0.989942 47.9346 0.957564 47.8863C0.722821 47.4564 0.510049 47.0172 0.376488 46.5441C0.316935 46.4585 0.326186 46.3515 0.288604 46.2596C0.229051 46.0952 0.175858 45.929 0.16892 45.7526C0.110523 45.6847 0.166029 45.5956 0.126134 45.5244L0.132494 45.5134L0.123821 45.5042C0.0683157 45.4266 0.131338 45.3295 0.0821921 45.2507L0.0833485 45.253C0.0266864 45.1553 0.0856613 45.0427 0.0417192 44.9432C0.0399847 44.9219 0.0388283 44.9012 0.0370937 44.88C-0.0328666 44.6834 0.0590647 44.477 -0.000488281 44.2804C0.0041372 44.2189 0.0122318 44.1568 0.0122318 44.0953C0.01281 32.071 0.01281 20.0467 0.0122318 8.02233C0.0122318 7.94646 0.0041372 7.87115 -0.000488281 7.79528C0.0342028 7.64007 0.0185918 7.48372 0.00934086 7.32794C0.00587175 7.26471 -0.00280102 7.20665 0.0422974 7.15491L0.0405628 7.15779C0.0891304 7.06351 0.0261082 6.95545 0.0793012 6.86175C0.0914431 6.8537 0.0925995 6.84393 0.0827703 6.83358C0.128447 6.75138 0.0671593 6.65251 0.125556 6.57261L0.124978 6.57433C0.150996 6.5065 0.119196 6.42775 0.165451 6.36394L0.164873 6.36567C0.212862 6.30186 0.151574 6.21564 0.208815 6.15356C0.363768 5.4195 0.63725 4.73142 1.02116 4.08646C1.08303 3.98184 1.11367 3.85883 1.20676 3.7726C1.22584 3.73007 1.23162 3.67891 1.2825 3.65706C1.29175 3.59153 1.3461 3.55704 1.38311 3.51048C1.386 3.46334 1.40566 3.4277 1.45076 3.40758C1.47446 3.33228 1.53517 3.284 1.58432 3.22766C1.61901 3.1972 1.60629 3.13339 1.66179 3.11672C1.73349 3.02935 1.80518 2.94255 1.87746 2.85517C1.92602 2.80918 1.92371 2.72411 2.00061 2.70112C2.02894 2.67123 2.05727 2.64133 2.0856 2.61144C2.10121 2.57638 2.12492 2.54879 2.16134 2.53384C2.24749 2.44762 2.33364 2.36139 2.41979 2.27517C2.43598 2.2378 2.46663 2.21711 2.50247 2.20101L2.50421 2.19929C2.60597 2.10329 2.64933 1.94291 2.81643 1.9182C2.8517 1.88543 2.88754 1.85266 2.92281 1.8199C2.94132 1.77679 2.97601 1.75667 3.02111 1.75034C3.10089 1.69056 3.18011 1.62963 3.25932 1.5687Z" fill="#332E4D"/>
<path d="M25.6494 58.3138C25.7529 58.135 25.857 57.9568 25.9605 57.778C26.0056 57.6964 26.0091 57.5958 26.0767 57.5239C26.116 57.4371 26.1559 57.3509 26.1952 57.2641C26.2033 57.1888 26.234 57.1233 26.282 57.0652C26.2947 57.0336 26.3074 57.002 26.3201 56.9704C26.3346 56.8991 26.3473 56.8273 26.4051 56.7744C26.7208 56.0121 26.8983 55.2137 27.0319 54.4043C27.0822 54.1003 27.1128 53.7927 27.1521 53.4863C27.2631 53.5697 27.3892 53.5886 27.5251 53.5886C32.3286 53.5858 37.1322 53.5904 41.9357 53.5852C41.9912 53.5852 42.0473 53.58 42.1023 53.5915C42.1849 53.6864 42.211 53.8077 42.2254 53.9232C42.2798 54.3538 42.3624 54.7786 42.4486 55.2028C42.4677 55.2976 42.4711 55.3919 42.4694 55.4879L42.4688 55.4873C42.5648 55.5971 42.5793 55.7391 42.6145 55.8707C42.6984 56.1852 42.8007 56.4933 42.9192 56.7956C42.9782 56.9692 43.0493 57.1377 43.1285 57.3032C43.1881 57.4895 43.2904 57.6556 43.3743 57.8303C43.3985 57.8803 43.4292 57.9269 43.4604 57.9729C43.5049 58.0516 43.5385 58.1373 43.5911 58.212C43.6223 58.258 43.6501 58.3063 43.6784 58.354C43.7888 58.5316 43.9039 58.7058 44.034 58.8696C44.0646 58.915 44.0929 58.9628 44.1317 59.0018C44.1762 59.0484 44.212 59.1013 44.2485 59.1536C44.2745 59.1887 44.3046 59.2209 44.3364 59.2507C44.3566 59.2686 44.3757 59.2875 44.3953 59.3065C44.474 59.3766 44.5347 59.464 44.6139 59.5324C44.6613 59.5726 44.7052 59.6163 44.7498 59.66C44.7862 59.6968 44.822 59.7342 44.8602 59.7692C44.8735 59.7807 44.8851 59.7928 44.8972 59.8055C44.9325 59.8434 44.9689 59.8802 45.0105 59.9112C45.0822 59.9641 45.1614 60.0089 45.2071 60.0906C45.2603 60.1567 45.3511 60.1636 45.4124 60.2176C45.4286 60.2262 45.4436 60.236 45.458 60.2463C45.5008 60.2791 45.5465 60.3079 45.5933 60.336C45.6772 60.3964 45.7668 60.4481 45.8483 60.5119C45.9871 60.624 46.1507 60.6913 46.3074 60.7717C46.3785 60.8085 46.4647 60.8241 46.4988 60.9109C46.493 60.9218 46.4872 60.9321 46.4808 60.9425C46.4699 60.9494 46.4595 60.9557 46.4485 60.9626C46.2756 60.9896 46.1016 60.9925 45.9275 60.9925C38.4331 60.9925 30.9387 60.9931 23.4442 60.9896C23.2245 60.9896 22.999 61.0304 22.7834 60.9482C22.744 60.9034 22.7695 60.8746 22.8082 60.8499C22.9481 60.7792 23.0875 60.7091 23.2274 60.6384C23.3199 60.5711 23.4165 60.5113 23.5286 60.4797C23.568 60.4498 23.6079 60.4205 23.6472 60.3906C23.7131 60.3446 23.7773 60.2952 23.8542 60.267L23.8553 60.2665C23.8917 60.2044 23.9507 60.1699 24.0137 60.1412C24.045 60.1141 24.0762 60.0877 24.1074 60.0607C24.1375 60.0204 24.1912 60.0124 24.2242 59.9768C24.2687 59.9359 24.3132 59.8951 24.3578 59.8543C24.4127 59.8152 24.4653 59.7738 24.5133 59.7273C24.5867 59.6543 24.6607 59.5813 24.7342 59.5088C24.8134 59.4376 24.8643 59.3416 24.9435 59.2703C24.9573 59.2553 24.9712 59.241 24.9845 59.226C25.0007 59.191 25.0331 59.1708 25.0591 59.145C25.1036 59.0881 25.1481 59.0306 25.1927 58.9737C25.3071 58.7276 25.4922 58.5299 25.6494 58.3138Z" fill="#5B5F90"/>
<path d="M42.1057 53.6209C42.0294 53.6674 41.9444 53.6565 41.8611 53.6565C37.0339 53.6565 32.206 53.6565 27.3788 53.6559C27.2596 53.6559 27.1111 53.6979 27.1249 53.4927C27.129 53.3455 27.133 53.1984 27.1371 53.0512C27.1856 52.7368 27.1249 52.4189 27.1689 52.1045C27.2255 52.0286 27.3094 52.0217 27.3938 52.0159C27.477 52.0108 27.5609 52.0125 27.6447 52.0125C32.2979 52.0125 36.9518 52.0125 41.605 52.0136C41.7426 52.0136 41.8848 51.9906 42.0161 52.0567C42.1334 52.2028 42.0849 52.3689 42.067 52.5275C42.056 52.6281 42.019 52.7264 42.0849 52.8213C42.1566 52.9725 42.1369 53.1294 42.1103 53.2857C42.1022 53.3329 42.0779 53.3777 42.1069 53.4249C42.1086 53.4484 42.1097 53.4714 42.1115 53.495C42.1381 53.5375 42.1444 53.5801 42.1057 53.6209Z" fill="#332E4D"/>
<path d="M68.9255 45.2488C68.8833 45.3299 68.8833 45.4172 68.885 45.5052L68.8862 45.5046C68.8382 45.5678 68.8971 45.6529 68.844 45.715L68.8445 45.7133C68.7942 45.7731 68.8752 45.8696 68.7873 45.9191C68.7503 46.0714 68.7133 46.2231 68.6769 46.3755C68.6537 46.4623 68.6485 46.5554 68.5855 46.6278C68.5416 46.7474 68.4785 46.8606 68.4652 46.99C68.4225 47.1245 68.4404 47.2854 68.2953 47.3757C68.2253 47.4562 68.1999 47.5562 68.1704 47.6545C68.1328 47.8379 68.0385 47.9902 67.909 48.123C67.8755 48.2172 67.7749 48.2724 67.7587 48.3765C67.6997 48.5817 67.5691 48.7363 67.4112 48.8731C67.4014 48.8869 67.391 48.9007 67.3812 48.9145C67.3534 49.0324 67.273 49.1082 67.173 49.168C66.9758 49.3841 66.7793 49.6009 66.5821 49.817C66.5503 49.9469 66.4167 49.9653 66.3352 50.0412C66.2491 50.0866 66.1866 50.1584 66.1224 50.2292C66.097 50.2832 66.0455 50.305 65.9964 50.3303C65.9825 50.3412 65.9686 50.3516 65.9553 50.3625C65.89 50.4758 65.7958 50.5516 65.6674 50.5827C65.6437 50.6379 65.5894 50.6465 65.5414 50.6655C65.4841 50.704 65.4269 50.7419 65.3696 50.7804C65.3344 50.8753 65.2419 50.8845 65.1638 50.9149C65.1366 50.931 65.11 50.9471 65.0829 50.9632C65.0418 51.0546 64.9493 51.0558 64.8712 51.0816C64.7464 51.1512 64.6209 51.2207 64.496 51.2903C64.4515 51.3518 64.3833 51.3581 64.3168 51.3673C64.1115 51.4524 63.9063 51.5375 63.7016 51.6231C63.6299 51.6938 63.5304 51.6772 63.4449 51.7042C63.3645 51.7829 63.235 51.7036 63.1581 51.7927C63.017 51.9002 62.8389 51.86 62.6834 51.9094L62.6684 51.9059L62.6556 51.9146C62.525 51.9945 62.3729 51.9623 62.233 51.9945L62.2359 51.9927C62.1405 52.0531 62.0277 51.9881 61.9312 52.0353L61.9161 52.0301L61.9023 52.0382C61.76 52.0387 61.6178 52.0318 61.479 52.0738C61.4386 52.0761 61.3987 52.0784 61.3582 52.0807C61.1564 52.0801 60.954 52.0784 60.7523 52.0784C54.6166 52.0784 48.4809 52.0784 42.3457 52.0784C42.2411 52.0784 42.1364 52.0818 42.0324 52.0836C37.1716 52.0836 32.3113 52.0841 27.4505 52.0847C27.3615 52.0847 27.2684 52.0663 27.1857 52.118C27.1169 52.0462 27.0279 52.0801 26.9487 52.0801C24.4862 52.0807 22.0237 52.0841 19.5612 52.0864C19.5057 52.0864 19.4508 52.0801 19.3953 52.0772C18.9888 51.9617 18.5638 51.9445 18.1545 51.8364C16.9652 51.5231 15.8973 50.9845 14.9571 50.1924C13.8141 49.2289 13.0011 48.0442 12.5201 46.6359C12.2686 45.8989 12.1263 45.1396 12.1148 44.359C12.109 43.9848 12.113 43.6105 12.1125 43.2363C12.1125 43.1604 12.1234 43.0828 12.0703 43.0167C12.1408 42.9397 12.2345 42.9524 12.3241 42.9524C25.0332 42.9575 37.7417 42.9529 50.4507 42.9547C50.6109 42.9547 50.7716 42.9524 50.9312 42.957C51.0752 42.961 51.1746 43.0552 51.2741 43.1392C52.653 44.2969 54.0361 45.4494 55.4116 46.6112C56.0435 47.1446 56.6818 47.6706 57.3132 48.2057C58.1244 48.8932 59.1675 48.8967 59.9891 48.2213C60.2041 48.0442 60.3637 47.8126 60.5424 47.5999C60.9621 47.1003 61.3946 46.6112 61.8005 46.1001C62.2376 45.6081 62.6724 45.1132 63.0743 44.5929C63.5553 43.9704 63.6166 43.2812 63.3084 42.5586C63.2668 42.4609 63.1795 42.3689 63.2546 42.2493C63.6085 41.9458 63.9566 41.64 64.2231 41.2509C64.6978 40.5582 64.9256 39.7931 64.9325 38.9619C64.9401 38.0128 64.9343 37.0632 64.9343 36.1142C64.9343 26.7668 64.9349 17.4189 64.9337 8.07157C64.9337 6.36029 63.9386 4.91976 62.3371 4.30584C62.0295 4.188 61.7063 4.13339 61.3825 4.08281C61.246 4.04027 61.1055 4.05694 60.9668 4.05694C45.1846 4.05637 29.4019 4.05637 13.6198 4.05407C13.4793 4.05407 13.3249 4.10465 13.2 3.98969C14.5697 1.7145 16.6015 0.444124 19.223 0.0405926C19.0964 0.0405926 18.9692 0.0405926 18.8425 0.0405926C15.093 0.0434668 11.3435 0.0457661 7.59453 0.0480654C7.5529 0.0480654 7.51184 0.0417423 7.47021 0.0382933C7.62575 -0.0140164 7.78764 0.00552786 7.94606 0.00552786C11.7499 0.00322853 15.5532 0.00380336 19.3571 0.00380336C19.4126 0.00380336 19.4681 0.00955168 19.5236 0.0124258C19.6127 0.0388681 19.704 0.0250721 19.7936 0.0250721C33.6406 0.025647 47.4875 0.025647 61.3345 0.025647C61.6086 0.0285211 61.8867 -0.0122919 62.1532 0.0888785C62.1624 0.0986506 62.1729 0.0998003 62.1844 0.0929023C62.2573 0.107848 62.3365 0.0819805 62.4041 0.128542C62.4134 0.138314 62.4232 0.139464 62.4348 0.132566C62.4984 0.183726 62.5961 0.0992254 62.6504 0.1866C62.7603 0.218216 62.8667 0.267076 62.9852 0.255005C63.0795 0.298117 63.202 0.252706 63.2795 0.347553C63.4061 0.385492 63.5322 0.423431 63.6588 0.461944C63.6883 0.505057 63.7582 0.452747 63.7802 0.512529C63.9144 0.576336 64.0473 0.643591 64.1948 0.672333C64.2555 0.694176 64.3191 0.709122 64.3711 0.751085C64.4278 0.776377 64.511 0.747636 64.5388 0.832136C64.618 0.880997 64.6862 0.951701 64.7863 0.961473C64.8782 0.98964 64.9759 1.00688 65.0354 1.09541L65.0331 1.09483C65.0886 1.10288 65.1395 1.1184 65.1609 1.17818C65.2234 1.22647 65.2777 1.28683 65.3621 1.2989C65.4176 1.30982 65.4691 1.32764 65.4934 1.38512C65.5934 1.40122 65.6726 1.44433 65.7079 1.5455C65.716 1.58517 65.7472 1.58804 65.779 1.58919C65.9906 1.67886 66.1641 1.8151 66.2913 2.00709C66.3051 2.01916 66.319 2.03124 66.3329 2.04331C66.3977 2.06228 66.4399 2.10424 66.4618 2.16747C66.4757 2.20943 66.5006 2.23932 66.5457 2.24967C66.6648 2.32612 66.7787 2.40718 66.8382 2.54226C66.8735 2.61526 66.9325 2.66585 66.9972 2.71126C67.1383 2.78944 67.2297 2.90958 67.2921 3.05444C67.2985 3.13031 67.3603 3.16538 67.4072 3.21194C67.4708 3.23091 67.4864 3.28552 67.5043 3.33898C67.5373 3.45624 67.6303 3.53442 67.6986 3.62812C67.8032 3.66031 67.798 3.76493 67.8391 3.83851C67.8518 3.92128 67.89 3.98911 67.9541 4.04315C68.0351 4.06844 68.0287 4.14489 68.0513 4.20467C68.1091 4.2794 68.1403 4.36793 68.1779 4.453C68.2334 4.49669 68.2276 4.56969 68.26 4.6243C68.2548 4.69156 68.297 4.73927 68.3288 4.791C68.4248 4.86918 68.4311 4.98702 68.4635 5.09336C68.4589 5.10486 68.4618 5.11348 68.4728 5.11923C68.5421 5.17499 68.5248 5.26236 68.552 5.33364C68.5543 5.37676 68.5398 5.42447 68.5849 5.45551C68.674 5.51759 68.6399 5.62451 68.6769 5.70556L68.6757 5.70499C68.7711 5.78661 68.7185 5.90905 68.759 6.00562C68.7578 6.0746 68.752 6.14473 68.8058 6.20049C68.8544 6.24878 68.8006 6.32063 68.8451 6.37007L68.844 6.36949C68.9232 6.42927 68.8388 6.51952 68.885 6.58563C68.8775 6.59712 68.8786 6.60747 68.8885 6.61667C68.9347 6.6845 68.8856 6.76842 68.9261 6.8374C68.918 6.84775 68.9191 6.85752 68.929 6.86615C68.9839 6.96157 68.9203 7.07193 68.9683 7.16793C68.9694 7.19207 68.9712 7.21679 68.9723 7.24094C69.0093 7.38349 68.9925 7.52778 68.9821 7.67148C68.9654 7.76116 68.9723 7.85141 68.9723 7.94108C68.9717 19.9821 68.9717 32.0225 68.9723 44.0635C68.9723 44.1532 68.9648 44.244 68.9833 44.3331C68.981 44.517 69.0301 44.7027 68.97 44.8849C68.9602 44.8941 68.9596 44.9045 68.9665 44.916C68.9654 45.0177 68.9908 45.1229 68.9301 45.2172C68.9203 45.2264 68.9191 45.2373 68.9255 45.2488Z" fill="#5B5F90"/>
<path d="M61.3702 0.0358682C61.3009 0.0381675 61.2309 0.043341 61.1615 0.043341C47.3695 0.043341 33.5775 0.043341 19.7854 0.0416165C19.6981 0.0416165 19.6039 0.0715078 19.5229 0.00942594C19.8785 0.00827628 20.2335 0.00655178 20.5891 0.00655178C33.9625 0.00655178 47.3365 0.00655178 60.7099 0.00597695C60.884 0.00597695 61.058 0.00310279 61.232 0.00195312C61.2696 0.00310279 61.3072 0.00425245 61.3448 0.00540212C61.3598 0.0100008 61.3685 0.0197729 61.3702 0.0358682Z" fill="#626395"/>
<path d="M51.0215 43.0042C50.8336 43.0071 50.6457 43.0128 50.4578 43.0128C37.7799 43.0128 25.102 43.0128 12.4242 43.0122C12.3057 43.0122 12.1877 43.014 12.0692 43.0145C10.7237 43.0134 9.37889 43.0111 8.03345 43.0117C5.98205 43.0122 4.3348 41.6499 3.97344 39.6426C3.93412 39.4259 3.92198 39.2017 3.92198 38.9804C3.91966 28.6616 3.91966 18.3428 3.92024 8.02395C3.92024 5.79245 5.7051 4.00645 7.95135 3.9961C9.62404 3.98863 11.2973 3.99438 12.97 3.9938C13.0463 3.9938 13.1232 3.9892 13.1995 3.98633C13.2759 3.98863 13.3527 3.99265 13.4291 3.99265C29.2563 3.99265 45.0841 3.99265 60.9113 3.9938C61.0767 3.9938 61.2455 3.97023 61.4068 4.03231C61.3502 4.09727 61.271 4.09612 61.1952 4.10014C61.0906 4.10532 60.9859 4.10244 60.8819 4.10244C44.9592 4.10244 29.0366 4.10302 13.1145 4.10187C12.0912 4.10187 11.2349 4.48931 10.4971 5.17566C10.0773 5.56654 9.76222 6.02411 9.55639 6.55755C9.53384 6.61561 9.50956 6.67367 9.4714 6.72368C9.40259 6.79726 9.31933 6.76736 9.24012 6.75299C8.92501 6.69494 8.61221 6.69953 8.30173 6.78001C7.28297 7.15135 6.81984 8.11362 7.18467 9.10291C7.41884 9.73752 8.05022 10.1778 8.73132 10.1807C8.8776 10.1813 9.02388 10.1836 9.17016 10.1663C9.23318 10.1589 9.31991 10.1336 9.32107 10.2497C9.30257 10.3313 9.28753 10.4124 9.28753 10.4963C9.30199 20.0132 9.29158 29.5301 9.29274 39.047C9.29274 40.0375 9.63502 40.89 10.2936 41.6217C10.8943 42.2902 11.6402 42.7087 12.5288 42.8737C12.6948 42.9047 12.8613 42.9053 13.029 42.9053C25.5577 42.9053 38.0858 42.9053 50.6144 42.9053C50.7052 42.9053 50.796 42.907 50.8868 42.9088C50.9579 42.9013 51.018 42.9134 51.0215 43.0042Z" fill="#C7C6E3"/>
<path d="M9.43389 6.74353C9.51947 6.37564 9.6987 6.05316 9.91321 5.7462C10.4388 4.99432 11.1413 4.47697 12.0143 4.19703C12.2953 4.10736 12.5833 4.03493 12.8885 4.03493C29.0124 4.03838 45.1362 4.03838 61.2601 4.03838C61.3086 4.03838 61.3578 4.03493 61.4063 4.0332C62.7894 4.18956 63.8093 4.89315 64.495 6.08248C64.8454 6.69065 64.9911 7.35745 64.9911 8.05588C64.9917 18.3569 64.9917 28.6578 64.9911 38.9583C64.9911 39.5549 64.8766 40.128 64.6251 40.6718C64.3152 41.3421 63.8561 41.8887 63.2444 42.3072C63.1935 42.3262 63.1635 42.2923 63.1403 42.2601C62.842 41.8474 62.4118 41.5778 62.0337 41.253C61.1849 40.5241 60.3171 39.8176 59.4625 39.0956C58.512 38.2926 57.5533 37.4999 56.6016 36.6986C55.4002 35.6869 54.1952 34.6786 52.9938 33.6669C52.4884 33.2416 51.9941 32.803 51.4708 32.4006C50.6041 31.7349 49.3899 31.8913 48.7025 32.7386C48.6105 32.8518 48.5255 32.9708 48.3926 33.0427C48.1804 32.9731 48.041 32.8035 47.8786 32.6679C47.3403 32.2178 46.7974 31.7729 46.2718 31.309C46.2157 31.2595 46.144 31.2193 46.1388 31.1308C46.1417 31.0491 46.1914 30.9894 46.2319 30.925C47.1801 29.431 47.8196 27.814 48.1567 26.0814C48.2769 25.4635 48.3371 24.8364 48.3822 24.2063C48.4868 22.7457 48.3168 21.3155 47.956 19.9049C47.4247 17.8297 46.4556 15.9748 45.0582 14.3428C43.7087 12.7666 42.0846 11.548 40.1991 10.68C38.8357 10.0523 37.4007 9.66828 35.9067 9.49238C35.107 9.39811 34.3045 9.38144 33.5072 9.4257C31.8021 9.52112 30.163 9.91546 28.5967 10.6053C27.3056 11.1743 26.1278 11.9159 25.0645 12.8385C24.7911 13.0638 24.5182 13.2914 24.2776 13.5513C23.659 14.2192 23.0623 14.9056 22.5546 15.6638C21.4058 17.3814 20.6755 19.2593 20.3419 21.2943C20.1748 22.3129 20.1517 23.3401 20.2147 24.3621C20.357 26.6655 21.0548 28.8079 22.2661 30.7767C23.0652 32.0758 24.0695 33.2025 25.242 34.1837C26.4273 35.1753 27.7427 35.945 29.183 36.5031C30.3971 36.9739 31.6524 37.2803 32.955 37.3878C33.4685 37.4304 33.9813 37.4809 34.4976 37.4654C36.427 37.4074 38.2842 37.0251 40.0534 36.2416C41.1947 35.7363 42.2441 35.0862 43.2149 34.309C43.3994 34.1613 43.5763 34.0049 43.7521 33.8463C43.9301 33.6853 44.0082 33.6847 44.1868 33.8359C44.8188 34.3699 45.4508 34.9034 46.0844 35.4351C46.133 35.4759 46.177 35.5196 46.1949 35.5828C46.207 35.7093 46.1197 35.7852 46.0463 35.8674C45.7341 36.2157 45.4976 36.6003 45.4484 37.0763C45.3779 37.7557 45.5861 38.3386 46.1053 38.7875C47.2235 39.755 48.3706 40.6885 49.4981 41.645C49.9427 42.0221 50.3977 42.3871 50.8354 42.7728C50.8822 42.8142 50.9638 42.8424 50.9412 42.9326C50.8764 42.9947 50.7955 42.9689 50.7221 42.9689C38.0945 42.97 25.467 42.9706 12.84 42.9671C12.2173 42.9671 11.6559 42.7297 11.1378 42.4141C10.4538 41.9974 9.9294 41.4231 9.59116 40.6931C9.36509 40.2056 9.2269 39.6981 9.2269 39.1543C9.22922 29.692 9.22864 20.2297 9.22748 10.7668C9.22748 10.6495 9.21534 10.5328 9.21014 10.4156C9.20609 10.3253 9.21823 10.2408 9.31247 10.1948C9.32577 10.1414 9.36914 10.1184 9.41481 10.1011C9.94501 9.89821 10.3 9.52687 10.4914 8.99745C10.792 8.19728 10.3919 7.24479 9.60099 6.87287C9.53565 6.84356 9.44199 6.84585 9.43389 6.74353Z" fill="#DEDBED"/>
<path d="M47.9992 33.093C48.1056 32.974 48.2132 32.8561 48.3178 32.736C49.0874 31.8565 50.3149 31.7513 51.2157 32.4957C51.8962 33.0579 52.5681 33.6304 53.2445 34.1978C55.2416 35.8723 57.2398 37.5462 59.2368 39.2201C60.3181 40.1266 61.3981 41.0343 62.4799 41.9402C62.6308 42.0667 62.7389 42.2288 62.8673 42.3742C63.2587 43.0818 63.287 43.7929 62.8765 44.5022C62.7268 44.7609 62.5111 44.9713 62.3191 45.1978C62.0335 45.5358 61.7415 45.868 61.4519 46.2026C60.543 46.7113 59.6161 46.6245 58.8471 45.9715C57.7515 45.0408 56.6419 44.1263 55.5422 43.2002C54.3795 42.2207 53.2081 41.2515 52.0454 40.2714C51.1798 39.542 50.3108 38.8171 49.4441 38.0894C48.87 37.6071 48.2982 37.1219 47.7223 36.6414C47.0383 36.0712 46.722 35.1313 47.1418 34.1794C47.1672 34.1225 47.1915 34.065 47.2112 34.0058C47.4338 33.6684 47.7009 33.3671 47.9992 33.093Z" fill="#EE2C62"/>
<path d="M47.2565 34.004C47.1558 34.3506 46.9888 34.676 47.0015 35.0559C47.0246 35.7245 47.3143 36.2441 47.8225 36.6643C48.3504 37.1006 48.869 37.5472 49.3946 37.9864C50.0156 38.5055 50.6406 39.02 51.2621 39.539C51.6871 39.8937 52.108 40.2524 52.5318 40.6076C52.918 40.9319 53.306 41.2543 53.6922 41.5785C54.1056 41.9252 54.5185 42.2724 54.9313 42.6196C55.3221 42.9484 55.7118 43.2783 56.1033 43.6071C56.7121 44.1193 57.3192 44.6332 57.9309 45.1419C58.3403 45.4822 58.738 45.8403 59.1734 46.1456C59.747 46.5474 60.3853 46.5911 61.0363 46.3318C61.145 46.2887 61.3069 46.3335 61.3561 46.1697C61.3879 46.1812 61.4202 46.1921 61.452 46.2036C60.8808 46.8819 60.3356 47.5844 59.7314 48.2316C59.0185 48.995 57.8297 49.0588 57.0208 48.3978C55.8598 47.4493 54.7197 46.475 53.5697 45.5133C52.5954 44.6987 51.62 43.8859 50.6446 43.072C50.6273 43.0363 50.6024 43.0104 50.5625 43.0007C49.6605 42.2396 48.7592 41.4774 47.856 40.7169C47.1443 40.1173 46.4256 39.5252 45.7185 38.9205C44.8541 38.1819 44.7598 36.9454 45.486 36.0716C45.5965 35.9394 45.7289 35.8233 45.8058 35.6647C45.9578 35.3652 46.2203 35.1531 46.4216 34.8915C46.6309 34.6191 46.8708 34.3696 47.0876 34.1017C47.1293 34.0494 47.1726 33.9902 47.2565 34.004Z" fill="#E01C54"/>
<path d="M32.8682 47.5448C32.8676 46.5671 33.6823 45.7594 34.6663 45.7617C35.6492 45.764 36.457 46.574 36.4552 47.5552C36.4535 48.5267 35.629 49.3349 34.6455 49.3291C33.6742 49.324 32.8687 48.5152 32.8682 47.5448Z" fill="#DFDBEE"/>
<path d="M10.529 9.03554C10.3197 9.62646 9.89821 9.99723 9.31078 10.1955C8.77249 10.2984 8.25906 10.2576 7.78842 9.9455C6.67252 9.20569 6.76676 7.47774 7.95956 6.869C8.05727 6.81899 8.15036 6.75461 8.26426 6.74023C8.3348 6.81266 8.29722 6.89601 8.28855 6.97592C8.1891 7.8715 8.57764 8.54118 9.39404 8.88148C9.70047 9.00909 10.0191 8.9884 10.3388 8.96368C10.4088 8.95794 10.5094 8.89988 10.529 9.03554Z" fill="#4977BC"/>
<path d="M10.5287 9.03501C10.4894 8.96947 10.4367 9.00052 10.3824 9.01086C9.35958 9.20171 8.45993 8.61308 8.24195 7.60137C8.18009 7.31568 8.22114 7.02597 8.2645 6.7397C8.65478 6.59944 9.04447 6.62589 9.43417 6.74315C10.1037 7.01275 10.509 7.49963 10.6293 8.20897C10.6767 8.49006 10.6559 8.77058 10.5287 9.03501Z" fill="#60B5E6"/>
<path d="M25.0388 12.7939C25.9275 12.0052 26.9139 11.3591 27.9778 10.832C30.2338 9.7145 32.6269 9.22359 35.1392 9.3742C38.3151 9.56447 41.1274 10.6917 43.5425 12.7565C45.9582 14.8219 47.4886 17.4207 48.1587 20.5144C48.5091 22.1326 48.5571 23.7657 48.3223 25.408C48.0315 27.4412 47.3273 29.3174 46.2172 31.0459C46.1952 31.0804 46.1836 31.1207 46.1669 31.1586C46.1565 31.2908 46.0703 31.3862 45.9998 31.488C45.7772 31.807 45.5251 32.1036 45.2886 32.4123C45.14 32.6066 44.9353 32.7463 44.7422 32.8934C43.5072 33.8396 42.1618 34.5852 40.6863 35.0939C39.5958 35.4698 38.477 35.7113 37.3287 35.8349C36.8772 35.8831 36.4221 35.8992 35.9741 35.8981C34.7391 35.8946 33.5156 35.7435 32.3176 35.4227C30.8866 35.0393 29.54 34.4639 28.2963 33.6631C27.1914 32.9521 26.1981 32.1117 25.3222 31.1287C24.4127 30.1084 23.6685 28.9852 23.0915 27.7533C22.5659 26.6306 22.1832 25.4603 21.9646 24.2382C21.7709 23.1552 21.7241 22.063 21.7715 20.9674C21.8305 19.6154 22.119 18.3036 22.5769 17.0321C22.9637 15.9595 23.4656 14.9414 24.1149 13.997C24.4023 13.5785 24.7018 13.1727 25.0388 12.7939Z" fill="#FCB11A"/>
<path d="M25.039 12.793C24.9164 13.0585 24.7071 13.2632 24.5371 13.4943C24.1191 14.0633 23.7473 14.6583 23.4091 15.278C23.1171 15.8126 22.8789 16.3701 22.669 16.9369C22.3528 17.7911 22.1365 18.6735 21.9798 19.5737C21.8156 20.5141 21.8237 21.4568 21.8208 22.403C21.8197 22.8732 21.9 23.336 21.9573 23.8004C22.0417 24.485 22.2059 25.1542 22.4048 25.8141C22.5742 26.3762 22.7899 26.9218 23.0211 27.4615C23.3154 28.1479 23.6751 28.7992 24.0833 29.4223C24.4423 29.9707 24.8274 30.503 25.2709 30.9904C25.5831 31.3342 25.9017 31.6716 26.2382 31.9912C26.766 32.4925 27.3402 32.9362 27.9375 33.3536C28.5706 33.7956 29.2366 34.1807 29.9385 34.5003C30.7717 34.8797 31.6297 35.189 32.5225 35.412C33.2984 35.6057 34.0836 35.7466 34.8745 35.7995C35.7574 35.8587 36.6455 35.8627 37.5318 35.7449C38.0268 35.6793 38.52 35.6155 39.0062 35.5063C39.9117 35.3034 40.7911 35.028 41.6451 34.659C42.7795 34.1687 43.8185 33.5277 44.7985 32.7862C45.3154 32.3953 45.6478 31.8452 46.0341 31.3416C46.0803 31.2813 46.1225 31.2186 46.1665 31.1571C46.9031 31.7797 47.6397 32.4016 48.3763 33.0242C48.1288 33.3283 47.8814 33.6318 47.6339 33.9359C47.2488 34.3394 46.9106 34.7826 46.5423 35.2005C46.4249 35.3338 46.3295 35.4891 46.1832 35.5965C45.4935 35.0125 44.8002 34.4325 44.1162 33.8422C43.9994 33.7416 43.9376 33.7513 43.8283 33.8502C42.5152 35.0372 41.0316 35.9524 39.3711 36.5784C37.3052 37.3573 35.1705 37.67 32.9705 37.4429C28.7059 37.0026 25.3038 35.0407 22.7702 31.6135C21.4011 29.7614 20.5598 27.6731 20.2742 25.391C19.659 20.4825 21.223 16.3489 24.8314 12.9643C24.8962 12.9033 24.969 12.8499 25.039 12.793Z" fill="#F7901F"/>
<path d="M16.922 8.98661C16.7069 9.6833 16.2183 10.0909 15.5164 10.2242C14.611 10.3961 13.761 9.8707 13.4719 8.99696C13.1973 8.16747 13.5945 7.23165 14.3912 6.83501C14.4462 6.80742 14.508 6.79363 14.567 6.77351C14.6624 6.74591 14.6965 6.79305 14.6925 6.87928C14.6884 6.96205 14.6861 7.0454 14.6722 7.12703C14.5185 8.04791 15.406 9.00558 16.3079 8.97799C16.5109 8.97166 16.7184 8.92108 16.922 8.98661Z" fill="#F7901F"/>
<path d="M23.2874 9.03347C23.0047 10.0371 21.761 10.5579 20.7799 10.0682C20.093 9.72556 19.753 9.15016 19.7744 8.38966C19.7952 7.6533 20.1722 7.12905 20.8313 6.80139C20.8614 6.78645 20.8978 6.78415 20.9313 6.7761C21.1198 6.75253 21.0528 6.89107 21.0366 6.96465C20.9562 7.32047 21.036 7.65444 21.1701 7.9775C21.4615 8.67879 22.2773 9.11222 23.029 8.97828C23.0978 8.96621 23.1649 8.94379 23.2342 8.93977C23.3059 8.93574 23.3152 8.97656 23.2874 9.03347Z" fill="#00AF50"/>
<path d="M23.2877 9.0344C23.2028 8.91714 23.1074 9.03095 23.0287 9.03957C22.3927 9.11085 21.8614 8.93898 21.4277 8.45669C21.0351 8.02097 20.8941 7.52432 20.9819 6.95293C20.9906 6.89488 21.0733 6.79946 20.9316 6.77761C21.5272 6.53331 22.088 6.62011 22.613 6.96788C23.286 7.41338 23.5826 8.33368 23.2877 9.0344Z" fill="#29B45B"/>
<path d="M16.9219 8.98677C16.4045 9.0707 15.898 9.07875 15.4348 8.77811C15.0556 8.53151 14.8081 8.19121 14.6612 7.76353C14.5624 7.47497 14.5982 7.19272 14.6341 6.90703C14.6427 6.83518 14.6566 6.78517 14.5664 6.77367C15.3504 6.40118 16.4258 6.81851 16.8329 7.66236C17.0387 8.08831 17.0873 8.53266 16.9219 8.98677Z" fill="#FCB11A"/>
<path d="M45.1819 23.4495C45.2131 29.4151 40.335 34.2679 34.245 34.2633C28.2636 34.2587 23.4971 29.4278 23.4028 23.6174C23.3057 17.6317 28.0306 12.6703 34.497 12.6002C39.7527 12.5427 45.2114 16.9792 45.1819 23.4495Z" fill="#DFDBEE"/>
<path d="M33.0735 18.0593C33.0735 17.4856 33.0718 17.0487 33.0741 16.6124C33.0776 15.8721 33.5714 15.3047 34.308 15.1903C35.0665 15.073 35.7401 15.4697 35.9639 16.171C36.0205 16.3492 36.0396 16.5366 36.0408 16.7234C36.0431 17.4304 36.0622 18.138 36.0367 18.8445C36.0061 19.7004 35.9373 20.5552 35.8858 21.4106C35.8679 21.7072 35.865 22.0044 35.8454 22.3016C35.7858 23.2052 35.7644 24.1117 35.702 25.0153C35.6632 25.5735 35.6892 26.138 35.5834 26.6887C35.4753 27.2532 35.0307 27.5159 34.3617 27.4532C33.8743 27.4078 33.5205 27.0083 33.4887 26.499C33.4239 25.4568 33.3701 24.4146 33.3181 23.3719C33.2799 22.6056 33.2337 21.8394 33.1915 21.0737C33.1337 20.0241 33.0429 18.9756 33.0735 18.0593Z" fill="#60B5E6"/>
<path d="M34.5627 31.9908C33.6318 31.9902 32.9062 31.2573 32.9067 30.3186C32.9073 29.3679 33.5913 28.7034 34.5673 28.7051C35.5276 28.7068 36.2591 29.3943 36.2452 30.3186C36.2313 31.2849 35.5057 31.9954 34.5627 31.9908Z" fill="#60B5E6"/>
</g>
<defs>
<clipPath id="clip0_1884_27017">
<rect width="69" height="61" fill="white"/>
</clipPath>
</defs>
</svg>
