<svg width="22" height="18" viewBox="0 0 22 18" fill="none" xmlns="http://www.w3.org/2000/svg">
<path d="M7.74995 11.39H5.51996C5.20996 11.39 4.95996 11.14 4.95996 10.83C4.95996 10.52 5.20996 10.27 5.51996 10.27H7.74995C8.05995 10.27 8.30995 10.52 8.30995 10.83C8.29995 11.14 8.05995 11.39 7.74995 11.39Z" fill="#E6AB3D"/>
<path d="M14.4299 11.39H12.1999C11.8899 11.39 11.6399 11.14 11.6399 10.83C11.6399 10.52 11.8899 10.27 12.1999 10.27H14.4299C14.7399 10.27 14.9899 10.52 14.9899 10.83C14.9799 11.14 14.7299 11.39 14.4299 11.39Z" fill="#E6AB3D"/>
<path opacity="0.4" fill-rule="evenodd" clip-rule="evenodd" d="M12.5644 7.31H5.23004C2.85004 7.31 2.53005 8.62003 2.41005 9.84003L1.99005 14.36C1.94005 14.92 2.13004 15.49 2.51004 15.91C2.90004 16.34 3.46005 16.59 4.05005 16.59H5.44004C6.64004 16.59 6.87005 15.9 7.02005 15.45L7.17004 15.01L7.17255 15.0025C7.34045 14.4987 7.38336 14.37 8.05005 14.37H11.85C12.51 14.37 12.54 14.44 12.73 15.01L12.88 15.46C13.03 15.91 13.26 16.6 14.46 16.6H15.85C16.44 16.6 17 16.35 17.39 15.92C17.77 15.5 17.96 14.93 17.91 14.37L17.5314 9.97209C17.3568 9.99054 17.1795 10 17 10C15.0719 10 13.3987 8.90866 12.5644 7.31Z" fill="#E6AB3D"/>
<path fill-rule="evenodd" clip-rule="evenodd" d="M13.5821 1.35059C13.2927 1.28537 12.961 1.25 12.58 1.25H10.53H9.41998H7.36998C5.15998 1.25 4.59998 2.43999 4.33998 3.73999L4.05998 5.09003H4.03998H3.29999C2.98999 5.09003 2.73999 5.34002 2.73999 5.65002C2.73999 5.96002 2.98999 6.21002 3.29999 6.21002H3.82999L3.51999 7.69C3.91999 7.46 4.47998 7.32001 5.24998 7.32001H12.5697C12.2058 6.62664 12 5.83736 12 5C12 3.5604 12.6084 2.26289 13.5821 1.35059Z" fill="#E6AB3D"/>
<path opacity="0.4" d="M12.8333 5.36668V4.63335C12.8333 4.20001 13.1874 3.84168 13.6249 3.84168C14.3791 3.84168 14.6874 3.30835 14.3083 2.65418C14.0916 2.27918 14.2208 1.79168 14.5999 1.57501L15.3208 1.16251C15.6499 0.966681 16.0749 1.08335 16.2708 1.41251L16.3166 1.49168C16.6916 2.14585 17.3083 2.14585 17.6874 1.49168L17.7333 1.41251C17.9291 1.08335 18.3541 0.966681 18.6833 1.16251L19.4041 1.57501C19.7833 1.79168 19.9124 2.27918 19.6958 2.65418C19.3166 3.30835 19.6249 3.84168 20.3791 3.84168C20.8124 3.84168 21.1708 4.19585 21.1708 4.63335V5.36668C21.1708 5.80001 20.8166 6.15835 20.3791 6.15835C19.6249 6.15835 19.3166 6.69168 19.6958 7.34585C19.9124 7.72501 19.7833 8.20835 19.4041 8.42501L18.6833 8.83751C18.3541 9.03335 17.9291 8.91668 17.7333 8.58751L17.6874 8.50835C17.3124 7.85418 16.6958 7.85418 16.3166 8.50835L16.2708 8.58751C16.0749 8.91668 15.6499 9.03335 15.3208 8.83751L14.5999 8.42501C14.2208 8.20835 14.0916 7.72085 14.3083 7.34585C14.6874 6.69168 14.3791 6.15835 13.6249 6.15835C13.1874 6.15835 12.8333 5.80001 12.8333 5.36668Z" fill="#E6AB3D"/>
<path d="M16.9999 6.35418C17.7478 6.35418 18.3541 5.7479 18.3541 5.00001C18.3541 4.25212 17.7478 3.64584 16.9999 3.64584C16.252 3.64584 15.6458 4.25212 15.6458 5.00001C15.6458 5.7479 16.252 6.35418 16.9999 6.35418Z" fill="#E6AB3D"/>
</svg>
