<svg width="18" height="18" viewBox="0 0 18 18" fill="none" xmlns="http://www.w3.org/2000/svg">
<g clip-path="url(#clip0_2497_682)">
<path d="M18 17.25C18 17.664 17.664 18 17.25 18H2.25C1.0095 18 0 16.9905 0 15.75V0.75C0 0.336 0.336 0 0.75 0C1.164 0 1.5 0.336 1.5 0.75V15.75C1.5 16.1632 1.83675 16.5 2.25 16.5H17.25C17.664 16.5 18 16.836 18 17.25ZM15.75 3.75H12.75C12.336 3.75 12 4.086 12 4.5C12 4.914 12.336 5.25 12.75 5.25H15.4222L11.7795 8.78025C11.4967 9.06375 11.0025 9.06375 10.7198 8.78025C10.689 8.75025 9.7905 8.1105 9.7905 8.1105C8.937 7.30575 7.48275 7.33575 6.669 8.14875L3.2295 11.4593C2.931 11.7465 2.922 12.2213 3.20925 12.5198C3.357 12.6728 3.55275 12.75 3.75 12.75C3.9375 12.75 4.125 12.6803 4.26975 12.5408L7.71975 9.21975C8.0025 8.93625 8.49675 8.93625 8.7795 9.21975C8.81025 9.24975 9.70875 9.8895 9.70875 9.8895C10.563 10.695 12.0157 10.6665 12.8317 9.849L16.4993 6.294V8.99925C16.4993 9.41325 16.8353 9.74925 17.2493 9.74925C17.6632 9.74925 17.9993 9.41325 17.9993 8.99925V5.99925C17.9993 4.75875 16.9897 3.74925 15.7493 3.74925L15.75 3.75Z" fill="#E7E7E7"/>
</g>
<defs>
<clipPath id="clip0_2497_682">
<rect width="18" height="18" fill="white"/>
</clipPath>
</defs>
</svg>
