<svg width="18" height="17" viewBox="0 0 18 17" fill="none" xmlns="http://www.w3.org/2000/svg">
<path d="M13.8498 17C13.6591 17 13.4755 17 13.2848 17C13.2425 16.993 13.2001 16.9718 13.1577 16.9718C11.1378 16.7458 9.73239 14.7541 10.2126 12.7766C10.2409 12.6566 10.2268 12.5789 10.1349 12.4871C8.26337 10.6155 6.39888 8.74393 4.54144 6.8653C4.45669 6.78055 4.38605 6.75936 4.26599 6.78761C2.4933 7.23961 0.635873 6.16611 0.134434 4.40048C0.0779336 4.20273 0.0426193 3.99086 0.000244141 3.78604C0.000244141 3.5671 0.000244141 3.3411 0.000244141 3.12217C0.00730666 3.07979 0.0284787 3.03741 0.0284787 2.99504C0.275667 1.14466 1.94949 -0.168969 3.80693 0.0287816C5.86212 0.24772 7.27463 2.23935 6.78731 4.23804C6.75906 4.35811 6.78026 4.42873 6.86501 4.51348C8.73658 6.39211 10.6081 8.27074 12.4726 10.1494C12.5503 10.2271 12.6139 10.2482 12.7198 10.22C13.1718 10.0999 13.6238 10.0858 14.0829 10.1564C15.679 10.4036 16.9079 11.7455 16.9927 13.3558C17.0845 14.9731 16.0322 16.4491 14.4713 16.8729C14.2736 16.9223 14.0617 16.9506 13.8498 17ZM2.02718 3.43998C2.02718 4.22392 2.6628 4.86661 3.44674 4.86661C4.23067 4.86661 4.87338 4.21686 4.87338 3.43998C4.86632 2.65604 4.23775 2.02747 3.46087 2.02041C2.66281 2.02041 2.02718 2.64898 2.02718 3.43998ZM14.9869 13.5464C14.9869 12.7625 14.3442 12.1198 13.5603 12.1269C12.7834 12.1339 12.1478 12.7696 12.1407 13.5464C12.1337 14.3304 12.7763 14.9731 13.5603 14.9731C14.3513 14.9731 14.9869 14.3374 14.9869 13.5464Z" fill="#E6AB3D"/>
<path opacity="0.4" d="M0.000244141 13.3133C0.0284942 13.1721 0.0567262 13.0379 0.0920388 12.8966C0.51579 11.0604 2.35911 9.93745 4.18124 10.4106C4.28718 10.4389 4.35075 10.4248 4.42844 10.3471C4.7745 9.99395 5.1347 9.64082 5.4737 9.30182C6.25057 10.0646 7.02745 10.8273 7.81139 11.5971C7.76901 11.6466 7.73369 11.689 7.69132 11.7313C7.35938 12.0633 7.02744 12.3952 6.70257 12.7342C6.65313 12.7836 6.61781 12.8825 6.63194 12.9461C7.01331 14.9165 5.75619 16.6892 3.77163 16.9717C3.74338 16.9788 3.72218 16.9929 3.69393 17C3.47499 17 3.24899 17 3.03005 17C2.68399 16.9223 2.33087 16.8799 1.96362 16.6822C2.03425 16.6327 2.09074 16.6045 2.13312 16.5621C2.57099 16.1242 3.01592 15.6934 3.44674 15.2485C3.92699 14.747 3.82812 13.9631 3.25606 13.5746C2.81818 13.278 2.23905 13.3345 1.84355 13.723C1.35624 14.2032 0.875996 14.6905 0.374557 15.199C0.325119 15.079 0.268617 14.9871 0.240367 14.8812C0.155617 14.5846 0.0849797 14.288 0.007292 13.9913C0.000229485 13.7512 0.000244141 13.5323 0.000244141 13.3133Z" fill="#E6AB3D"/>
<path opacity="0.4" d="M11.5264 7.69863C10.7566 6.93588 9.97974 6.17312 9.1958 5.40331C9.23818 5.36094 9.27349 5.31856 9.3088 5.28325C9.64074 4.94425 9.97973 4.61231 10.3117 4.26624C10.3611 4.21681 10.3964 4.11793 10.3823 4.05437C9.95855 1.87205 11.5476 -0.0348298 13.7653 0.000482795C14.2102 0.00754531 14.641 0.106421 15.0648 0.311234C14.867 0.508984 14.6834 0.685547 14.4998 0.869173C14.1961 1.17286 13.8853 1.47655 13.5887 1.7873C13.2779 2.11218 13.1791 2.49355 13.3203 2.9173C13.4616 3.34105 13.7723 3.59531 14.2172 3.65887C14.5916 3.71537 14.9164 3.58824 15.1778 3.31987C15.6227 2.87493 16.0676 2.42999 16.5126 1.97799C16.5549 1.93561 16.5761 1.87205 16.6256 1.83674C17.0564 2.70543 17.1199 3.55999 16.8092 4.43575C16.223 6.1025 14.528 7.0065 12.8118 6.56863C12.7129 6.54038 12.6494 6.56863 12.5788 6.63925C12.2256 7.0065 11.8725 7.35963 11.5264 7.69863Z" fill="#E6AB3D"/>
</svg>
