<svg width="17" height="18" viewBox="0 0 17 18" fill="none" xmlns="http://www.w3.org/2000/svg">
<path d="M13.8475 18C13.6568 18 13.4732 18 13.2826 18C13.2402 17.9929 13.1978 17.9717 13.1555 17.9717C11.1359 17.7457 9.73073 15.7541 10.2109 13.7766C10.2391 13.6565 10.225 13.5789 10.1332 13.487C8.26196 11.6155 6.39779 9.74391 4.54066 7.86528C4.45593 7.78052 4.3853 7.75934 4.26526 7.78759C2.49287 8.23959 0.635764 7.16609 0.134411 5.40045C0.0779203 5.2027 0.042612 4.99083 0.000244141 4.78601C0.000244141 4.56708 0.000244141 4.34108 0.000244141 4.12214C0.00730545 4.07976 0.0284739 4.03739 0.0284739 3.99501C0.27562 2.14463 1.94916 0.831 3.80628 1.02875C5.86112 1.24769 7.27339 3.23932 6.78616 5.23802C6.75791 5.35808 6.77911 5.4287 6.86384 5.51345C8.73509 7.39209 10.6063 9.27072 12.4705 11.1494C12.5482 11.227 12.6117 11.2482 12.7177 11.22C13.1696 11.0999 13.6215 11.0858 14.0805 11.1564C15.6764 11.4036 16.905 12.7455 16.9898 14.3557C17.0816 15.9731 16.0294 17.4491 14.4689 17.8729C14.2712 17.9223 14.0593 17.9506 13.8475 18ZM2.02684 4.43995C2.02684 5.22389 2.66234 5.86658 3.44615 5.86658C4.22995 5.86658 4.87255 5.21683 4.87255 4.43995C4.86548 3.65601 4.23703 3.02745 3.46028 3.02038C2.66235 3.02038 2.02684 3.64895 2.02684 4.43995ZM14.9844 14.5464C14.9844 13.7625 14.3418 13.1198 13.558 13.1269C12.7812 13.1339 12.1457 13.7695 12.1386 14.5464C12.1316 15.3304 12.7741 15.9731 13.558 15.9731C14.3488 15.9731 14.9844 15.3374 14.9844 14.5464Z" fill="#E6AB3D"/>
<path opacity="0.4" d="M0.000244141 14.3133C0.0284894 14.1721 0.0567165 14.0379 0.0920231 13.8966C0.515702 12.0604 2.35871 10.9374 4.18053 11.4106C4.28645 11.4389 4.35 11.4247 4.42768 11.347C4.77368 10.9939 5.13382 10.6408 5.47276 10.3018C6.24951 11.0645 7.02625 11.8273 7.81005 12.5971C7.76769 12.6465 7.73237 12.6889 7.69 12.7313C7.35812 13.0632 7.02624 13.3952 6.70142 13.7342C6.65199 13.7836 6.61668 13.8825 6.63081 13.9461C7.01212 15.9165 5.75521 17.6892 3.77098 17.9717C3.74274 17.9788 3.72154 17.9929 3.6933 17.9999C3.4744 17.9999 3.24843 17.9999 3.02953 17.9999C2.68353 17.9223 2.33048 17.8799 1.96329 17.6821C2.0339 17.6327 2.09038 17.6044 2.13275 17.5621C2.57055 17.1242 3.01541 16.6934 3.44615 16.2484C3.92632 15.747 3.82747 14.9631 3.2555 14.5746C2.8177 14.278 2.23867 14.3345 1.84324 14.7229C1.35601 15.2032 0.875846 15.6905 0.374493 16.199C0.325064 16.0789 0.268571 15.9871 0.240326 15.8812C0.15559 15.5846 0.0849652 15.2879 0.0072908 14.9913C0.000229487 14.7512 0.000244141 14.5322 0.000244141 14.3133Z" fill="#E6AB3D"/>
<path opacity="0.4" d="M15.1543 5.61003L15.2842 6.66335C15.3176 6.94002 15.021 7.13335 14.7843 6.99002L13.3879 6.16002C13.2346 6.16002 13.0846 6.15003 12.938 6.13003C13.1846 5.84003 13.3312 5.47335 13.3312 5.07668C13.3312 4.13002 12.5114 3.36336 11.4982 3.36336C11.1116 3.36336 10.755 3.47336 10.4584 3.66669C10.4484 3.58336 10.4451 3.50002 10.4451 3.41335C10.4451 1.89668 11.7615 0.666687 13.3879 0.666687C15.0143 0.666687 16.3307 1.89668 16.3307 3.41335C16.3307 4.31335 15.8675 5.11003 15.1543 5.61003Z" fill="#E6AB3D"/>
<path d="M13.3311 5.07666C13.3311 5.47333 13.1844 5.84001 12.9378 6.13001C12.6079 6.53001 12.0846 6.78666 11.4981 6.78666L10.6282 7.30333C10.4816 7.39333 10.2949 7.27 10.3149 7.1L10.3982 6.44334C9.95166 6.13334 9.66504 5.63666 9.66504 5.07666C9.66504 4.48999 9.97832 3.97333 10.4582 3.66667C10.7549 3.47333 11.1115 3.36334 11.4981 3.36334C12.5112 3.36334 13.3311 4.12999 13.3311 5.07666Z" fill="#E6AB3D"/>
</svg>
