<svg width="24" height="24" viewBox="0 0 24 24" fill="none" xmlns="http://www.w3.org/2000/svg">
<path d="M12.0833 9.75H7.91667C7.68889 9.75 7.5 9.41 7.5 9C7.5 8.59 7.68889 8.25 7.91667 8.25H12.0833C12.3111 8.25 12.5 8.59 12.5 9C12.5 9.41 12.3111 9.75 12.0833 9.75Z" fill="#E6AB3D"/>
<path d="M15.75 15.75H8.25C7.84 15.75 7.5 15.41 7.5 15C7.5 14.59 7.84 14.25 8.25 14.25H15.75C16.16 14.25 16.5 14.59 16.5 15C16.5 15.41 16.16 15.75 15.75 15.75Z" fill="#E6AB3D"/>
<path opacity="0.4" fill-rule="evenodd" clip-rule="evenodd" d="M7.81 2H16.19C16.7522 2 17.2794 2.05177 17.7688 2.15272C15.6027 2.70121 14 4.66343 14 7C14 9.76142 16.2386 12 19 12C20.1211 12 21.1561 11.631 21.99 11.0079V16.19C21.99 19.83 19.82 22 16.18 22H7.81C4.17 22 2 19.83 2 16.18V7.81C2 4.17 4.17 2 7.81 2Z" fill="#E6AB3D"/>
<path opacity="0.4" d="M14.8333 7.36668V6.63335C14.8333 6.20001 15.1874 5.84168 15.6249 5.84168C16.3791 5.84168 16.6874 5.30835 16.3083 4.65418C16.0916 4.27918 16.2208 3.79168 16.5999 3.57501L17.3208 3.16251C17.6499 2.96668 18.0749 3.08335 18.2708 3.41251L18.3166 3.49168C18.6916 4.14585 19.3083 4.14585 19.6874 3.49168L19.7333 3.41251C19.9291 3.08335 20.3541 2.96668 20.6833 3.16251L21.4041 3.57501C21.7833 3.79168 21.9124 4.27918 21.6958 4.65418C21.3166 5.30835 21.6249 5.84168 22.3791 5.84168C22.8124 5.84168 23.1708 6.19585 23.1708 6.63335V7.36668C23.1708 7.80001 22.8166 8.15835 22.3791 8.15835C21.6249 8.15835 21.3166 8.69168 21.6958 9.34585C21.9124 9.72502 21.7833 10.2083 21.4041 10.425L20.6833 10.8375C20.3541 11.0333 19.9291 10.9167 19.7333 10.5875L19.6874 10.5083C19.3124 9.85418 18.6958 9.85418 18.3166 10.5083L18.2708 10.5875C18.0749 10.9167 17.6499 11.0333 17.3208 10.8375L16.5999 10.425C16.2208 10.2083 16.0916 9.72085 16.3083 9.34585C16.6874 8.69168 16.3791 8.15835 15.6249 8.15835C15.1874 8.15835 14.8333 7.80001 14.8333 7.36668Z" fill="#E6AB3D"/>
<path d="M18.9999 8.35415C19.7478 8.35415 20.3541 7.74787 20.3541 6.99998C20.3541 6.25209 19.7478 5.64581 18.9999 5.64581C18.252 5.64581 17.6458 6.25209 17.6458 6.99998C17.6458 7.74787 18.252 8.35415 18.9999 8.35415Z" fill="#E6AB3D"/>
</svg>
