<svg width="24" height="24" viewBox="0 0 24 24" fill="none" xmlns="http://www.w3.org/2000/svg">
<path d="M7.24 2H5.34C3.15 2 2 3.15 2 5.33V7.23C2 9.41 3.15 10.56 5.33 10.56H7.23C9.41 10.56 10.56 9.41 10.56 7.23V5.33C10.57 3.15 9.42 2 7.24 2Z" fill="#E6AB3D"/>
<path d="M18.6699 13.43H16.7699C14.5899 13.43 13.4399 14.58 13.4399 16.76V18.66C13.4399 20.84 14.5899 21.99 16.7699 21.99H18.6699C20.8499 21.99 21.9999 20.84 21.9999 18.66V16.76C21.9999 14.58 20.8499 13.43 18.6699 13.43Z" fill="#E6AB3D"/>
<path opacity="0.4" d="M7.24 13.43H5.34C3.15 13.43 2 14.58 2 16.76V18.66C2 20.85 3.15 22 5.33 22H7.23C9.41 22 10.56 20.85 10.56 18.67V16.77C10.57 14.58 9.42 13.43 7.24 13.43Z" fill="#E6AB3D"/>
<path opacity="0.4" d="M13.8333 6.36668V5.63335C13.8333 5.20001 14.1874 4.84168 14.6249 4.84168C15.3791 4.84168 15.6874 4.30835 15.3083 3.65418C15.0916 3.27918 15.2208 2.79168 15.5999 2.57501L16.3208 2.16251C16.6499 1.96668 17.0749 2.08335 17.2708 2.41251L17.3166 2.49168C17.6916 3.14585 18.3083 3.14585 18.6874 2.49168L18.7333 2.41251C18.9291 2.08335 19.3541 1.96668 19.6833 2.16251L20.4041 2.57501C20.7833 2.79168 20.9124 3.27918 20.6958 3.65418C20.3166 4.30835 20.6249 4.84168 21.3791 4.84168C21.8124 4.84168 22.1708 5.19585 22.1708 5.63335V6.36668C22.1708 6.80001 21.8166 7.15835 21.3791 7.15835C20.6249 7.15835 20.3166 7.69168 20.6958 8.34585C20.9124 8.72502 20.7833 9.20835 20.4041 9.42502L19.6833 9.83752C19.3541 10.0333 18.9291 9.91668 18.7333 9.58752L18.6874 9.50835C18.3124 8.85418 17.6958 8.85418 17.3166 9.50835L17.2708 9.58752C17.0749 9.91668 16.6499 10.0333 16.3208 9.83752L15.5999 9.42502C15.2208 9.20835 15.0916 8.72085 15.3083 8.34585C15.6874 7.69168 15.3791 7.15835 14.6249 7.15835C14.1874 7.15835 13.8333 6.80001 13.8333 6.36668Z" fill="#E6AB3D"/>
<path d="M17.9999 7.35415C18.7478 7.35415 19.3541 6.74787 19.3541 5.99998C19.3541 5.25209 18.7478 4.64581 17.9999 4.64581C17.252 4.64581 16.6458 5.25209 16.6458 5.99998C16.6458 6.74787 17.252 7.35415 17.9999 7.35415Z" fill="#E6AB3D"/>
</svg>
