<svg width="41" height="40" viewBox="0 0 41 40" fill="none" xmlns="http://www.w3.org/2000/svg">
<g clip-path="url(#clip0_1715_27897)">
<path d="M40.0868 34.0929C39.8682 34.3785 39.6746 34.6881 39.4257 34.9434C38.9162 35.4664 38.3817 35.9654 37.8461 36.4622C37.6913 36.6056 37.5009 36.7102 37.2583 36.8796C37.5679 34.4978 36.9455 32.5144 35.2885 30.9014C34.0061 29.6535 32.4433 29.0541 30.6524 29.0468C26.6712 29.028 23.3447 32.7613 24.101 36.8451C23.7004 36.8451 23.305 36.8451 22.8792 36.8451C22.8792 36.7363 22.8698 36.6244 22.8803 36.5146C23.1439 33.9329 22.2453 31.8251 20.1595 30.3125C18.0799 28.8041 15.8027 28.6503 13.4553 29.6891C13.2262 29.7905 13.0547 29.7832 12.8361 29.6817C8.25958 27.5635 3.12451 31.0249 3.37138 36.0585C3.38289 36.2917 3.41741 36.5229 3.45402 36.8817C3.20401 36.7007 2.99899 36.5993 2.85568 36.4413C1.99687 35.4936 1.15061 34.5354 0.305401 33.5762C0.0177366 33.2498 -0.0628095 32.8743 0.04598 32.4465C0.436158 30.9056 0.830519 29.3658 1.1935 27.8187C1.30543 27.3438 1.32321 26.8469 1.3912 26.3082C8.82864 26.3082 16.2975 26.3082 23.7997 26.3082C23.7997 26.1189 23.7997 25.9777 23.7997 25.8375C23.7997 23.9326 23.7987 22.0278 23.8008 20.1219C23.8018 19.2526 24.2569 18.7902 25.124 18.7892C27.1074 18.7861 29.0907 18.7965 31.074 18.7829C31.6953 18.7787 32.0991 19.0423 32.3774 19.5926C33.4454 21.7098 34.5375 23.8155 35.6013 25.9348C35.7477 26.2266 35.9151 26.3208 36.2279 26.3114C37.0103 26.2904 37.7949 26.3333 38.5763 26.2957C39.3033 26.2611 39.8127 26.5143 40.0878 27.1995C40.0868 29.4997 40.0868 31.7958 40.0868 34.0929Z" fill="white"/>
<path d="M29.0185 4.60471C29.4631 7.52947 30.3606 8.86632 32.8837 10.3549C26.5101 14.4575 20.1595 18.5454 13.7734 22.6564C14.1981 23.0539 14.5997 23.4316 15.0025 23.8081C14.9784 23.8447 14.9544 23.8814 14.9313 23.918C10.4082 23.918 5.88508 23.918 1.3358 23.918C1.3358 23.3803 1.30232 22.8458 1.34416 22.3165C1.39333 21.7045 1.90066 21.3018 2.57223 21.2976C3.66849 21.2892 4.76371 21.2955 5.85997 21.2955C6.00119 21.2955 6.14345 21.2955 6.31082 21.2955C6.32128 21.1522 6.33593 21.0403 6.33593 20.9284C6.33802 20.0539 6.35476 19.1794 6.3307 18.3059C6.31396 17.673 6.57024 17.2546 7.12047 16.946C10.5306 15.0338 13.9334 13.1081 17.3373 11.1854C21.1302 9.04624 24.9211 6.90602 28.711 4.76684C28.801 4.71663 28.893 4.67061 29.0185 4.60471Z" fill="white"/>
<path d="M13.1509 38.705C10.836 40.8368 8.0838 40.0021 6.8233 38.5847C5.34523 36.9225 5.34837 34.4873 6.8254 32.8073C8.09844 31.3596 10.8809 30.5803 13.1498 32.6923C15.5014 30.5175 18.2943 31.4339 19.5025 32.8345C20.9607 34.525 20.9429 36.9738 19.4523 38.6129C18.151 40.0439 15.4135 40.7971 13.1509 38.705Z" fill="white"/>
<path d="M36.8733 8.45628C36.8733 9.19375 36.8869 9.89775 36.8659 10.6007C36.8586 10.8601 37.0302 10.8884 37.1902 10.9626C39.2217 11.8968 39.9842 14.3079 38.8493 16.2034C37.5909 18.3038 34.6054 18.6197 32.9297 16.8289C32.4662 16.3341 32.4579 15.6395 32.9087 15.173C33.3502 14.7159 34.0427 14.7326 34.574 15.1406C34.8607 15.3602 35.2142 15.5611 35.5626 15.6197C36.2927 15.7431 36.9287 15.1991 37.0187 14.47C37.1076 13.7577 36.594 13.1123 35.8565 13.0087C35.7665 12.9962 35.6745 12.9899 35.5845 12.9773C34.9391 12.8863 34.5291 12.4365 34.5238 11.7838C34.5155 10.7921 34.5134 9.80151 34.527 8.80985C34.5301 8.55566 34.4747 8.42595 34.2111 8.32971C32.2874 7.62572 31.1116 5.63927 31.4369 3.6821C31.7884 1.56071 33.4631 0.0711281 35.5751 0.00104258C37.6264 -0.0669508 39.4403 1.34417 39.9026 3.36619C40.3713 5.41436 39.2436 7.53053 37.2666 8.31193C37.1494 8.36005 37.026 8.40084 36.8733 8.45628Z" fill="white"/>
<path d="M30.6932 31.3973C33.0667 31.3941 34.9988 33.3262 34.9978 35.7018C34.9978 38.0784 33.0688 39.9989 30.6849 39.9979C28.325 39.9968 26.3814 38.0711 26.3804 35.7342C26.3793 33.3241 28.2926 31.4004 30.6932 31.3973Z" fill="white"/>
</g>
<defs>
<clipPath id="clip0_1715_27897">
<rect width="40.0868" height="40" fill="white"/>
</clipPath>
</defs>
</svg>
