<svg width="40" height="40" viewBox="0 0 40 40" fill="none" xmlns="http://www.w3.org/2000/svg">
<path d="M39.9782 21.6401C39.6715 22.1867 39.4182 22.7734 39.0582 23.2934C37.0448 26.2134 34.9915 29.1067 32.9648 32.0401C31.4448 34.2534 29.3515 35.3201 26.6848 35.3201C22.4448 35.3067 18.2048 35.3201 13.9648 35.3201C13.7248 35.3201 13.5782 35.2667 13.4582 35.0267C11.3382 30.7601 9.20484 26.4801 7.08484 22.2134C7.04484 22.1334 7.00484 22.0534 6.96484 21.9601C8.39151 20.6534 9.83151 19.4001 11.7248 18.8667C14.6715 18.0401 17.3382 18.5601 19.6582 20.6001C20.2048 21.0801 20.7648 21.2934 21.4848 21.2801C23.3115 21.2401 25.1248 21.2534 26.9515 21.2667C28.6582 21.2801 29.7648 22.8401 29.2048 24.4134C28.8715 25.3334 28.0048 25.9334 26.9382 25.9467C25.4315 25.9601 23.9248 25.9467 22.4048 25.9467C21.4982 25.9467 20.9382 26.7334 21.2448 27.5334C21.4315 28.0001 21.7915 28.2667 22.2982 28.2801C24.1515 28.2934 25.9915 28.3067 27.8448 28.2667C28.5915 28.2534 29.2448 27.9067 29.7248 27.2934C31.7248 24.8267 33.7382 22.3734 35.7248 19.9067C36.3382 19.1467 37.1115 18.7734 38.0848 18.9734C39.0715 19.1734 39.6715 19.8001 39.9115 20.7734C39.9248 20.8134 39.9515 20.8401 39.9782 20.8667C39.9782 21.1201 39.9782 21.3867 39.9782 21.6401Z" fill="white"/>
<path d="M7.87156 40C7.41823 39.7866 7.15156 39.4 6.93822 38.96C4.71156 34.4933 2.48489 30.04 0.258227 25.5733C-0.221773 24.6 -0.0484424 24.0666 0.911558 23.5866C1.31156 23.3866 1.69822 23.1866 2.09822 23C3.41822 22.3733 4.72489 22.8 5.39156 24.12C7.35156 28.0266 9.31156 31.9466 11.2582 35.8666C11.9249 37.2133 11.4716 38.4933 10.1382 39.1733C9.59156 39.4533 9.05823 39.72 8.51156 40C8.28489 40 8.08489 40 7.87156 40Z" fill="white"/>
<path d="M15.8448 9.52005C18.6848 12.52 23.3648 12.7334 26.3514 9.54672C26.9648 10.2 27.3914 10.9467 27.7248 11.7734C28.2048 12.9734 28.2181 14.24 28.1647 15.4934C28.1381 16.0534 27.6848 16.48 27.1381 16.5467C27.0048 16.56 26.8848 16.56 26.7514 16.56C22.9914 16.56 19.2314 16.56 15.4714 16.56C14.4848 16.56 14.0714 16.1334 14.0447 15.1334C13.9914 13.56 14.1914 12.0401 15.0447 10.6801C15.2847 10.2934 15.5648 9.92005 15.8448 9.52005Z" fill="white"/>
<path d="M25.8316 4.76C25.8316 7.36 23.7249 9.53333 21.1649 9.53333C18.5783 9.54667 16.3916 7.34667 16.3916 4.76C16.3916 2.18667 18.5783 0.0133333 21.1516 0C23.6983 0 25.8316 2.16 25.8316 4.76Z" fill="white"/>
</svg>
