<svg width="46" height="45" viewBox="0 0 46 45" fill="none" xmlns="http://www.w3.org/2000/svg">
<path d="M2.05955 42.9965L1.0127 44.0205" stroke="#E6AB3D" stroke-linecap="round"/>
<path d="M6.7122 42.9967L5.91406 44.0327" stroke="#E6AB3D" stroke-linecap="round"/>
<path d="M11.3648 42.9969L10.7842 44.0215" stroke="#E6AB3D" stroke-linecap="round"/>
<path d="M16.0178 42.9964L15.6768 44.0229" stroke="#E6AB3D" stroke-linecap="round"/>
<path d="M20.6704 42.9968L20.5603 44.0215" stroke="#E6AB3D" stroke-linecap="round"/>
<path d="M25.3226 42.9964L25.451 44.019" stroke="#E6AB3D" stroke-linecap="round"/>
<path d="M29.9756 42.9965L30.3348 44.0171" stroke="#E6AB3D" stroke-linecap="round"/>
<path d="M34.6279 42.9967L35.2267 44.0112" stroke="#E6AB3D" stroke-linecap="round"/>
<path d="M39.2812 42.9968L40.0978 44.019" stroke="#E6AB3D" stroke-linecap="round"/>
<path d="M43.9336 42.9965L44.9805 44.0205" stroke="#E6AB3D" stroke-linecap="round"/>
<path d="M2.05875 38.4455L1.01367 39.2441" stroke="#E6AB3D" stroke-linecap="round"/>
<path d="M6.71168 38.4457L5.89746 39.2422" stroke="#E6AB3D" stroke-linecap="round"/>
<path d="M11.3649 38.4453L10.791 39.2471" stroke="#E6AB3D" stroke-linecap="round"/>
<path d="M16.017 38.445L15.6709 39.2427" stroke="#E6AB3D" stroke-linecap="round"/>
<path d="M20.6706 38.4455L20.5562 39.2422" stroke="#E6AB3D" stroke-linecap="round"/>
<path d="M25.3235 38.4451L25.4521 39.2397" stroke="#E6AB3D" stroke-linecap="round"/>
<path d="M29.9756 38.4452L30.3359 39.2368" stroke="#E6AB3D" stroke-linecap="round"/>
<path d="M34.6279 38.4455L35.2161 39.2373" stroke="#E6AB3D" stroke-linecap="round"/>
<path d="M39.2812 38.4457L40.0955 39.2422" stroke="#E6AB3D" stroke-linecap="round"/>
<path d="M43.9336 38.4454L44.9928 39.2261" stroke="#E6AB3D" stroke-linecap="round"/>
<path d="M2.05958 33.8938L1.02246 34.4795" stroke="#E6AB3D" stroke-linecap="round"/>
<path d="M6.71185 33.8944L5.90234 34.4697" stroke="#E6AB3D" stroke-linecap="round"/>
<path d="M11.3648 33.894L10.7832 34.4629" stroke="#E6AB3D" stroke-linecap="round"/>
<path d="M16.0169 33.8942L15.6777 34.4688" stroke="#E6AB3D" stroke-linecap="round"/>
<path d="M20.67 33.8949L20.5568 34.4644" stroke="#E6AB3D" stroke-linecap="round"/>
<path d="M25.3232 33.8944L25.4465 34.4619" stroke="#E6AB3D" stroke-linecap="round"/>
<path d="M29.9756 33.8942L30.3249 34.4629" stroke="#E6AB3D" stroke-linecap="round"/>
<path d="M34.6279 33.894L35.2095 34.4629" stroke="#E6AB3D" stroke-linecap="round"/>
<path d="M39.2812 33.8947L40.1009 34.4561" stroke="#E6AB3D" stroke-linecap="round"/>
<path d="M43.9336 33.8945L44.981 34.4624" stroke="#E6AB3D" stroke-linecap="round"/>
<path d="M2.05899 29.3434L1.01562 29.6948" stroke="#E6AB3D" stroke-linecap="round"/>
<path d="M6.71161 29.3429L5.90234 29.6953" stroke="#E6AB3D" stroke-linecap="round"/>
<path d="M11.3646 29.3429L10.7832 29.6846" stroke="#E6AB3D" stroke-linecap="round"/>
<path d="M16.0169 29.3432L15.668 29.6846" stroke="#E6AB3D" stroke-linecap="round"/>
<path d="M20.6702 29.3429L20.5566 29.6851" stroke="#E6AB3D" stroke-linecap="round"/>
<path d="M25.323 29.3429L25.4428 29.6831" stroke="#E6AB3D" stroke-linecap="round"/>
<path d="M29.9756 29.3432L30.3245 29.6846" stroke="#E6AB3D" stroke-linecap="round"/>
<path d="M34.6279 29.3431L35.2153 29.6748" stroke="#E6AB3D" stroke-linecap="round"/>
<path d="M39.2812 29.3431L40.0967 29.6816" stroke="#E6AB3D" stroke-linecap="round"/>
<path d="M43.9336 29.3432L44.9831 29.6768" stroke="#E6AB3D" stroke-linecap="round"/>
<path d="M2.05912 24.7922L1.01367 24.9178" stroke="#E6AB3D" stroke-linecap="round"/>
<path d="M6.71178 24.792L5.89941 24.9179" stroke="#E6AB3D" stroke-linecap="round"/>
<path d="M11.3643 24.7922L10.7842 24.9128" stroke="#E6AB3D" stroke-linecap="round"/>
<path d="M16.0177 24.792L15.6699 24.9091" stroke="#E6AB3D" stroke-linecap="round"/>
<path d="M20.6696 24.7917L20.5533 24.9055" stroke="#E6AB3D" stroke-linecap="round"/>
<path d="M25.3228 24.7917L25.4391 24.9055" stroke="#E6AB3D" stroke-linecap="round"/>
<path d="M29.9756 24.7921L30.3254 24.9032" stroke="#E6AB3D" stroke-linecap="round"/>
<path d="M34.6279 24.7918L35.2101 24.9025" stroke="#E6AB3D" stroke-linecap="round"/>
<path d="M39.2812 24.7917L40.0957 24.9036" stroke="#E6AB3D" stroke-linecap="round"/>
<path d="M43.9336 24.7918L44.9811 24.8995" stroke="#E6AB3D" stroke-linecap="round"/>
<path d="M2.05925 20.2404L1.01172 20.1327" stroke="#E6AB3D" stroke-linecap="round"/>
<path d="M6.71195 20.241L5.89746 20.1291" stroke="#E6AB3D" stroke-linecap="round"/>
<path d="M11.3644 20.2409L10.7822 20.1302" stroke="#E6AB3D" stroke-linecap="round"/>
<path d="M16.0178 20.2406L15.668 20.1295" stroke="#E6AB3D" stroke-linecap="round"/>
<path d="M20.6696 20.2405L20.5533 20.1267" stroke="#E6AB3D" stroke-linecap="round"/>
<path d="M25.3228 20.2405L25.4391 20.1267" stroke="#E6AB3D" stroke-linecap="round"/>
<path d="M29.9756 20.2412L30.3234 20.124" stroke="#E6AB3D" stroke-linecap="round"/>
<path d="M34.6279 20.241L35.2081 20.1203" stroke="#E6AB3D" stroke-linecap="round"/>
<path d="M39.2812 20.2407L40.0936 20.1148" stroke="#E6AB3D" stroke-linecap="round"/>
<path d="M43.9336 20.2405L44.979 20.1149" stroke="#E6AB3D" stroke-linecap="round"/>
<path d="M2.05924 15.6895L1.00977 15.3559" stroke="#E6AB3D" stroke-linecap="round"/>
<path d="M6.71191 15.6895L5.89648 15.3509" stroke="#E6AB3D" stroke-linecap="round"/>
<path d="M11.3647 15.6895L10.7773 15.3577" stroke="#E6AB3D" stroke-linecap="round"/>
<path d="M16.0169 15.6895L15.668 15.3481" stroke="#E6AB3D" stroke-linecap="round"/>
<path d="M20.6703 15.6895L20.5506 15.3493" stroke="#E6AB3D" stroke-linecap="round"/>
<path d="M25.3232 15.6895L25.4368 15.3473" stroke="#E6AB3D" stroke-linecap="round"/>
<path d="M29.9756 15.6895L30.3245 15.3481" stroke="#E6AB3D" stroke-linecap="round"/>
<path d="M34.6279 15.6895L35.2093 15.3478" stroke="#E6AB3D" stroke-linecap="round"/>
<path d="M39.2812 15.6895L40.0905 15.337" stroke="#E6AB3D" stroke-linecap="round"/>
<path d="M43.9336 15.6895L44.977 15.338" stroke="#E6AB3D" stroke-linecap="round"/>
<path d="M2.05913 11.1382L1.01172 10.5703" stroke="#E6AB3D" stroke-linecap="round"/>
<path d="M6.71222 11.1382L5.89258 10.5768" stroke="#E6AB3D" stroke-linecap="round"/>
<path d="M11.3648 11.1382L10.7832 10.5693" stroke="#E6AB3D" stroke-linecap="round"/>
<path d="M16.0173 11.1382L15.668 10.5695" stroke="#E6AB3D" stroke-linecap="round"/>
<path d="M20.6702 11.1382L20.5468 10.5707" stroke="#E6AB3D" stroke-linecap="round"/>
<path d="M25.3224 11.1382L25.4356 10.5687" stroke="#E6AB3D" stroke-linecap="round"/>
<path d="M29.9756 11.1382L30.3147 10.5636" stroke="#E6AB3D" stroke-linecap="round"/>
<path d="M34.6279 11.1382L35.2095 10.5693" stroke="#E6AB3D" stroke-linecap="round"/>
<path d="M39.2812 11.1382L40.0908 10.5629" stroke="#E6AB3D" stroke-linecap="round"/>
<path d="M43.9336 11.1382L44.9707 10.5525" stroke="#E6AB3D" stroke-linecap="round"/>
<path d="M2.05917 6.58691L1 5.80619" stroke="#E6AB3D" stroke-linecap="round"/>
<path d="M6.71168 6.58691L5.89746 5.79046" stroke="#E6AB3D" stroke-linecap="round"/>
<path d="M11.3645 6.58691L10.7764 5.79508" stroke="#E6AB3D" stroke-linecap="round"/>
<path d="M16.0175 6.58691L15.6572 5.79531" stroke="#E6AB3D" stroke-linecap="round"/>
<path d="M20.6699 6.58691L20.5412 5.79228" stroke="#E6AB3D" stroke-linecap="round"/>
<path d="M25.3228 6.58691L25.4372 5.7902" stroke="#E6AB3D" stroke-linecap="round"/>
<path d="M29.9756 6.58691L30.3217 5.78928" stroke="#E6AB3D" stroke-linecap="round"/>
<path d="M34.6279 6.58691L35.2019 5.78516" stroke="#E6AB3D" stroke-linecap="round"/>
<path d="M39.2812 6.58691L40.0955 5.79046" stroke="#E6AB3D" stroke-linecap="round"/>
<path d="M43.9336 6.58691L44.9787 5.78823" stroke="#E6AB3D" stroke-linecap="round"/>
<path d="M2.05955 2.03613L1.0127 1.01212" stroke="#E6AB3D" stroke-linecap="round"/>
<path d="M6.71201 2.03613L5.89551 1.01386" stroke="#E6AB3D" stroke-linecap="round"/>
<path d="M11.3644 2.03613L10.7656 1.02165" stroke="#E6AB3D" stroke-linecap="round"/>
<path d="M16.0175 2.03613L15.6582 1.01554" stroke="#E6AB3D" stroke-linecap="round"/>
<path d="M20.6698 2.03613L20.5414 1.0135" stroke="#E6AB3D" stroke-linecap="round"/>
<path d="M25.323 2.03613L25.4331 1.01146" stroke="#E6AB3D" stroke-linecap="round"/>
<path d="M29.9756 2.03613L30.3166 1.00956" stroke="#E6AB3D" stroke-linecap="round"/>
<path d="M34.6279 2.03613L35.2085 1.01158" stroke="#E6AB3D" stroke-linecap="round"/>
<path d="M39.2812 2.03613L40.0794 1.00008" stroke="#E6AB3D" stroke-linecap="round"/>
<path d="M43.9336 2.03613L44.9805 1.01212" stroke="#E6AB3D" stroke-linecap="round"/>
</svg>
