<svg width="40" height="40" viewBox="0 0 40 40" fill="none" xmlns="http://www.w3.org/2000/svg">
<path d="M28.0117 11.2846C28.0261 17.4595 23.0027 22.5981 16.9285 22.6125C10.7968 22.6268 5.57194 17.4307 5.58633 11.2846C5.60073 5.18172 10.768 0.0143937 16.871 0C22.9451 0 27.9973 5.12414 28.0117 11.2846Z" fill="white"/>
<path d="M25.6368 33.8683C25.6368 30.1979 28.4579 27.204 32.042 26.9018C31.3223 25.3617 30.4155 23.9367 29.2352 22.67C22.1535 30.2267 11.056 29.7229 4.31977 22.5981C3.65766 23.5481 2.98117 24.4261 2.39103 25.3617C0.375914 28.6002 -0.0990906 32.1986 0.0160587 35.941C0.0880271 38.2872 1.0524 39.3235 3.41297 39.3235C11.6893 39.3235 19.9657 39.3235 28.2564 39.3235C26.6588 38.0281 25.6368 36.0705 25.6368 33.8683Z" fill="white"/>
<path d="M33.0353 28.0533C29.7391 28.0533 27.0619 30.7305 27.0619 34.0267C27.0619 37.3228 29.7391 40 33.0353 40C36.3314 40 39.0086 37.3228 39.0086 34.0267C39.0086 30.7161 36.3314 28.0533 33.0353 28.0533ZM36.5473 36.3584L35.3814 37.5243L33.0353 35.1781L30.6891 37.5243L29.5232 36.3584L31.8694 34.0123L29.5232 31.6661L30.6891 30.5002L33.0353 32.8464L35.3814 30.5002L36.5473 31.6661L34.2011 34.0123L36.5473 36.3584Z" fill="white"/>
</svg>
