<svg width="40" height="40" viewBox="0 0 40 40" fill="none" xmlns="http://www.w3.org/2000/svg">
<path d="M12.8457 21.886C12.0635 22.6681 11.2245 23.4929 10.4139 24.3178C10.229 24.5026 10.0726 24.5595 9.80242 24.4884C8.77852 24.204 7.72616 24.1471 6.67381 24.332C2.35066 25.043 -0.507721 28.9253 0.0753346 33.2769C0.189102 34.1302 0.430856 34.9408 0.885924 35.7513C1.01391 35.6091 1.09924 35.4811 1.19879 35.3816C2.22269 34.3435 3.26081 33.3196 4.28471 32.2957C4.93887 31.6415 5.72101 31.3571 6.63115 31.5277C7.64083 31.7126 8.32344 32.3099 8.6363 33.2769C8.94916 34.2439 8.75007 35.1398 8.03902 35.8793C7.02934 36.9317 5.99122 37.9414 4.9531 38.9795C4.85355 39.079 4.76822 39.1786 4.64024 39.3208C4.83933 39.4061 4.98153 39.463 5.13796 39.5199C6.3183 39.9323 7.52708 40.0887 8.77852 39.9323C13.315 39.3919 16.4862 35.0403 15.5334 30.5607C15.4766 30.2621 15.5334 30.0772 15.7467 29.8781C16.6142 29.0391 17.4817 28.2001 18.3634 27.3326C16.5147 25.4839 14.6944 23.692 12.8457 21.886Z" fill="white"/>
<path d="M39.9792 8.67474C39.8085 9.34312 39.6805 10.0399 39.4388 10.6941C38.0593 14.4058 34.0633 16.4962 30.2378 15.5292C29.9108 15.4439 29.7259 15.515 29.4984 15.7425C28.702 16.5531 27.8772 17.3495 27.095 18.1174C25.2748 16.3256 23.4545 14.5337 21.5916 12.685C21.8049 12.4859 22.0182 12.2868 22.2173 12.0877C22.8999 11.4051 23.5825 10.7368 24.2508 10.0399C24.3646 9.92617 24.45 9.69864 24.4215 9.54221C23.5114 4.92042 26.4978 0.711044 31.148 0.0711044C31.2333 0.0568835 31.3186 0.0284418 31.404 0C31.9017 0 32.3994 0 32.8829 0C33.722 0.213313 34.561 0.412405 35.4 0.625719C35.4285 0.696823 35.4569 0.767927 35.4854 0.839032C35.3574 0.910136 35.2151 0.952799 35.1156 1.05235C34.0775 2.07625 33.0536 3.11437 32.0155 4.13828C31.4182 4.73555 31.1195 5.4466 31.2049 6.28563C31.3186 7.36642 31.9159 8.12012 32.9256 8.48987C33.9495 8.85961 34.8739 8.60363 35.656 7.84993C36.367 7.16732 37.0639 6.45628 37.7607 5.75946C38.2158 5.30439 38.6708 4.8351 39.1686 4.35159C39.2823 4.60756 39.3961 4.82088 39.453 5.03419C39.6378 5.74523 39.8085 6.45628 39.9934 7.18154C39.9792 7.6935 39.9792 8.19123 39.9792 8.67474Z" fill="white"/>
<path d="M12.8454 21.886C14.6942 23.692 16.5144 25.4839 18.4058 27.3468C17.5241 28.2143 16.6566 29.0533 15.7892 29.8923C15.5758 30.0914 15.519 30.2763 15.5759 30.5749C16.5144 35.0545 13.3574 39.4061 8.82093 39.9465C7.5695 40.0887 6.36071 39.9465 5.18038 39.5341C5.02395 39.4772 4.86752 39.4061 4.68265 39.335C4.81064 39.1928 4.89597 39.0932 4.99551 38.9937C6.01942 37.9556 7.07176 36.9459 8.08144 35.8935C8.79249 35.1541 8.99158 34.2581 8.67872 33.2911C8.36586 32.3241 7.66903 31.7268 6.67357 31.542C5.76343 31.3713 4.98129 31.6557 4.32713 32.3099C3.28901 33.3338 2.26511 34.3719 1.2412 35.3958C1.14166 35.4954 1.05633 35.6091 0.928342 35.7656C0.473274 34.955 0.231519 34.1302 0.117752 33.2911C-0.479525 28.9538 2.3931 25.0715 6.71625 24.3462C7.7686 24.1755 8.82094 24.2324 9.84484 24.5026C10.115 24.5737 10.2715 24.5168 10.4563 24.332C11.2385 23.4787 12.0633 22.6681 12.8454 21.886Z" fill="white"/>
<path d="M19.9279 15.5434C17.425 15.5434 15.3772 17.577 15.3772 20.0941C15.3772 22.597 17.4108 24.6448 19.9279 24.6448C22.4307 24.6448 24.4786 22.6112 24.4786 20.0941C24.4786 17.577 22.445 15.5434 19.9279 15.5434ZM22.6014 21.8717L21.7197 22.7534L19.9421 20.9758L18.1503 22.7534L17.2686 21.8717L19.0462 20.0941L17.2686 18.3165L18.1503 17.4348L19.9279 19.2124L21.7055 17.4348L22.5872 18.3165L20.8096 20.0941L22.6014 21.8717Z" fill="white"/>
<path d="M39.6666 29.7359C38.4863 25.4981 34.1774 22.981 29.9111 24.0475C29.6694 24.1044 29.5129 24.0618 29.3281 23.8911C28.1051 22.6539 26.8821 21.4309 25.6591 20.1937C25.5595 23.1943 23.142 25.5976 20.1414 25.6829C21.3786 26.9202 22.6158 28.1716 23.853 29.4088C24.0379 29.5937 24.0806 29.7501 24.0237 29.9919C22.7722 35.2109 26.811 40.1598 32.1864 39.9891C36.0972 39.8612 39.3964 36.8463 39.9084 32.964C39.9226 32.8645 39.9511 32.7649 39.9795 32.6654C39.9795 32.1392 39.9795 31.6273 39.9795 31.1011C39.88 30.6318 39.7946 30.1767 39.6666 29.7359ZM31.8452 35.2252C30.0107 35.2109 28.5317 33.7177 28.5317 31.8832C28.5317 30.0487 30.0533 28.5271 31.8878 28.5271C33.7365 28.5271 35.2297 30.0487 35.2155 31.8975C35.2155 33.7604 33.7081 35.2394 31.8452 35.2252Z" fill="white"/>
<path d="M19.8282 14.3204C18.6052 13.0974 17.3822 11.8602 16.1592 10.6372C15.9459 10.4239 15.9174 10.239 15.9885 9.95463C17.112 5.29018 13.8128 0.625734 9.06298 0.0853409C8.96344 0.07112 8.86388 0.0426782 8.76433 0.0142365C8.32349 0.0142365 7.88265 0.0142365 7.4418 0.0142365C6.65965 0.213329 5.83484 0.341317 5.08113 0.639955C1.81033 1.91983 -0.322802 5.27596 0.0611617 8.85962C0.473567 12.6708 3.21821 15.5577 6.87297 16.1123C7.95376 16.2829 9.02032 16.2403 10.0869 15.9558C10.3286 15.8847 10.4851 15.9416 10.6699 16.1123C11.8929 17.3495 13.1159 18.5725 14.3389 19.8097C14.3958 16.8233 16.8133 14.4058 19.8282 14.3204ZM8.06752 11.4763C6.21881 11.4478 4.73984 9.94041 4.75406 8.0917C4.76828 6.24298 6.2757 4.76401 8.13863 4.77823C9.95891 4.79245 11.4521 6.31409 11.4379 8.13436C11.4236 9.98307 9.8878 11.4905 8.06752 11.4763Z" fill="white"/>
</svg>
