<svg width="40" height="40" viewBox="0 0 40 40" fill="none" xmlns="http://www.w3.org/2000/svg">
<path d="M12.8574 21.886C12.0752 22.6681 11.2362 23.4929 10.4256 24.3178C10.2408 24.5026 10.0843 24.5595 9.81413 24.4884C8.79023 24.204 7.73789 24.1471 6.68554 24.332C2.36239 25.043 -0.496003 28.9253 0.0870531 33.2769C0.20082 34.1302 0.442575 34.9408 0.897643 35.7513C1.02563 35.6091 1.11096 35.4811 1.2105 35.3816C2.23441 34.3435 3.27253 33.3196 4.29643 32.2957C4.95059 31.6415 5.73274 31.3571 6.64288 31.5277C7.65256 31.7126 8.33516 32.3099 8.64802 33.2769C8.96088 34.2439 8.76179 35.1398 8.05074 35.8793C7.04106 36.9317 6.00294 37.9414 4.96482 38.9795C4.86527 39.079 4.77994 39.1786 4.65195 39.3208C4.85105 39.4061 4.99325 39.463 5.14968 39.5199C6.33002 39.9323 7.53879 40.0887 8.79022 39.9323C13.3267 39.3919 16.4979 35.0403 15.5451 30.5607C15.4883 30.2621 15.5451 30.0772 15.7585 29.8781C16.6259 29.0391 17.4934 28.2001 18.3751 27.3326C16.5264 25.4839 14.6919 23.692 12.8574 21.886Z" fill="white"/>
<path d="M39.9767 8.67474C39.8061 9.34312 39.6781 10.0399 39.4363 10.6941C38.0569 14.4058 34.0608 16.4962 30.2354 15.5292C29.9083 15.4439 29.7235 15.515 29.4959 15.7425C28.6996 16.5531 27.8747 17.3495 27.0926 18.1174C25.2723 16.3256 23.452 14.5337 21.5891 12.685C21.8024 12.4859 22.0157 12.2868 22.2148 12.0877C22.8974 11.4051 23.58 10.7368 24.2484 10.0399C24.3622 9.92617 24.4475 9.69864 24.4191 9.54221C23.5089 4.92042 26.4953 0.711044 31.1455 0.0711045C31.2309 0.0568836 31.3162 0.0284418 31.4015 0C31.8993 0 32.397 0 32.8805 0C33.7195 0.213313 34.5586 0.412406 35.3976 0.625719C35.426 0.696823 35.4545 0.767928 35.4829 0.839032C35.3549 0.910136 35.2127 0.952799 35.1132 1.05235C34.075 2.07625 33.0511 3.11437 32.013 4.13828C31.4157 4.73555 31.1171 5.4466 31.2024 6.28563C31.3162 7.36642 31.9135 8.12012 32.9232 8.48987C33.9471 8.85961 34.8714 8.60363 35.6536 7.84993C36.3646 7.16732 37.0614 6.45628 37.7583 5.75946C38.2133 5.30439 38.6684 4.8351 39.1661 4.35159C39.2799 4.60756 39.3937 4.82088 39.4505 5.03419C39.6354 5.74523 39.8061 6.45628 39.9909 7.18154C39.9767 7.6935 39.9767 8.19123 39.9767 8.67474Z" fill="white"/>
<path d="M12.8576 21.886C14.7064 23.692 16.5266 25.4839 18.418 27.3468C17.5363 28.2143 16.6688 29.0533 15.8014 29.8923C15.588 30.0914 15.5312 30.2763 15.5881 30.5749C16.5266 35.0545 13.3696 39.4061 8.83314 39.9465C7.5817 40.0887 6.37292 39.9465 5.19259 39.5341C5.03616 39.4772 4.87973 39.4061 4.69486 39.335C4.82285 39.1928 4.90818 39.0932 5.00772 38.9937C6.03162 37.9556 7.08397 36.9459 8.09365 35.8935C8.80469 35.1541 9.00378 34.2581 8.69092 33.2911C8.37806 32.3241 7.68125 31.7268 6.68579 31.542C5.77565 31.3713 4.9935 31.6557 4.33934 32.3099C3.30121 33.3338 2.27731 34.3719 1.25341 35.3958C1.15386 35.4954 1.06854 35.6091 0.940549 35.7656C0.485481 34.955 0.243726 34.1302 0.129959 33.2911C-0.467317 28.9538 2.4053 25.0715 6.72845 24.3462C7.78079 24.1755 8.83313 24.2324 9.85704 24.5026C10.1272 24.5737 10.2837 24.5168 10.4685 24.332C11.2365 23.4787 12.0755 22.6539 12.8576 21.886Z" fill="white"/>
<path d="M39.6783 29.7359C38.498 25.4981 34.1891 22.981 29.9228 24.0475C29.6811 24.1044 29.5246 24.0618 29.3398 23.8911C28.1168 22.6539 26.8938 21.4309 25.6708 20.1937C25.5712 23.1943 23.1537 25.5976 20.1531 25.6829C21.3903 26.9202 22.6275 28.1716 23.8647 29.4088C24.0496 29.5937 24.0923 29.7501 24.0354 29.9919C22.7839 35.2109 26.8227 40.1598 32.1982 39.9891C36.1089 39.8612 39.4081 36.8463 39.9201 32.964C39.9343 32.8645 39.9628 32.7649 39.9912 32.6654C39.9912 32.1392 39.9912 31.6273 39.9912 31.1011C39.8774 30.6318 39.7921 30.1767 39.6783 29.7359ZM31.8569 35.2252C30.0224 35.2109 28.5434 33.7177 28.5434 31.8832C28.5434 30.0487 30.065 28.5271 31.8995 28.5271C33.7482 28.5271 35.2414 30.0487 35.2272 31.8975C35.213 33.7462 33.7056 35.2394 31.8569 35.2252Z" fill="white"/>
<path d="M19.8258 14.3204C18.6028 13.0974 17.3798 11.8602 16.1568 10.6372C15.9293 10.4097 15.9008 10.2248 15.9719 9.94039C17.0954 5.27595 13.7961 0.611498 9.04637 0.0711045C8.94682 0.0568836 8.84728 0.0284418 8.74773 0C8.30688 0 7.86604 0 7.42519 0C6.64304 0.199092 5.81824 0.32708 5.06453 0.625719C1.79373 1.9056 -0.339404 5.26173 0.0445602 8.84539C0.456966 12.6566 3.20159 15.5434 6.85635 16.098C7.93714 16.2687 9.00371 16.226 10.0703 15.9416C10.312 15.8705 10.4685 15.9274 10.6533 16.098C11.8763 17.3353 13.0993 18.5582 14.3223 19.7955C14.3934 16.8091 16.8252 14.4058 19.8258 14.3204ZM8.06514 11.462C6.21642 11.4336 4.73745 9.92617 4.75167 8.07746C4.76589 6.22874 6.2733 4.74977 8.13623 4.76399C9.95651 4.77822 11.4497 6.29985 11.4355 8.12012C11.4213 9.98306 9.89963 11.4905 8.06514 11.462Z" fill="white"/>
<path d="M19.4705 24.6021C19.0866 24.5026 18.7026 24.4315 18.3328 24.3035C16.4273 23.6209 15.1758 21.6015 15.4034 19.6248C15.6451 17.4632 17.2378 15.8136 19.3283 15.5434C21.8027 15.2306 24.0923 16.9513 24.4336 19.3688C24.7749 21.9144 23.0826 24.1755 20.5655 24.5452C20.5087 24.5595 20.4518 24.5737 20.3949 24.5879C20.082 24.6021 19.7834 24.6021 19.4705 24.6021ZM19.1719 22.597C20.3522 21.4167 21.5326 20.2505 22.6844 19.0844C22.3431 18.7431 22.0018 18.4018 21.6179 18.0036C20.8073 18.8142 19.9967 19.639 19.1292 20.5065C18.8164 20.1794 18.5177 19.8524 18.2333 19.5537C17.8636 19.9235 17.5223 20.2648 17.1667 20.6203C17.8351 21.2602 18.5035 21.9286 19.1719 22.597Z" fill="white"/>
</svg>
