<svg width="39" height="40" viewBox="0 0 39 40" fill="none" xmlns="http://www.w3.org/2000/svg">
<path d="M32.3701 40C31.8662 39.8704 31.3478 39.784 30.8727 39.6113C28.3673 38.7041 26.7258 36.0691 27.0138 33.4774C27.3449 30.6408 29.4328 28.4666 32.1686 28.121C35.4227 27.7034 38.4321 29.964 38.864 33.1462C39.3248 36.5011 37.093 39.4673 33.7812 39.9424C33.7092 39.9568 33.6372 39.9856 33.5653 40C33.1765 40 32.7733 40 32.3701 40ZM31.967 37.365C33.5077 35.8244 35.0627 34.2837 36.589 32.7574C36.1426 32.311 35.6963 31.8503 35.1779 31.3463C34.1268 32.4118 33.0469 33.4918 31.9094 34.6293C31.5062 34.1973 31.103 33.7653 30.7287 33.3766C30.2391 33.8661 29.7928 34.3125 29.332 34.7732C30.2103 35.6084 31.0886 36.4867 31.967 37.365Z" fill="white"/>
<path d="M28.0218 11.2887C28.0362 17.4658 23.011 22.6062 16.9347 22.6206C10.8008 22.635 5.57401 17.437 5.58841 11.2887C5.60281 5.18359 10.772 0.0143988 16.8771 0C22.9534 0 28.0074 5.12599 28.0218 11.2887Z" fill="white"/>
<path d="M25.646 33.8805C25.646 30.2088 28.4682 27.2138 32.0535 26.9115C31.3336 25.3708 30.4264 23.9453 29.2457 22.6782C22.1615 30.2376 11.06 29.7336 4.32133 22.6062C3.65898 23.5565 2.98222 24.4349 2.39187 25.3708C0.376027 28.6105 -0.0991258 32.2102 0.016065 35.9539C0.0880593 38.3009 1.05278 39.3377 3.41419 39.3377C11.6935 39.3377 19.9729 39.3377 28.2666 39.3377C26.6683 38.0418 25.646 36.0835 25.646 33.8805Z" fill="white"/>
</svg>
