<svg width="46" height="66" viewBox="0 0 46 66" fill="none" xmlns="http://www.w3.org/2000/svg">
<mask id="mask0_1731_26699" style="mask-type:alpha" maskUnits="userSpaceOnUse" x="0" y="0" width="46" height="66">
<rect width="46" height="66" fill="#D9D9D9"/>
</mask>
<g mask="url(#mask0_1731_26699)">
<path d="M2.45641 61.7282L0.942627 63.2089" stroke="#67B7F4" stroke-linecap="round"/>
<path d="M9.18465 61.7279L8.03052 63.2261" stroke="#67B7F4" stroke-linecap="round"/>
<path d="M15.9125 61.7279L15.073 63.2095" stroke="#67B7F4" stroke-linecap="round"/>
<path d="M22.6403 61.7278L22.1472 63.2123" stroke="#67B7F4" stroke-linecap="round"/>
<path d="M29.3689 61.7279L29.2097 63.2096" stroke="#67B7F4" stroke-linecap="round"/>
<path d="M36.0964 61.7279L36.282 63.2067" stroke="#67B7F4" stroke-linecap="round"/>
<path d="M42.824 61.7279L43.3435 63.2037" stroke="#67B7F4" stroke-linecap="round"/>
<path d="M2.45652 55.1467L0.945312 56.3016" stroke="#67B7F4" stroke-linecap="round"/>
<path d="M9.18447 55.147L8.00708 56.2987" stroke="#67B7F4" stroke-linecap="round"/>
<path d="M15.9129 55.1467L15.083 56.306" stroke="#67B7F4" stroke-linecap="round"/>
<path d="M22.6404 55.1467L22.1399 56.3001" stroke="#67B7F4" stroke-linecap="round"/>
<path d="M29.3686 55.1469L29.2031 56.2989" stroke="#67B7F4" stroke-linecap="round"/>
<path d="M36.0969 55.1468L36.283 56.2959" stroke="#67B7F4" stroke-linecap="round"/>
<path d="M42.824 55.1469L43.345 56.2915" stroke="#67B7F4" stroke-linecap="round"/>
<path d="M2.45673 48.5658L0.957031 49.4127" stroke="#67B7F4" stroke-linecap="round"/>
<path d="M9.18521 48.5658L8.01465 49.3977" stroke="#67B7F4" stroke-linecap="round"/>
<path d="M15.9128 48.5657L15.0718 49.3883" stroke="#67B7F4" stroke-linecap="round"/>
<path d="M22.6408 48.5657L22.1504 49.3965" stroke="#67B7F4" stroke-linecap="round"/>
<path d="M29.3687 48.5661L29.205 49.3896" stroke="#67B7F4" stroke-linecap="round"/>
<path d="M36.0961 48.5659L36.2744 49.3865" stroke="#67B7F4" stroke-linecap="round"/>
<path d="M42.824 48.5658L43.3291 49.3881" stroke="#67B7F4" stroke-linecap="round"/>
<path d="M2.45697 41.9846L0.948242 42.4927" stroke="#67B7F4" stroke-linecap="round"/>
<path d="M9.18486 41.9847L8.01465 42.4944" stroke="#67B7F4" stroke-linecap="round"/>
<path d="M15.9132 41.9845L15.0725 42.4786" stroke="#67B7F4" stroke-linecap="round"/>
<path d="M22.6401 41.9848L22.1355 42.4784" stroke="#67B7F4" stroke-linecap="round"/>
<path d="M29.369 41.9847L29.2047 42.4795" stroke="#67B7F4" stroke-linecap="round"/>
<path d="M36.0968 41.9848L36.2699 42.4767" stroke="#67B7F4" stroke-linecap="round"/>
<path d="M42.824 41.9848L43.3286 42.4784" stroke="#67B7F4" stroke-linecap="round"/>
<path d="M2.45657 35.4036L0.944824 35.5852" stroke="#67B7F4" stroke-linecap="round"/>
<path d="M9.18495 35.4038L8.01025 35.5858" stroke="#67B7F4" stroke-linecap="round"/>
<path d="M15.9129 35.4035L15.074 35.5779" stroke="#67B7F4" stroke-linecap="round"/>
<path d="M22.6409 35.4037L22.1379 35.5731" stroke="#67B7F4" stroke-linecap="round"/>
<path d="M29.3688 35.4036L29.2006 35.5681" stroke="#67B7F4" stroke-linecap="round"/>
<path d="M36.0963 35.4036L36.2645 35.5681" stroke="#67B7F4" stroke-linecap="round"/>
<path d="M42.824 35.4036L43.3298 35.5644" stroke="#67B7F4" stroke-linecap="round"/>
<path d="M2.45689 28.8223L0.942139 28.6666" stroke="#67B7F4" stroke-linecap="round"/>
<path d="M9.18485 28.8226L8.00708 28.6607" stroke="#67B7F4" stroke-linecap="round"/>
<path d="M15.9124 28.8224L15.0706 28.6624" stroke="#67B7F4" stroke-linecap="round"/>
<path d="M22.6409 28.8224L22.135 28.6617" stroke="#67B7F4" stroke-linecap="round"/>
<path d="M29.3688 28.8225L29.2006 28.658" stroke="#67B7F4" stroke-linecap="round"/>
<path d="M36.0963 28.8225L36.2645 28.658" stroke="#67B7F4" stroke-linecap="round"/>
<path d="M42.824 28.8225L43.3269 28.6532" stroke="#67B7F4" stroke-linecap="round"/>
<path d="M2.45678 22.2415L0.939209 21.7591" stroke="#67B7F4" stroke-linecap="round"/>
<path d="M9.18499 22.2415L8.00586 21.7519" stroke="#67B7F4" stroke-linecap="round"/>
<path d="M15.9131 22.2415L15.0637 21.7618" stroke="#67B7F4" stroke-linecap="round"/>
<path d="M22.6401 22.2415L22.1355 21.7479" stroke="#67B7F4" stroke-linecap="round"/>
<path d="M29.3683 22.2415L29.1951 21.7495" stroke="#67B7F4" stroke-linecap="round"/>
<path d="M36.0968 22.2415L36.2611 21.7467" stroke="#67B7F4" stroke-linecap="round"/>
<path d="M42.824 22.2415L43.3286 21.7479" stroke="#67B7F4" stroke-linecap="round"/>
<path d="M2.45672 15.6603L0.942139 14.8391" stroke="#67B7F4" stroke-linecap="round"/>
<path d="M9.18449 15.6604L7.99927 14.8486" stroke="#67B7F4" stroke-linecap="round"/>
<path d="M15.9128 15.6604L15.0718 14.8378" stroke="#67B7F4" stroke-linecap="round"/>
<path d="M22.6406 15.6604L22.1355 14.8381" stroke="#67B7F4" stroke-linecap="round"/>
<path d="M29.3692 15.6604L29.1909 14.8398" stroke="#67B7F4" stroke-linecap="round"/>
<path d="M36.0966 15.6604L36.2603 14.8369" stroke="#67B7F4" stroke-linecap="round"/>
<path d="M42.824 15.6604L43.3144 14.8296" stroke="#67B7F4" stroke-linecap="round"/>
<path d="M2.45663 9.07919L0.925049 7.95025" stroke="#67B7F4" stroke-linecap="round"/>
<path d="M9.18447 9.07919L8.00708 7.9275" stroke="#67B7F4" stroke-linecap="round"/>
<path d="M15.9127 9.07919L15.0623 7.93418" stroke="#67B7F4" stroke-linecap="round"/>
<path d="M22.6406 9.07919L22.1196 7.93452" stroke="#67B7F4" stroke-linecap="round"/>
<path d="M29.3686 9.07919L29.1826 7.93013" stroke="#67B7F4" stroke-linecap="round"/>
<path d="M36.0969 9.07919L36.2624 7.92713" stroke="#67B7F4" stroke-linecap="round"/>
<path d="M42.824 9.07919L43.3245 7.9258" stroke="#67B7F4" stroke-linecap="round"/>
<path d="M2.45641 2.49817L0.942627 1.01743" stroke="#67B7F4" stroke-linecap="round"/>
<path d="M9.18459 2.49817L8.00391 1.01994" stroke="#67B7F4" stroke-linecap="round"/>
<path d="M15.9125 2.49817L15.0466 1.0312" stroke="#67B7F4" stroke-linecap="round"/>
<path d="M22.6403 2.49817L22.1208 1.02236" stroke="#67B7F4" stroke-linecap="round"/>
<path d="M29.3684 2.49817L29.1828 1.01942" stroke="#67B7F4" stroke-linecap="round"/>
<path d="M36.0967 2.49817L36.2559 1.01647" stroke="#67B7F4" stroke-linecap="round"/>
<path d="M42.824 2.49817L43.3171 1.01372" stroke="#67B7F4" stroke-linecap="round"/>
</g>
</svg>
