<svg width="31" height="30" viewBox="0 0 31 30" fill="none" xmlns="http://www.w3.org/2000/svg">
<g clip-path="url(#clip0_1715_26698)">
<path d="M0.652808 30C0.14562 29.766 -0.00778885 29.3644 3.81269e-05 28.8197C0.0227363 27.1306 0.0125613 25.4416 0.0070824 23.7525C0.00316892 22.4759 0.448524 21.3895 1.35567 20.4933C1.63901 20.2131 1.9333 19.9439 2.25264 19.6402C1.90121 19.2943 1.58813 18.9906 1.28053 18.6814C0.806999 18.2063 0.808564 17.7296 1.28366 17.2538C2.8154 15.7205 4.34636 14.1856 5.88514 12.6593C6.04637 12.4997 6.07299 12.3901 5.94384 12.196C5.69025 11.8148 5.46326 11.4156 5.23237 11.0188C4.98112 10.5867 5.02495 10.1985 5.37482 9.84632C6.58722 8.62844 7.80196 7.41291 9.02062 6.20129C9.42763 5.79664 9.93168 5.8029 10.3449 6.20599C10.6666 6.51907 10.9836 6.83606 11.3038 7.15071C11.31 7.15697 11.3218 7.15775 11.3648 7.17497C11.7788 6.75936 12.2031 6.332 12.6289 5.907C13.2018 5.33563 13.626 5.33954 14.2036 5.91796C15.481 7.19532 16.7552 8.47503 18.0381 9.74691C18.2635 9.96998 18.4005 10.2189 18.4513 10.5304C18.7034 12.07 18.9554 13.6103 19.2223 15.1475C19.2998 15.5937 19.1824 15.9326 18.8599 16.2527C16.5807 18.5163 14.3148 20.7931 12.0411 23.0622C10.2111 24.889 7.51237 24.8952 5.67851 23.0794C5.01948 22.4266 4.36671 21.7676 3.71002 21.1125C3.63567 21.0381 3.5574 20.9677 3.44234 20.8589C3.01655 21.3238 2.57511 21.7519 2.19942 22.2317C1.86677 22.6567 1.76424 23.1811 1.76502 23.7228C1.76737 25.422 1.75171 27.1204 1.77441 28.8189C1.78146 29.3637 1.62805 29.7652 1.12164 29.9992C0.965886 30 0.809347 30 0.652808 30ZM9.62643 18.1163C8.55179 19.1909 7.4881 20.2546 6.41033 21.3324C6.55982 21.4788 6.73358 21.6494 6.90656 21.8208C8.06886 22.9675 9.64991 22.9635 10.8099 21.8083C11.8055 20.8166 12.7979 19.8218 13.7904 18.8278C13.8499 18.7683 13.9031 18.7018 13.9814 18.6141C13.1094 18.1789 12.2626 17.757 11.3828 17.3179C11.3828 17.8658 11.3828 18.3535 11.3828 18.8411C11.3828 18.9585 11.3852 19.0751 11.382 19.1925C11.3679 19.702 11.0095 20.0785 10.5281 20.091C10.0499 20.1043 9.64678 19.7138 9.62878 19.2019C9.61626 18.8356 9.62643 18.4693 9.62643 18.1163Z" fill="white"/>
<path d="M30.0056 14.8258C29.9586 15.0027 29.9171 15.1812 29.8639 15.3565C29.4099 16.8483 27.8665 17.8463 26.3825 17.6107C24.713 17.3453 23.5436 16.0163 23.564 14.3907C23.5726 13.7105 23.8199 13.0843 24.1408 12.5051C24.7506 11.407 25.39 10.3238 26.0522 9.25538C26.3903 8.70984 27.126 8.6934 27.4837 9.21311C28.3643 10.4913 29.1861 11.8054 29.7536 13.2597C29.8553 13.5203 29.9218 13.795 30.0048 14.0635C30.0056 14.3179 30.0056 14.5715 30.0056 14.8258Z" fill="white"/>
<path d="M18.9398 8.11187C17.8855 7.05758 16.8657 6.03851 15.8348 5.00848C15.8333 5.0163 15.8309 4.99204 15.8419 4.98187C16.9549 3.90409 17.9513 2.69952 19.2255 1.79551C20.8715 0.628504 22.7124 0.0422636 24.7286 0.00625957C25.2554 -0.00313279 25.7829 -2.00483e-06 26.3097 0.00391148C26.8771 0.00860766 27.245 0.370996 27.2489 0.937669C27.2544 1.75715 27.2528 2.57742 27.2497 3.3969C27.2474 4.04498 26.9006 4.38075 26.2572 4.39954C25.4495 4.42302 24.6347 4.40658 23.8371 4.5146C22.7758 4.65861 21.8671 5.1791 21.1048 5.93128C20.3753 6.64979 19.6607 7.38475 18.9398 8.11187Z" fill="white"/>
</g>
<defs>
<clipPath id="clip0_1715_26698">
<rect width="30.0055" height="30" fill="white"/>
</clipPath>
</defs>
</svg>
