<svg width="17" height="15" viewBox="0 0 17 15" fill="none" xmlns="http://www.w3.org/2000/svg">
<path d="M9.68836 5.95703C9.26889 5.95703 8.94385 6.28207 8.94385 6.68338C8.94385 7.08469 9.26889 7.40974 9.68836 7.40974C10.0715 7.40974 10.3966 7.08469 10.3966 6.68338C10.3966 6.28207 10.0715 5.95703 9.68836 5.95703ZM4.60389 5.95703C4.18442 5.95703 3.85938 6.28207 3.85938 6.68338C3.85938 7.08469 4.18442 7.40974 4.60389 7.40974C4.98704 7.40974 5.31208 7.08469 5.31208 6.68338C5.31208 6.28207 4.98704 5.95703 4.60389 5.95703Z" fill="#262449"/>
<path d="M15.5169 4.57684C14.6435 3.37835 13.4232 2.57755 12.0849 2.21619V2.218C11.7744 1.87299 11.4239 1.55521 11.0317 1.27193C8.05907 -0.88897 3.88617 -0.229805 1.71619 2.74279C-0.032507 5.15792 0.0419443 8.40653 1.82514 10.7145L1.83967 13.1224C1.83967 13.1805 1.84875 13.2386 1.86691 13.2931C1.96315 13.6 2.29001 13.7688 2.59507 13.6726L4.89398 12.9481C5.5023 13.1641 6.1306 13.2876 6.75526 13.3221L6.74618 13.3294C8.36413 14.5079 10.4851 14.862 12.4299 14.2192L14.7379 14.9709C14.796 14.9891 14.8559 15 14.9177 15C15.2391 15 15.4987 14.7403 15.4987 14.4189V11.9856C17.0985 9.81384 17.1403 6.81219 15.5169 4.57684ZM5.14821 11.6588L4.9303 11.568L3.13258 12.1309L3.11442 10.2424L2.96915 10.079C1.43291 8.20497 1.33122 5.50475 2.7694 3.52362C4.51991 1.12303 7.87566 0.59279 10.269 2.32514C12.6696 4.0702 13.2016 7.42051 11.4675 9.80658C10.013 11.8022 7.40898 12.5395 5.14821 11.6588ZM14.3184 11.3501L14.1731 11.5317L14.1913 13.4202L12.4117 12.8209L12.1938 12.9117C11.1769 13.2894 10.0929 13.3203 9.08867 13.0388L9.08504 13.037C10.427 12.6248 11.6436 11.7895 12.5207 10.5874C13.908 8.67528 14.1332 6.27287 13.3269 4.22455L13.3378 4.23182C13.7555 4.53144 14.1386 4.90551 14.4637 5.35767C15.782 7.16628 15.7076 9.62862 14.3184 11.3501Z" fill="#262449"/>
<path d="M7.14686 5.95703C6.72739 5.95703 6.40234 6.28207 6.40234 6.68338C6.40234 7.08469 6.72739 7.40974 7.14686 7.40974C7.53001 7.40974 7.85505 7.08469 7.85505 6.68338C7.85505 6.28207 7.53001 5.95703 7.14686 5.95703Z" fill="#262449"/>
</svg>
