<svg width="26" height="26" viewBox="0 0 26 26" fill="none" xmlns="http://www.w3.org/2000/svg">
<path d="M9.39453 15.524C9.39453 16.9215 10.467 18.0481 11.7995 18.0481H14.5187C15.6779 18.0481 16.6204 17.0623 16.6204 15.849C16.6204 14.5273 16.0462 14.0615 15.1904 13.7581L10.8245 12.2415C9.9687 11.9381 9.39453 11.4723 9.39453 10.1506C9.39453 8.93731 10.337 7.95148 11.4962 7.95148H14.2154C15.5479 7.95148 16.6204 9.07814 16.6204 10.4756" stroke="white" stroke-width="1.5" stroke-linecap="round" stroke-linejoin="round"/>
<path d="M13 6.5V19.5" stroke="white" stroke-width="1.5" stroke-linecap="round" stroke-linejoin="round"/>
<path d="M16.2501 23.8334H9.75008C4.33341 23.8334 2.16675 21.6667 2.16675 16.25V9.75002C2.16675 4.33335 4.33341 2.16669 9.75008 2.16669H16.2501C21.6667 2.16669 23.8334 4.33335 23.8334 9.75002V16.25C23.8334 21.6667 21.6667 23.8334 16.2501 23.8334Z" stroke="white" stroke-width="1.5" stroke-linecap="round" stroke-linejoin="round"/>
</svg>
