<svg width="14" height="15" viewBox="0 0 14 15" fill="none" xmlns="http://www.w3.org/2000/svg">
<path d="M1.31949 10.2393L3.95801 8.76006L2.96326 7.18713C2.73137 6.8198 2.60971 6.40828 2.60935 5.99003V3.5C2.60935 2.57174 3.03688 1.6815 3.7979 1.02513C4.55892 0.368749 5.59108 0 6.66732 0C7.74356 0 8.77572 0.368749 9.53673 1.02513C10.2978 1.6815 10.7253 2.57174 10.7253 3.5V5.99003C10.7249 6.40829 10.6033 6.81982 10.3714 7.18716L9.37663 8.76006L12.0151 10.2393C12.4206 10.4657 12.7538 10.7762 12.9842 11.1424C13.2146 11.5086 13.3349 11.9187 13.334 12.3354V15H0.000654176V12.3354C-0.000250662 11.9187 0.119998 11.5086 0.350399 11.1424C0.580799 10.7762 0.913993 10.4657 1.31949 10.2393V10.2393ZM1.16007 14H12.1746V12.3354C12.1751 12.0854 12.1029 11.8393 11.9647 11.6196C11.8265 11.3998 11.6265 11.2135 11.3832 11.0777L7.84482 9.09397L9.35351 6.70831C9.49264 6.48791 9.56564 6.24099 9.56587 5.99003V3.5C9.56587 2.83696 9.26048 2.20107 8.7169 1.73223C8.17332 1.26339 7.43606 1 6.66732 1C5.89857 1 5.16132 1.26339 4.61773 1.73223C4.07415 2.20107 3.76877 2.83696 3.76877 3.5V5.99003C3.76899 6.24099 3.84199 6.48791 3.98112 6.70831L5.48978 9.09397L1.95131 11.0777C1.70802 11.2135 1.50811 11.3999 1.36988 11.6196C1.23166 11.8393 1.15952 12.0854 1.16007 12.3354V14Z" fill="#262449"/>
</svg>
