<svg width="18" height="18" viewBox="0 0 18 18" fill="none" xmlns="http://www.w3.org/2000/svg">
<g clip-path="url(#clip0_2499_738)">
<path d="M14.625 12C14.625 12.4147 14.2897 12.75 13.875 12.75H12.375C11.9603 12.75 11.625 12.4147 11.625 12C11.625 11.5853 11.9603 11.25 12.375 11.25H13.875C14.2897 11.25 14.625 11.5853 14.625 12ZM18 11.25V15C18 16.6545 16.6545 18 15 18H3C1.3455 18 0 16.6545 0 15V11.25C0 9.5955 1.3455 8.25 3 8.25H3.75V3C3.75 1.3455 5.0955 0 6.75 0H11.25C12.9045 0 14.25 1.3455 14.25 3V8.25H15C16.6545 8.25 18 9.5955 18 11.25ZM5.25 8.25H12.75V3C12.75 2.17275 12.0773 1.5 11.25 1.5H6.75C5.92275 1.5 5.25 2.17275 5.25 3V8.25ZM3 16.5H8.25V9.75H3C2.17275 9.75 1.5 10.4227 1.5 11.25V15C1.5 15.8273 2.17275 16.5 3 16.5ZM16.5 11.25C16.5 10.4227 15.8273 9.75 15 9.75H9.75V16.5H15C15.8273 16.5 16.5 15.8273 16.5 15V11.25ZM5.625 11.25H4.125C3.71025 11.25 3.375 11.5853 3.375 12C3.375 12.4147 3.71025 12.75 4.125 12.75H5.625C6.03975 12.75 6.375 12.4147 6.375 12C6.375 11.5853 6.03975 11.25 5.625 11.25ZM10.5 3.75C10.5 3.33525 10.1647 3 9.75 3H8.25C7.83525 3 7.5 3.33525 7.5 3.75C7.5 4.16475 7.83525 4.5 8.25 4.5H9.75C10.1647 4.5 10.5 4.16475 10.5 3.75Z" fill="#E2AD36"/>
</g>
<defs>
<clipPath id="clip0_2499_738">
<rect width="18" height="18" fill="white"/>
</clipPath>
</defs>
</svg>
