<svg width="18" height="18" viewBox="0 0 18 18" fill="none" xmlns="http://www.w3.org/2000/svg">
<g clip-path="url(#clip0_2499_733)">
<path d="M17.925 8.5778C17.6303 6.30936 16.4829 4.23825 14.716 2.78543C12.9491 1.33261 10.6953 0.607103 8.41266 0.75638C6.13004 0.905658 3.98991 1.91851 2.42727 3.58908C0.86462 5.25964 -0.00327121 7.46255 -5.49467e-06 9.75005C-0.00432879 10.9744 0.243788 12.1866 0.728856 13.3108C1.21392 14.435 1.92553 15.4471 2.81924 16.284C3.50275 16.9169 4.40336 17.2627 5.33474 17.25H12.66C13.644 17.2524 14.5893 16.8674 15.2917 16.1783C16.2928 15.2044 17.0522 14.0099 17.5094 12.6902C17.9666 11.3706 18.1089 9.96226 17.925 8.5778V8.5778ZM14.2432 15.1028C13.8213 15.5186 13.2524 15.7511 12.66 15.75H5.33474C4.7867 15.7613 4.25511 15.5625 3.84899 15.1943C3.10445 14.4969 2.51161 13.6535 2.10746 12.7168C1.70331 11.7801 1.49652 10.7702 1.49999 9.75005C1.50073 8.69423 1.72407 7.65042 2.15545 6.68675C2.58682 5.72307 3.21653 4.86118 4.00349 4.1573C5.37085 2.92422 7.14827 2.24432 8.98949 2.25005C9.28369 2.25017 9.57764 2.26669 9.86999 2.29955C11.2767 2.46292 12.6083 3.02147 13.7107 3.91049C14.813 4.79951 15.641 5.98263 16.0986 7.32281C16.5563 8.66299 16.6249 10.1054 16.2965 11.483C15.9681 12.8605 15.2562 14.1169 14.2432 15.1065V15.1028ZM5.85524 12.9638C5.99747 13.103 6.07855 13.2931 6.08066 13.4921C6.08277 13.6911 6.00573 13.8828 5.86649 14.025C5.72726 14.1673 5.53722 14.2484 5.3382 14.2505C5.13918 14.2526 4.94747 14.1755 4.80524 14.0363C3.95396 13.2024 3.37027 12.134 3.12855 10.9671C2.88684 9.80022 2.99806 8.5878 3.44803 7.48438C3.89801 6.38097 4.66636 5.43653 5.65514 4.77146C6.64392 4.10638 7.80835 3.75081 8.99999 3.75005C9.28682 3.74996 9.57329 3.77026 9.85724 3.8108C9.95476 3.82485 10.0486 3.85799 10.1333 3.90831C10.218 3.95863 10.2919 4.02514 10.3509 4.10405C10.4099 4.18297 10.4528 4.27273 10.4771 4.36822C10.5014 4.4637 10.5066 4.56304 10.4925 4.66055C10.4796 4.75859 10.4472 4.85307 10.3972 4.93841C10.3473 5.02375 10.2807 5.09825 10.2016 5.1575C10.1224 5.21676 10.0322 5.25959 9.9362 5.28347C9.84023 5.30734 9.74046 5.31179 9.64274 5.29655C8.70411 5.16248 7.74711 5.32832 6.90831 5.7704C6.06952 6.21248 5.3918 6.90821 4.97186 7.75831C4.55193 8.60841 4.41124 9.56943 4.56988 10.5042C4.72851 11.439 5.17837 12.2998 5.85524 12.9638V12.9638ZM14.9392 8.8928C14.9798 9.17675 15.0001 9.46322 15 9.75005C15.0024 10.5493 14.8438 11.3408 14.5335 12.0774C14.2232 12.814 13.7676 13.4805 13.194 14.037C13.0516 14.1763 12.8597 14.2532 12.6605 14.251C12.4613 14.2487 12.2712 14.1675 12.132 14.025C11.9928 13.8826 11.9158 13.6907 11.918 13.4916C11.9203 13.2924 12.0016 13.1023 12.144 12.963C12.6507 12.4691 13.0334 11.8623 13.2607 11.1922C13.4881 10.522 13.5536 9.8076 13.452 9.1073C13.4235 8.91027 13.4745 8.71002 13.5937 8.55059C13.7129 8.39116 13.8906 8.28561 14.0876 8.25717C14.2846 8.22873 14.4849 8.27971 14.6443 8.39892C14.8038 8.51812 14.9093 8.69577 14.9377 8.8928H14.9392ZM10.4445 9.36605C10.5348 9.69061 10.515 10.0359 10.3883 10.3481C10.2615 10.6602 10.035 10.9216 9.74408 11.0914C9.45313 11.2612 9.11413 11.3299 8.78003 11.2867C8.44593 11.2435 8.13554 11.0909 7.89733 10.8527C7.65911 10.6145 7.5065 10.3041 7.46332 9.97001C7.42013 9.63591 7.48881 9.29691 7.65862 9.00596C7.82844 8.71501 8.08983 8.48849 8.40197 8.36178C8.71411 8.23506 9.05943 8.21529 9.38399 8.30555L12.2197 5.4698C12.2889 5.39816 12.3717 5.34103 12.4632 5.30172C12.5547 5.26241 12.6531 5.24172 12.7527 5.24086C12.8523 5.23999 12.951 5.25897 13.0432 5.29668C13.1354 5.33439 13.2191 5.39008 13.2895 5.4605C13.36 5.53092 13.4156 5.61466 13.4534 5.70683C13.4911 5.799 13.51 5.89776 13.5092 5.99735C13.5083 6.09693 13.4876 6.19535 13.4483 6.28685C13.409 6.37835 13.3519 6.46111 13.2802 6.5303L10.4445 9.36605Z" fill="#E2AD36"/>
</g>
<defs>
<clipPath id="clip0_2499_733">
<rect width="18" height="18" fill="white"/>
</clipPath>
</defs>
</svg>
