<svg width="18" height="18" viewBox="0 0 18 18" fill="none" xmlns="http://www.w3.org/2000/svg">
<g clip-path="url(#clip0_2499_743)">
<path d="M9 15C13.1355 15 16.5 11.6355 16.5 7.5C16.5 3.3645 13.1355 0 9 0C4.8645 0 1.5 3.3645 1.5 7.5C1.5 11.6355 4.8645 15 9 15ZM9 1.5C12.3082 1.5 15 4.19175 15 7.5C15 10.8082 12.3082 13.5 9 13.5C5.69175 13.5 3 10.8082 3 7.5C3 4.19175 5.69175 1.5 9 1.5ZM18 15.375C18 16.8225 16.8225 18 15.375 18H2.625C1.1775 18 0 16.8225 0 15.375C0 14.5545 0.3915 13.7707 1.047 13.2772C1.3785 13.0282 1.84875 13.0957 2.097 13.425C2.346 13.7557 2.28 14.226 1.94925 14.475C1.6635 14.6895 1.5 15.018 1.5 15.3743C1.5 15.9945 2.00475 16.4993 2.625 16.4993H15.375C15.9953 16.4993 16.5 15.9945 16.5 15.3743C16.5 15.0173 16.3357 14.6895 16.05 14.4742C15.7192 14.2245 15.6533 13.7543 15.903 13.4235C16.1513 13.0943 16.6223 13.0267 16.953 13.2765C17.6183 13.779 18 14.5433 18 15.375V15.375ZM10.5 9C10.5 8.71575 10.2967 8.4765 10.017 8.42925L7.73625 8.04975C6.72975 7.88175 6 7.01925 6 6C6 4.7595 7.0095 3.75 8.25 3.75V3C8.25 2.58525 8.586 2.25 9 2.25C9.414 2.25 9.75 2.58525 9.75 3V3.75H9.951C10.7512 3.75 11.4983 4.1805 11.8995 4.87425C12.1065 5.2335 11.9843 5.69175 11.6258 5.89875C11.268 6.10725 10.809 5.9835 10.6013 5.62575C10.467 5.39325 10.218 5.25 9.951 5.25H8.25C7.83675 5.25 7.5 5.586 7.5 6C7.5 6.28425 7.70325 6.5235 7.983 6.57075L10.2638 6.95025C11.2703 7.11825 12 7.98075 12 9C12 10.2405 10.9905 11.25 9.75 11.25V12C9.75 12.4147 9.414 12.75 9 12.75C8.586 12.75 8.25 12.4147 8.25 12V11.25H8.049C7.24875 11.25 6.50175 10.8195 6.1005 10.1258C5.8935 9.7665 6.01575 9.30825 6.37425 9.10125C6.73125 8.89275 7.191 9.0165 7.39875 9.37425C7.533 9.60675 7.782 9.75 8.049 9.75H9.75C10.1632 9.75 10.5 9.414 10.5 9Z" fill="#E2AD36"/>
</g>
<defs>
<clipPath id="clip0_2499_743">
<rect width="18" height="18" fill="white"/>
</clipPath>
</defs>
</svg>
