<svg width="18" height="18" viewBox="0 0 18 18" fill="none" xmlns="http://www.w3.org/2000/svg">
<g clip-path="url(#clip0_2499_739)">
<path d="M14.25 0H9.75C8.7558 0.00119089 7.80267 0.396661 7.09966 1.09966C6.39666 1.80267 6.00119 2.7558 6 3.75V3.825C5.15356 3.99907 4.39301 4.45964 3.84654 5.12906C3.30007 5.79849 3.00109 6.63585 3 7.5V7.575C2.15356 7.74907 1.39301 8.20964 0.846539 8.87906C0.300068 9.54849 0.00109089 10.3858 0 11.25L0 14.25C0.00119089 15.2442 0.396661 16.1973 1.09966 16.9003C1.80267 17.6033 2.7558 17.9988 3.75 18H8.25C9.2442 17.9988 10.1973 17.6033 10.9003 16.9003C11.6033 16.1973 11.9988 15.2442 12 14.25V14.175C12.8464 14.0009 13.607 13.5404 14.1535 12.8709C14.6999 12.2015 14.9989 11.3642 15 10.5V10.425C15.8464 10.2509 16.607 9.79036 17.1535 9.12094C17.6999 8.45151 17.9989 7.61415 18 6.75V3.75C17.9988 2.7558 17.6033 1.80267 16.9003 1.09966C16.1973 0.396661 15.2442 0.00119089 14.25 0V0ZM1.5 11.25C1.5 10.6533 1.73705 10.081 2.15901 9.65901C2.58097 9.23705 3.15326 9 3.75 9H8.25C8.65775 9.0011 9.05748 9.11343 9.40611 9.32488C9.75475 9.53634 10.0391 9.83891 10.2285 10.2L7.63725 12.7972L7.281 12.438C7.01542 12.1704 6.65851 12.0132 6.28184 11.9977C5.90517 11.9823 5.53658 12.1098 5.25 12.3547L1.78425 15.3248C1.59988 14.9964 1.50206 14.6266 1.5 14.25V11.25ZM10.5 14.25C10.5 14.8467 10.2629 15.419 9.84099 15.841C9.41903 16.2629 8.84674 16.5 8.25 16.5H3.75C3.46242 16.4994 3.17769 16.4431 2.9115 16.3342L6.216 13.5L6.573 13.8608C6.85429 14.142 7.23575 14.2999 7.6335 14.2999C8.03125 14.2999 8.41271 14.142 8.694 13.8608L10.5 12.051V14.25ZM13.5 10.5C13.4981 10.9637 13.3529 11.4155 13.0844 11.7935C12.8159 12.1716 12.4372 12.4574 12 12.612V11.25C11.9988 10.2558 11.6033 9.30267 10.9003 8.59966C10.1973 7.89666 9.2442 7.50119 8.25 7.5H4.5C4.5 6.90326 4.73705 6.33097 5.15901 5.90901C5.58097 5.48705 6.15326 5.25 6.75 5.25H11.25C11.8467 5.25 12.419 5.48705 12.841 5.90901C13.2629 6.33097 13.5 6.90326 13.5 7.5V10.5ZM16.5 6.75C16.4981 7.2137 16.3529 7.66547 16.0844 8.04352C15.8159 8.42158 15.4372 8.70744 15 8.862V7.5C14.9988 6.5058 14.6033 5.55267 13.9003 4.84966C13.1973 4.14666 12.2442 3.75119 11.25 3.75H7.5C7.5 3.15326 7.73705 2.58097 8.15901 2.15901C8.58097 1.73705 9.15326 1.5 9.75 1.5H14.25C14.8467 1.5 15.419 1.73705 15.841 2.15901C16.2629 2.58097 16.5 3.15326 16.5 3.75V6.75ZM3 11.25C3 11.1017 3.04399 10.9567 3.1264 10.8333C3.20881 10.71 3.32594 10.6139 3.46299 10.5571C3.60003 10.5003 3.75083 10.4855 3.89632 10.5144C4.0418 10.5433 4.17544 10.6148 4.28033 10.7197C4.38522 10.8246 4.45665 10.9582 4.48559 11.1037C4.51453 11.2492 4.49968 11.4 4.44291 11.537C4.38614 11.6741 4.29001 11.7912 4.16668 11.8736C4.04334 11.956 3.89834 12 3.75 12C3.55109 12 3.36032 11.921 3.21967 11.7803C3.07902 11.6397 3 11.4489 3 11.25Z" fill="#E2AD36"/>
</g>
<defs>
<clipPath id="clip0_2499_739">
<rect width="18" height="18" fill="white"/>
</clipPath>
</defs>
</svg>
