<svg width="18" height="18" viewBox="0 0 18 18" fill="none" xmlns="http://www.w3.org/2000/svg">
<g clip-path="url(#clip0_2499_737)">
<path d="M16.35 4.18424L11.1 0.641235C10.4806 0.220228 9.74894 -0.00488281 9 -0.00488281C8.25106 -0.00488281 7.51941 0.220228 6.9 0.641235L1.65 4.18424C1.14124 4.52749 0.724668 4.99054 0.436944 5.53264C0.149219 6.07474 -0.000830665 6.67926 3.45872e-06 7.29299V14.25C0.00119435 15.2442 0.396665 16.1973 1.09967 16.9003C1.80267 17.6033 2.75581 17.9988 3.75 18H14.25C15.2442 17.9988 16.1973 17.6033 16.9003 16.9003C17.6033 16.1973 17.9988 15.2442 18 14.25V7.29299C18.0008 6.67927 17.8507 6.07478 17.563 5.53269C17.2753 4.9906 16.8587 4.52753 16.35 4.18424V4.18424ZM13.5 16.5H4.5V9.74999C4.5 9.35216 4.65804 8.97063 4.93934 8.68933C5.22065 8.40802 5.60218 8.24999 6 8.24999H12C12.3978 8.24999 12.7794 8.40802 13.0607 8.68933C13.342 8.97063 13.5 9.35216 13.5 9.74999V16.5ZM16.5 14.25C16.4999 14.7152 16.3557 15.169 16.087 15.5488C15.8184 15.9287 15.4386 16.2159 15 16.371V9.74999C15 8.95434 14.6839 8.19127 14.1213 7.62866C13.5587 7.06606 12.7957 6.74999 12 6.74999H6C5.20435 6.74999 4.44129 7.06606 3.87868 7.62866C3.31607 8.19127 3 8.95434 3 9.74999V16.371C2.56138 16.2159 2.18161 15.9287 1.91298 15.5488C1.64435 15.169 1.50007 14.7152 1.5 14.25V7.29299C1.49998 6.92467 1.59038 6.56199 1.76325 6.23677C1.93613 5.91155 2.18619 5.63374 2.4915 5.42774L7.7415 1.88548C8.11263 1.63298 8.55113 1.49796 9 1.49796C9.44888 1.49796 9.88738 1.63298 10.2585 1.88548L15.5085 5.42774C15.8138 5.63374 16.0639 5.91155 16.2368 6.23677C16.4096 6.56199 16.5 6.92467 16.5 7.29299V14.25ZM10.5 14.25C10.5 14.4489 10.421 14.6397 10.2803 14.7803C10.1397 14.921 9.94892 15 9.75 15H8.25C8.05109 15 7.86033 14.921 7.71967 14.7803C7.57902 14.6397 7.5 14.4489 7.5 14.25C7.5 14.0511 7.57902 13.8603 7.71967 13.7197C7.86033 13.579 8.05109 13.5 8.25 13.5H9.75C9.94892 13.5 10.1397 13.579 10.2803 13.7197C10.421 13.8603 10.5 14.0511 10.5 14.25Z" fill="#E2AD36"/>
</g>
<defs>
<clipPath id="clip0_2499_737">
<rect width="18" height="18" fill="white"/>
</clipPath>
</defs>
</svg>
