<svg width="18" height="18" viewBox="0 0 18 18" fill="none" xmlns="http://www.w3.org/2000/svg">
<g clip-path="url(#clip0_2499_744)">
<path d="M12 17.25C12 17.664 11.6648 18 11.25 18H4.5C2.43225 18 0.75 16.3177 0.75 14.25V3.75C0.75 1.68225 2.43225 0 4.5 0H7.88625C9.288 0 10.6065 0.546 11.5988 1.5375L14.2118 4.152C14.415 4.35525 14.604 4.578 14.7728 4.81425C15.0135 5.151 14.9355 5.61975 14.5988 5.8605C14.262 6.1005 13.7925 6.02325 13.5525 5.68575C13.4318 5.517 13.2968 5.35725 13.152 5.21325L10.5383 2.59875C10.2998 2.36025 10.035 2.1585 9.75 1.995V5.25C9.75 5.66325 10.086 6 10.5 6H12.75C13.1648 6 13.5 6.336 13.5 6.75C13.5 7.164 13.1648 7.5 12.75 7.5H10.5C9.2595 7.5 8.25 6.4905 8.25 5.25V1.51725C8.13 1.506 8.0085 1.5 7.88625 1.5H4.5C3.2595 1.5 2.25 2.5095 2.25 3.75V14.25C2.25 15.4905 3.2595 16.5 4.5 16.5H11.25C11.6648 16.5 12 16.836 12 17.25ZM16.2638 12.2003L13.983 11.82C13.7033 11.7735 13.5 11.5335 13.5 11.25C13.5 10.8368 13.836 10.5 14.25 10.5H15.951C16.218 10.5 16.467 10.644 16.6013 10.875C16.8075 11.2335 17.265 11.3557 17.6258 11.1487C17.9843 10.941 18.1073 10.4827 17.8988 10.1242C17.4983 9.4305 16.7513 8.99925 15.9503 8.99925H15.7493V8.24925C15.7493 7.83525 15.414 7.49925 14.9993 7.49925C14.5845 7.49925 14.2493 7.83525 14.2493 8.24925V8.99925C13.0088 8.99925 11.9993 10.0087 11.9993 11.2492C11.9993 12.2692 12.7298 13.1318 13.7355 13.299L16.0163 13.6793C16.296 13.7258 16.4993 13.9658 16.4993 14.2493C16.4993 14.6625 16.1633 14.9993 15.7493 14.9993H14.0483C13.7813 14.9993 13.5323 14.8553 13.398 14.6243C13.1918 14.265 12.7335 14.1428 12.3735 14.3505C12.015 14.5583 11.892 15.0165 12.1005 15.375C12.501 16.0688 13.248 16.4993 14.049 16.4993H14.25V17.2493C14.25 17.6633 14.5853 17.9993 15 17.9993C15.4148 17.9993 15.75 17.6633 15.75 17.2493V16.4993C16.9905 16.4993 18 15.4898 18 14.2493C18 13.2293 17.2695 12.3668 16.2638 12.1995V12.2003ZM5.625 11.25H9.75C10.1648 11.25 10.5 10.914 10.5 10.5C10.5 10.086 10.1648 9.75 9.75 9.75H5.625C4.5915 9.75 3.75 10.5915 3.75 11.625V13.125C3.75 14.1585 4.5915 15 5.625 15H9.75C10.1648 15 10.5 14.664 10.5 14.25C10.5 13.836 10.1648 13.5 9.75 13.5H5.625C5.418 13.5 5.25 13.332 5.25 13.125V11.625C5.25 11.418 5.418 11.25 5.625 11.25V11.25ZM4.5 8.25H6C6.414 8.25 6.75 7.914 6.75 7.5C6.75 7.086 6.414 6.75 6 6.75H4.5C4.086 6.75 3.75 7.086 3.75 7.5C3.75 7.914 4.086 8.25 4.5 8.25ZM4.5 5.25H6C6.414 5.25 6.75 4.914 6.75 4.5C6.75 4.086 6.414 3.75 6 3.75H4.5C4.086 3.75 3.75 4.086 3.75 4.5C3.75 4.914 4.086 5.25 4.5 5.25Z" fill="#E2AD36"/>
</g>
<defs>
<clipPath id="clip0_2499_744">
<rect width="18" height="18" fill="white"/>
</clipPath>
</defs>
</svg>
