<svg width="18" height="18" viewBox="0 0 18 18" fill="none" xmlns="http://www.w3.org/2000/svg">
<g clip-path="url(#clip0_2499_747)">
<path d="M9 6C8.40666 6 7.82664 6.17595 7.33329 6.50559C6.83994 6.83524 6.45543 7.30377 6.22836 7.85195C6.0013 8.40013 5.94189 9.00333 6.05765 9.58527C6.1734 10.1672 6.45912 10.7018 6.87868 11.1213C7.29824 11.5409 7.83279 11.8266 8.41473 11.9424C8.99667 12.0581 9.59987 11.9987 10.1481 11.7716C10.6962 11.5446 11.1648 11.1601 11.4944 10.6667C11.8241 10.1734 12 9.59334 12 9C12 8.20435 11.6839 7.44129 11.1213 6.87868C10.5587 6.31607 9.79565 6 9 6V6ZM9 10.5C8.70333 10.5 8.41332 10.412 8.16665 10.2472C7.91997 10.0824 7.72771 9.84811 7.61418 9.57403C7.50065 9.29994 7.47095 8.99834 7.52882 8.70736C7.5867 8.41639 7.72956 8.14912 7.93934 7.93934C8.14912 7.72956 8.41639 7.5867 8.70737 7.52882C8.99834 7.47094 9.29994 7.50065 9.57403 7.61418C9.84812 7.72771 10.0824 7.91997 10.2472 8.16664C10.412 8.41332 10.5 8.70333 10.5 9C10.5 9.39783 10.342 9.77936 10.0607 10.0607C9.77936 10.342 9.39783 10.5 9 10.5Z" fill="#E2AD36"/>
<path d="M15.9705 10.425L15.6375 10.233C15.7874 9.41733 15.7874 8.58117 15.6375 7.7655L15.9705 7.5735C16.2266 7.42576 16.4511 7.22903 16.6311 6.99455C16.8111 6.76006 16.9432 6.4924 17.0199 6.20686C17.0965 5.92132 17.1161 5.62349 17.0776 5.33037C17.0391 5.03725 16.9432 4.75458 16.7955 4.4985C16.6478 4.24242 16.451 4.01795 16.2165 3.8379C15.9821 3.65785 15.7144 3.52575 15.4289 3.44915C15.1433 3.37254 14.8455 3.35292 14.5524 3.39142C14.2592 3.42991 13.9766 3.52576 13.7205 3.6735L13.3868 3.86625C12.7564 3.32769 12.032 2.91019 11.25 2.63475V2.25C11.25 1.65326 11.0129 1.08097 10.591 0.65901C10.169 0.237053 9.59674 0 9 0C8.40326 0 7.83097 0.237053 7.40901 0.65901C6.98705 1.08097 6.75 1.65326 6.75 2.25V2.63475C5.96804 2.91118 5.24389 3.3297 4.614 3.86925L4.27875 3.675C3.76158 3.37663 3.14706 3.29593 2.57039 3.45065C1.99371 3.60536 1.50212 3.98283 1.20375 4.5C0.905383 5.01717 0.824681 5.63169 0.979398 6.20836C1.13412 6.78504 1.51158 7.27663 2.02875 7.575L2.36175 7.767C2.21183 8.58267 2.21183 9.41883 2.36175 10.2345L2.02875 10.4265C1.51158 10.7249 1.13412 11.2165 0.979398 11.7931C0.824681 12.3698 0.905383 12.9843 1.20375 13.5015C1.50212 14.0187 1.99371 14.3961 2.57039 14.5509C3.14706 14.7056 3.76158 14.6249 4.27875 14.3265L4.6125 14.1337C5.24308 14.6724 5.96774 15.0899 6.75 15.3652V15.75C6.75 16.3467 6.98705 16.919 7.40901 17.341C7.83097 17.7629 8.40326 18 9 18C9.59674 18 10.169 17.7629 10.591 17.341C11.0129 16.919 11.25 16.3467 11.25 15.75V15.3652C12.032 15.0888 12.7561 14.6703 13.386 14.1307L13.7213 14.3243C14.2384 14.6226 14.8529 14.7033 15.4296 14.5486C16.0063 14.3939 16.4979 14.0164 16.7963 13.4993C17.0946 12.9821 17.1753 12.3676 17.0206 11.7909C16.8659 11.2142 16.4884 10.7226 15.9713 10.4243L15.9705 10.425ZM14.0595 7.593C14.3135 8.5133 14.3135 9.4852 14.0595 10.4055C14.0152 10.5657 14.0253 10.7361 14.0883 10.8899C14.1512 11.0437 14.2635 11.1722 14.4075 11.2552L15.2205 11.7248C15.3929 11.8242 15.5186 11.9881 15.5702 12.1803C15.6217 12.3725 15.5948 12.5773 15.4954 12.7496C15.3959 12.922 15.2321 13.0478 15.0399 13.0993C14.8477 13.1509 14.6429 13.124 14.4705 13.0245L13.656 12.5535C13.5119 12.4701 13.3442 12.4369 13.1792 12.4593C13.0142 12.4817 12.8614 12.5584 12.7448 12.6772C12.0772 13.3587 11.2362 13.845 10.3125 14.0835C10.1513 14.125 10.0084 14.2189 9.90645 14.3504C9.80447 14.482 9.74917 14.6438 9.74925 14.8102V15.75C9.74925 15.9489 9.67023 16.1397 9.52958 16.2803C9.38893 16.421 9.19816 16.5 8.99925 16.5C8.80034 16.5 8.60957 16.421 8.46892 16.2803C8.32827 16.1397 8.24925 15.9489 8.24925 15.75V14.811C8.24933 14.6445 8.19403 14.4828 8.09206 14.3512C7.99008 14.2196 7.84723 14.1257 7.686 14.0842C6.76226 13.8448 5.9215 13.3575 5.2545 12.675C5.13789 12.5561 4.98505 12.4795 4.82007 12.4571C4.65508 12.4347 4.48733 12.4678 4.34325 12.5513L3.53025 13.0215C3.44492 13.0715 3.35054 13.1042 3.25255 13.1176C3.15455 13.131 3.05487 13.1249 2.95924 13.0996C2.86362 13.0743 2.77394 13.0303 2.69537 12.9703C2.6168 12.9102 2.55089 12.8352 2.50143 12.7495C2.45197 12.6638 2.41995 12.5692 2.4072 12.4712C2.39445 12.3731 2.40123 12.2734 2.42714 12.178C2.45306 12.0825 2.4976 11.9931 2.5582 11.915C2.6188 11.8368 2.69427 11.7714 2.78025 11.7225L3.59325 11.253C3.73721 11.1699 3.84951 11.0414 3.9125 10.8876C3.97548 10.7338 3.9856 10.5634 3.94125 10.4033C3.68727 9.48295 3.68727 8.51105 3.94125 7.59075C3.9848 7.43091 3.9742 7.26115 3.91111 7.10797C3.84802 6.95479 3.73599 6.8268 3.5925 6.744L2.7795 6.2745C2.60714 6.17504 2.48135 6.01119 2.42981 5.81899C2.37826 5.62679 2.40517 5.42198 2.50463 5.24962C2.60408 5.07727 2.76793 4.95148 2.96014 4.89993C3.15234 4.84838 3.35714 4.87529 3.5295 4.97475L4.344 5.44575C4.48769 5.52939 4.65509 5.56291 4.8199 5.54105C4.98471 5.51919 5.13758 5.4432 5.2545 5.325C5.92207 4.64351 6.76307 4.15727 7.68675 3.91875C7.84848 3.87717 7.9917 3.78281 8.09373 3.65063C8.19576 3.51844 8.25075 3.35598 8.25 3.189V2.25C8.25 2.05109 8.32902 1.86032 8.46967 1.71967C8.61032 1.57902 8.80109 1.5 9 1.5C9.19891 1.5 9.38968 1.57902 9.53033 1.71967C9.67098 1.86032 9.75 2.05109 9.75 2.25V3.189C9.74992 3.35547 9.80522 3.51723 9.9072 3.64881C10.0092 3.78039 10.152 3.8743 10.3133 3.91575C11.2373 4.15511 12.0783 4.64241 12.7455 5.325C12.8621 5.44385 13.0149 5.52052 13.1799 5.54292C13.3449 5.56533 13.5127 5.5322 13.6568 5.44875L14.4698 4.9785C14.5551 4.92848 14.6495 4.89583 14.7475 4.88243C14.8455 4.86903 14.9451 4.87514 15.0408 4.90043C15.1364 4.92571 15.2261 4.96965 15.3046 5.02974C15.3832 5.08982 15.4491 5.16485 15.4986 5.2505C15.548 5.33616 15.5801 5.43076 15.5928 5.52884C15.6056 5.62693 15.5988 5.72656 15.5729 5.82202C15.5469 5.91747 15.5024 6.00686 15.4418 6.08503C15.3812 6.1632 15.3057 6.22861 15.2198 6.2775L14.4068 6.747C14.2635 6.83003 14.1518 6.95811 14.089 7.11127C14.0262 7.26443 14.0158 7.43407 14.0595 7.59375V7.593Z" fill="#E2AD36"/>
</g>
<defs>
<clipPath id="clip0_2499_747">
<rect width="18" height="18" fill="white"/>
</clipPath>
</defs>
</svg>
