<svg width="18" height="18" viewBox="0 0 18 18" fill="none" xmlns="http://www.w3.org/2000/svg">
<g clip-path="url(#clip0_2499_745)">
<path d="M17.25 18C17.0511 18 16.8603 17.921 16.7197 17.7803C16.579 17.6396 16.5 17.4489 16.5 17.25C16.4988 16.0569 16.0243 14.913 15.1807 14.0693C14.337 13.2257 13.1931 12.7512 12 12.75H7.62751V13.9395C7.62745 14.2361 7.53944 14.526 7.37462 14.7727C7.20979 15.0193 6.97555 15.2115 6.7015 15.325C6.42745 15.4385 6.1259 15.4682 5.83497 15.4103C5.54404 15.3525 5.27679 15.2097 5.06701 15L0.657763 10.5907C0.235953 10.1688 -0.00100708 9.59659 -0.00100708 8.99997C-0.00100708 8.40335 0.235953 7.83116 0.657763 7.40922L5.06701 2.99997C5.27679 2.79026 5.54404 2.64745 5.83497 2.5896C6.1259 2.53174 6.42745 2.56145 6.7015 2.67495C6.97555 2.78846 7.20979 2.98067 7.37462 3.22728C7.53944 3.4739 7.62745 3.76385 7.62751 4.06047V5.24997H11.25C13.0396 5.25196 14.7554 5.96375 16.0208 7.22919C17.2862 8.49463 17.998 10.2104 18 12V17.25C18 17.4489 17.921 17.6396 17.7803 17.7803C17.6397 17.921 17.4489 18 17.25 18ZM6.12751 4.06047L1.71826 8.46972C1.57766 8.61037 1.49867 8.8011 1.49867 8.99997C1.49867 9.19884 1.57766 9.38958 1.71826 9.53022L6.12751 13.9395V12C6.12751 11.8011 6.20653 11.6103 6.34718 11.4696C6.48784 11.329 6.6786 11.25 6.87751 11.25H12C12.8517 11.2497 13.6937 11.4312 14.4697 11.7822C15.2456 12.1332 15.9378 12.6457 16.5 13.2855V12C16.4984 10.6081 15.9448 9.27364 14.9606 8.28941C13.9763 7.30519 12.6419 6.75156 11.25 6.74997H6.87751C6.6786 6.74997 6.48784 6.67095 6.34718 6.5303C6.20653 6.38965 6.12751 6.19888 6.12751 5.99997V4.06047Z" fill="#E2AD36"/>
</g>
<defs>
<clipPath id="clip0_2499_745">
<rect width="18" height="18" fill="white"/>
</clipPath>
</defs>
</svg>
