<svg width="18" height="18" viewBox="0 0 18 18" fill="none" xmlns="http://www.w3.org/2000/svg">
<g clip-path="url(#clip0_2499_735)">
<path d="M9 12C8.40666 12 7.82664 11.8241 7.33329 11.4944C6.83994 11.1648 6.45542 10.6962 6.22836 10.1481C6.0013 9.59987 5.94189 8.99667 6.05764 8.41473C6.1734 7.83279 6.45912 7.29824 6.87868 6.87868C7.29824 6.45912 7.83279 6.1734 8.41473 6.05765C8.99667 5.94189 9.59987 6.0013 10.1481 6.22836C10.6962 6.45543 11.1648 6.83994 11.4944 7.33329C11.8241 7.82664 12 8.40666 12 9C12 9.79565 11.6839 10.5587 11.1213 11.1213C10.5587 11.6839 9.79565 12 9 12ZM9 7.5C8.70333 7.5 8.41332 7.58798 8.16664 7.7528C7.91997 7.91762 7.72771 8.15189 7.61418 8.42598C7.50065 8.70007 7.47094 9.00167 7.52882 9.29264C7.5867 9.58361 7.72956 9.85088 7.93934 10.0607C8.14912 10.2704 8.41639 10.4133 8.70736 10.4712C8.99834 10.5291 9.29994 10.4994 9.57402 10.3858C9.84811 10.2723 10.0824 10.08 10.2472 9.83336C10.412 9.58668 10.5 9.29667 10.5 9C10.5 8.60218 10.342 8.22065 10.0607 7.93934C9.77936 7.65804 9.39782 7.5 9 7.5ZM13.5 17.25C13.5 16.0565 13.0259 14.9119 12.182 14.068C11.3381 13.2241 10.1935 12.75 9 12.75C7.80653 12.75 6.66193 13.2241 5.81802 14.068C4.97411 14.9119 4.5 16.0565 4.5 17.25C4.5 17.4489 4.57902 17.6397 4.71967 17.7803C4.86032 17.921 5.05109 18 5.25 18C5.44891 18 5.63968 17.921 5.78033 17.7803C5.92098 17.6397 6 17.4489 6 17.25C6 16.4544 6.31607 15.6913 6.87868 15.1287C7.44129 14.5661 8.20435 14.25 9 14.25C9.79565 14.25 10.5587 14.5661 11.1213 15.1287C11.6839 15.6913 12 16.4544 12 17.25C12 17.4489 12.079 17.6397 12.2197 17.7803C12.3603 17.921 12.5511 18 12.75 18C12.9489 18 13.1397 17.921 13.2803 17.7803C13.421 17.6397 13.5 17.4489 13.5 17.25ZM13.5 6C12.9067 6 12.3266 5.82405 11.8333 5.49441C11.3399 5.16477 10.9554 4.69623 10.7284 4.14805C10.5013 3.59987 10.4419 2.99667 10.5576 2.41473C10.6734 1.83279 10.9591 1.29824 11.3787 0.878681C11.7982 0.459124 12.3328 0.173401 12.9147 0.0576455C13.4967 -0.0581102 14.0999 0.00129984 14.648 0.228363C15.1962 0.455426 15.6648 0.839943 15.9944 1.33329C16.3241 1.82664 16.5 2.40666 16.5 3C16.5 3.79565 16.1839 4.55871 15.6213 5.12132C15.0587 5.68393 14.2956 6 13.5 6ZM13.5 1.5C13.2033 1.5 12.9133 1.58797 12.6666 1.7528C12.42 1.91762 12.2277 2.15189 12.1142 2.42598C12.0006 2.70007 11.9709 3.00167 12.0288 3.29264C12.0867 3.58361 12.2296 3.85088 12.4393 4.06066C12.6491 4.27044 12.9164 4.4133 13.2074 4.47118C13.4983 4.52906 13.7999 4.49935 14.074 4.38582C14.3481 4.27229 14.5824 4.08003 14.7472 3.83336C14.912 3.58668 15 3.29667 15 3C15 2.60218 14.842 2.22065 14.5607 1.93934C14.2794 1.65804 13.8978 1.5 13.5 1.5ZM18 11.25C17.9988 10.0569 17.5243 8.91299 16.6807 8.06934C15.837 7.22568 14.6931 6.75119 13.5 6.75C13.3011 6.75 13.1103 6.82902 12.9697 6.96967C12.829 7.11032 12.75 7.30109 12.75 7.5C12.75 7.69891 12.829 7.88968 12.9697 8.03033C13.1103 8.17098 13.3011 8.25 13.5 8.25C14.2956 8.25 15.0587 8.56607 15.6213 9.12868C16.1839 9.69129 16.5 10.4544 16.5 11.25C16.5 11.4489 16.579 11.6397 16.7197 11.7803C16.8603 11.921 17.0511 12 17.25 12C17.4489 12 17.6397 11.921 17.7803 11.7803C17.921 11.6397 18 11.4489 18 11.25ZM4.5 6C3.90666 6 3.32664 5.82405 2.83329 5.49441C2.33994 5.16477 1.95542 4.69623 1.72836 4.14805C1.5013 3.59987 1.44189 2.99667 1.55764 2.41473C1.6734 1.83279 1.95912 1.29824 2.37868 0.878681C2.79824 0.459124 3.33279 0.173401 3.91473 0.0576455C4.49667 -0.0581102 5.09987 0.00129984 5.64805 0.228363C6.19623 0.455426 6.66476 0.839943 6.99441 1.33329C7.32405 1.82664 7.5 2.40666 7.5 3C7.5 3.79565 7.18393 4.55871 6.62132 5.12132C6.05871 5.68393 5.29565 6 4.5 6V6ZM4.5 1.5C4.20333 1.5 3.91332 1.58797 3.66664 1.7528C3.41997 1.91762 3.22771 2.15189 3.11418 2.42598C3.00065 2.70007 2.97094 3.00167 3.02882 3.29264C3.0867 3.58361 3.22956 3.85088 3.43934 4.06066C3.64912 4.27044 3.91639 4.4133 4.20736 4.47118C4.49834 4.52906 4.79994 4.49935 5.07403 4.38582C5.34811 4.27229 5.58238 4.08003 5.7472 3.83336C5.91203 3.58668 6 3.29667 6 3C6 2.60218 5.84196 2.22065 5.56066 1.93934C5.27936 1.65804 4.89782 1.5 4.5 1.5ZM1.5 11.25C1.5 10.4544 1.81607 9.69129 2.37868 9.12868C2.94129 8.56607 3.70435 8.25 4.5 8.25C4.69891 8.25 4.88968 8.17098 5.03033 8.03033C5.17098 7.88968 5.25 7.69891 5.25 7.5C5.25 7.30109 5.17098 7.11032 5.03033 6.96967C4.88968 6.82902 4.69891 6.75 4.5 6.75C3.30689 6.75119 2.16299 7.22568 1.31934 8.06934C0.47568 8.91299 0.00119132 10.0569 0 11.25C0 11.4489 0.0790176 11.6397 0.21967 11.7803C0.360322 11.921 0.551088 12 0.75 12C0.948912 12 1.13968 11.921 1.28033 11.7803C1.42098 11.6397 1.5 11.4489 1.5 11.25Z" fill="#E2AD36"/>
</g>
<defs>
<clipPath id="clip0_2499_735">
<rect width="18" height="18" fill="white"/>
</clipPath>
</defs>
</svg>
