<svg width="40" height="40" viewBox="0 0 40 40" fill="none" xmlns="http://www.w3.org/2000/svg">
<path d="M7.09961 18.3666V26.6499C7.09961 29.6832 7.09961 29.6832 9.96628 31.6166L17.8496 36.1666C19.0329 36.8499 20.9663 36.8499 22.1496 36.1666L30.0329 31.6166C32.8996 29.6832 32.8996 29.6832 32.8996 26.6499V18.3666C32.8996 15.3332 32.8996 15.3332 30.0329 13.3999L22.1496 8.8499C20.9663 8.16657 19.0329 8.16657 17.8496 8.8499L9.96628 13.3999C7.09961 15.3332 7.09961 15.3332 7.09961 18.3666Z" stroke="#E6AB3D" stroke-width="3" stroke-linecap="round" stroke-linejoin="round"/>
<path d="M29.1663 12.7166V8.33325C29.1663 4.99992 27.4997 3.33325 24.1663 3.33325H15.833C12.4997 3.33325 10.833 4.99992 10.833 8.33325V12.5999" stroke="#E6AB3D" stroke-width="3" stroke-linecap="round" stroke-linejoin="round"/>
<path d="M21.05 18.3166L22 19.7999C22.15 20.0333 22.4833 20.2666 22.7333 20.3333L24.4333 20.7666C25.4833 21.0333 25.7666 21.9333 25.0833 22.7666L23.9666 24.1166C23.8 24.3333 23.6666 24.7166 23.6833 24.9833L23.7833 26.7333C23.85 27.8166 23.0833 28.3666 22.0833 27.9666L20.45 27.3166C20.2 27.2166 19.7833 27.2166 19.5333 27.3166L17.9 27.9666C16.9 28.3666 16.1333 27.7999 16.2 26.7333L16.3 24.9833C16.3166 24.7166 16.1833 24.3166 16.0166 24.1166L14.9 22.7666C14.2166 21.9333 14.5 21.0333 15.55 20.7666L17.25 20.3333C17.5166 20.2666 17.85 20.0166 17.9833 19.7999L18.9333 18.3166C19.5333 17.4166 20.4666 17.4166 21.05 18.3166Z" stroke="#E6AB3D" stroke-width="3" stroke-linecap="round" stroke-linejoin="round"/>
</svg>
