<svg width="78" height="66" viewBox="0 0 78 66" fill="none" xmlns="http://www.w3.org/2000/svg">
<path opacity="0.2" d="M70.3105 22.5582C74.436 37.9547 64.9242 53.8809 49.0654 58.1303C33.2065 62.3796 20.8272 67.6039 12.8805 37.9465C8.75504 22.5499 19.8562 12.5552 35.715 8.30584C51.5738 4.05647 66.185 7.1616 70.3105 22.5582Z" fill="#53DB70"/>
<path d="M63.3105 22.5582C67.436 37.9547 57.9242 53.8809 42.0654 58.1303C26.2065 62.3796 13.8272 67.6039 5.88054 37.9465C1.75504 22.5499 12.8562 12.5552 28.715 8.30584C44.5738 4.05647 59.185 7.1616 63.3105 22.5582Z" fill="url(#paint0_linear_1495_30162)"/>
<path d="M52.1333 28.3002V39.7002C52.1333 41.5668 51.1333 43.3002 49.5166 44.2502L39.6166 49.9669C38 50.9002 36 50.9002 34.3666 49.9669L24.4666 44.2502C22.85 43.3169 21.85 41.5835 21.85 39.7002V28.3002C21.85 26.4336 22.85 24.7002 24.4666 23.7502L34.3666 18.0335C35.9833 17.1002 37.9833 17.1002 39.6166 18.0335L49.5166 23.7502C51.1333 24.7002 52.1333 26.4169 52.1333 28.3002Z" stroke="white" stroke-width="3" stroke-linecap="round" stroke-linejoin="round"/>
<path d="M37 32.3335C39.1447 32.3335 40.8833 30.5949 40.8833 28.4502C40.8833 26.3054 39.1447 24.5669 37 24.5669C34.8553 24.5669 33.1166 26.3054 33.1166 28.4502C33.1166 30.5949 34.8553 32.3335 37 32.3335Z" stroke="white" stroke-width="3" stroke-linecap="round" stroke-linejoin="round"/>
<path d="M43.6666 41.7667C43.6666 38.7667 40.6833 36.3335 37 36.3335C33.3166 36.3335 30.3333 38.7667 30.3333 41.7667" stroke="white" stroke-width="3" stroke-linecap="round" stroke-linejoin="round"/>
<defs>
<linearGradient id="paint0_linear_1495_30162" x1="28.715" y1="8.30585" x2="42.0709" y2="58.1507" gradientUnits="userSpaceOnUse">
<stop stop-color="#5AF27B"/>
<stop offset="1" stop-color="#A9F5BA"/>
</linearGradient>
</defs>
</svg>
