<svg width="78" height="66" viewBox="0 0 78 66" fill="none" xmlns="http://www.w3.org/2000/svg">
<path opacity="0.2" d="M70.3105 21.9464C74.436 37.3429 64.9242 53.2691 49.0654 57.5185C33.2065 61.7678 20.8272 66.9921 12.8805 37.3347C8.75504 21.9381 19.8562 11.9434 35.715 7.69402C51.5738 3.44466 66.185 6.54978 70.3105 21.9464Z" fill="#C766F4"/>
<path d="M63.3105 21.9464C67.436 37.3429 57.9242 53.2691 42.0654 57.5185C26.2065 61.7678 13.8272 66.9921 5.88054 37.3347C1.75504 21.9381 12.8562 11.9434 28.715 7.69402C44.5738 3.44466 59.185 6.54978 63.3105 21.9464Z" fill="url(#paint0_linear_1495_30163)"/>
<path d="M35.2666 30.1168C35.1 30.1002 34.9 30.1002 34.7166 30.1168C30.75 29.9835 27.6 26.7335 27.6 22.7335C27.6 18.6502 30.9 15.3335 35 15.3335C39.0833 15.3335 42.4 18.6502 42.4 22.7335C42.3833 26.7335 39.2333 29.9835 35.2666 30.1168Z" stroke="white" stroke-width="3" stroke-linecap="round" stroke-linejoin="round"/>
<path d="M26.9333 36.2665C22.9 38.9665 22.9 43.3665 26.9333 46.0498C31.5167 49.1165 39.0333 49.1165 43.6167 46.0498C47.65 43.3498 47.65 38.9498 43.6167 36.2665C39.05 33.2165 31.5333 33.2165 26.9333 36.2665Z" stroke="white" stroke-width="3" stroke-linecap="round" stroke-linejoin="round"/>
<defs>
<linearGradient id="paint0_linear_1495_30163" x1="28.715" y1="7.69403" x2="42.0709" y2="57.5389" gradientUnits="userSpaceOnUse">
<stop stop-color="#D177FC"/>
<stop offset="1" stop-color="#F1D2FF"/>
</linearGradient>
</defs>
</svg>
