<svg width="78" height="66" viewBox="0 0 78 66" fill="none" xmlns="http://www.w3.org/2000/svg">
<path opacity="0.2" d="M70.3105 21.9464C74.436 37.3429 64.9242 53.2691 49.0654 57.5185C33.2065 61.7678 20.8272 66.9921 12.8805 37.3347C8.75504 21.9381 19.8562 11.9434 35.715 7.69402C51.5738 3.44466 66.185 6.54978 70.3105 21.9464Z" fill="#8F8CFD"/>
<path d="M63.3105 21.9464C67.436 37.3429 57.9242 53.2691 42.0654 57.5185C26.2065 61.7678 13.8272 66.9921 5.88054 37.3347C1.75504 21.9381 12.8562 11.9434 28.715 7.69402C44.5738 3.44466 59.185 6.54978 63.3105 21.9464Z" fill="url(#paint0_linear_1495_30165)"/>
<path d="M20 28.1833V37.7999C20 41.3333 20 41.3333 23.3333 43.5833L32.5 48.8833C33.8833 49.6833 36.1333 49.6833 37.5 48.8833L46.6667 43.5833C50 41.3333 50 41.3333 50 37.8166V28.1833C50 24.6666 50 24.6666 46.6667 22.4166L37.5 17.1166C36.1333 16.3166 33.8833 16.3166 32.5 17.1166L23.3333 22.4166C20 24.6666 20 24.6666 20 28.1833Z" stroke="white" stroke-width="3" stroke-linecap="round" stroke-linejoin="round"/>
<path d="M35 38C37.7614 38 40 35.7614 40 33C40 30.2386 37.7614 28 35 28C32.2386 28 30 30.2386 30 33C30 35.7614 32.2386 38 35 38Z" stroke="white" stroke-width="3" stroke-linecap="round" stroke-linejoin="round"/>
<defs>
<linearGradient id="paint0_linear_1495_30165" x1="28.715" y1="7.69403" x2="42.0709" y2="57.5389" gradientUnits="userSpaceOnUse">
<stop stop-color="#7D7BFC"/>
<stop offset="1" stop-color="#DFDEFF"/>
</linearGradient>
</defs>
</svg>
