<svg width="78" height="66" viewBox="0 0 78 66" fill="none" xmlns="http://www.w3.org/2000/svg">
<path opacity="0.2" d="M70.3105 21.9464C74.436 37.3429 64.9242 53.2691 49.0654 57.5185C33.2065 61.7678 20.8272 66.9921 12.8805 37.3347C8.75504 21.9381 19.8562 11.9434 35.715 7.69402C51.5738 3.44466 66.185 6.54978 70.3105 21.9464Z" fill="#65E5F4"/>
<path d="M63.3105 21.9464C67.436 37.3429 57.9242 53.2691 42.0654 57.5185C26.2065 61.7678 13.8272 66.9921 5.88054 37.3347C1.75504 21.9381 12.8562 11.9434 28.715 7.69402C44.5738 3.44466 59.185 6.54978 63.3105 21.9464Z" fill="url(#paint0_linear_1495_30166)"/>
<path d="M24.1 31.3666V39.6499C24.1 42.6832 24.1 42.6832 26.9666 44.6166L34.85 49.1666C36.0333 49.8499 37.9666 49.8499 39.15 49.1666L47.0333 44.6166C49.9 42.6832 49.9 42.6832 49.9 39.6499V31.3666C49.9 28.3332 49.9 28.3332 47.0333 26.3999L39.15 21.8499C37.9666 21.1666 36.0333 21.1666 34.85 21.8499L26.9666 26.3999C24.1 28.3332 24.1 28.3332 24.1 31.3666Z" stroke="white" stroke-width="3" stroke-linecap="round" stroke-linejoin="round"/>
<path d="M46.1667 25.7168V21.3335C46.1667 18.0002 44.5 16.3335 41.1667 16.3335H32.8334C29.5 16.3335 27.8334 18.0002 27.8334 21.3335V25.6002" stroke="white" stroke-width="3" stroke-linecap="round" stroke-linejoin="round"/>
<path d="M38.05 31.3166L39 32.7999C39.15 33.0333 39.4833 33.2666 39.7333 33.3333L41.4333 33.7666C42.4833 34.0333 42.7666 34.9333 42.0833 35.7666L40.9666 37.1166C40.8 37.3333 40.6666 37.7166 40.6833 37.9833L40.7833 39.7333C40.85 40.8166 40.0833 41.3666 39.0833 40.9666L37.45 40.3166C37.2 40.2166 36.7833 40.2166 36.5333 40.3166L34.9 40.9666C33.9 41.3666 33.1333 40.7999 33.2 39.7333L33.3 37.9833C33.3166 37.7166 33.1833 37.3166 33.0166 37.1166L31.9 35.7666C31.2166 34.9333 31.5 34.0333 32.55 33.7666L34.25 33.3333C34.5166 33.2666 34.85 33.0166 34.9833 32.7999L35.9333 31.3166C36.5333 30.4166 37.4666 30.4166 38.05 31.3166Z" stroke="white" stroke-width="3" stroke-linecap="round" stroke-linejoin="round"/>
<defs>
<linearGradient id="paint0_linear_1495_30166" x1="28.715" y1="7.69403" x2="42.0709" y2="57.5389" gradientUnits="userSpaceOnUse">
<stop stop-color="#49E3F4"/>
<stop offset="1" stop-color="#C5F9FF"/>
</linearGradient>
</defs>
</svg>
