<svg width="20" height="21" viewBox="0 0 20 21" fill="none" xmlns="http://www.w3.org/2000/svg">
<path fill-rule="evenodd" clip-rule="evenodd" d="M2.4913 4.87582C2.7549 4.43842 4.20816 2.85059 5.24376 2.89852C5.55358 2.92506 5.82746 3.11166 6.04998 3.32908H6.05084C6.56093 3.82897 8.02446 5.71553 8.10662 6.11271C8.30946 7.0868 7.14806 7.64832 7.50324 8.63013C8.40874 10.8462 9.96899 12.4067 12.1857 13.3114C13.1665 13.6675 13.7279 12.5068 14.7019 12.7088C15.099 12.7919 16.9862 14.2547 17.4852 14.7657V14.7657C17.7017 14.9874 17.89 15.2622 17.9157 15.5721C17.9542 16.6634 16.2682 18.1366 15.9395 18.3249C15.1641 18.8804 14.1525 18.8701 12.9192 18.2966C9.47772 16.8646 3.97793 11.4677 2.51954 7.8957C1.96152 6.66909 1.92386 5.65048 2.4913 4.87582Z" stroke="#6DBDFA" stroke-width="1.5" stroke-linecap="round" stroke-linejoin="round"/>
<path d="M12.1377 3.10602C15.2227 3.44859 17.6585 5.88246 18.0052 8.96731" stroke="#6DBDFA" stroke-width="1.5" stroke-linecap="round" stroke-linejoin="round"/>
<path d="M12.1377 6.05878C13.6127 6.34634 14.7652 7.49909 15.0527 8.97442" stroke="#6DBDFA" stroke-width="1.5" stroke-linecap="round" stroke-linejoin="round"/>
</svg>
