<svg width="50" height="50" viewBox="0 0 50 50" fill="none" xmlns="http://www.w3.org/2000/svg">
<path d="M45.7712 38.1876C45.7712 38.9376 45.6045 39.7084 45.2503 40.4584C44.8962 41.2084 44.4378 41.9167 43.8337 42.5834C42.8128 43.7084 41.6878 44.5209 40.417 45.0417C39.167 45.5626 37.8128 45.8334 36.3545 45.8334C34.2295 45.8334 31.9587 45.3334 29.5628 44.3126C27.167 43.2917 24.7712 41.9167 22.3962 40.1876C20.0003 38.4376 17.7295 36.5001 15.5628 34.3542C13.417 32.1876 11.4795 29.9167 9.75032 27.5417C8.04199 25.1667 6.66699 22.7917 5.66699 20.4376C4.66699 18.0626 4.16699 15.7917 4.16699 13.6251C4.16699 12.2084 4.41699 10.8542 4.91699 9.60425C5.41699 8.33341 6.20866 7.16675 7.31283 6.12508C8.64616 4.81258 10.1045 4.16675 11.6462 4.16675C12.2295 4.16675 12.8128 4.29175 13.3337 4.54175C13.8753 4.79175 14.3545 5.16675 14.7295 5.70841L19.5628 12.5209C19.9378 13.0417 20.2087 13.5209 20.3962 13.9792C20.5837 14.4167 20.6878 14.8542 20.6878 15.2501C20.6878 15.7501 20.542 16.2501 20.2503 16.7292C19.9795 17.2084 19.5837 17.7084 19.0837 18.2084L17.5003 19.8542C17.2712 20.0834 17.167 20.3542 17.167 20.6876C17.167 20.8542 17.1878 21.0001 17.2295 21.1667C17.292 21.3334 17.3545 21.4584 17.3962 21.5834C17.7712 22.2709 18.417 23.1667 19.3337 24.2501C20.2712 25.3334 21.2712 26.4376 22.3545 27.5417C23.4795 28.6459 24.5628 29.6667 25.667 30.6042C26.7503 31.5209 27.6462 32.1459 28.3545 32.5209C28.4587 32.5626 28.5837 32.6251 28.7295 32.6876C28.8962 32.7501 29.0628 32.7709 29.2503 32.7709C29.6045 32.7709 29.8753 32.6459 30.1045 32.4167L31.6878 30.8542C32.2087 30.3334 32.7087 29.9376 33.1878 29.6876C33.667 29.3959 34.1462 29.2501 34.667 29.2501C35.0628 29.2501 35.4795 29.3334 35.9378 29.5209C36.3962 29.7084 36.8753 29.9792 37.3962 30.3334L44.292 35.2292C44.8337 35.6042 45.2087 36.0417 45.4378 36.5626C45.6462 37.0834 45.7712 37.6042 45.7712 38.1876Z" stroke="#E96AE4" stroke-width="3" stroke-miterlimit="10"/>
<path d="M38.5417 18.7502C38.5417 17.5002 37.5625 15.5835 36.1042 14.021C34.7708 12.5835 33 11.4585 31.25 11.4585" stroke="#E96AE4" stroke-width="3" stroke-linecap="round" stroke-linejoin="round"/>
<path d="M45.8333 18.7501C45.8333 10.6876 39.3125 4.16675 31.25 4.16675" stroke="#E96AE4" stroke-width="3" stroke-linecap="round" stroke-linejoin="round"/>
</svg>
