<svg width="22" height="22" viewBox="0 0 22 22" fill="none" xmlns="http://www.w3.org/2000/svg">
<path opacity="0.4" d="M18.7917 9.34081H16.1425C13.97 9.34081 12.2009 7.57165 12.2009 5.39915V2.74998C12.2009 2.24581 11.7884 1.83331 11.2842 1.83331H7.39752C4.57419 1.83331 2.29169 3.66665 2.29169 6.93915V15.0608C2.29169 18.3333 4.57419 20.1666 7.39752 20.1666H14.6025C17.4259 20.1666 19.7084 18.3333 19.7084 15.0608V10.2575C19.7084 9.75331 19.2959 9.34081 18.7917 9.34081Z" fill="#E6AB3D"/>
<path d="M14.4833 2.02585C14.1075 1.65001 13.4567 1.90668 13.4567 2.42918V5.62835C13.4567 6.96668 14.5933 8.07585 15.9775 8.07585C16.8483 8.08501 18.0583 8.08501 19.0942 8.08501C19.6167 8.08501 19.8917 7.47085 19.525 7.10418C18.205 5.77501 15.84 3.38251 14.4833 2.02585Z" fill="#E6AB3D"/>
<path d="M12.375 12.6042H6.875C6.49917 12.6042 6.1875 12.2925 6.1875 11.9167C6.1875 11.5409 6.49917 11.2292 6.875 11.2292H12.375C12.7508 11.2292 13.0625 11.5409 13.0625 11.9167C13.0625 12.2925 12.7508 12.6042 12.375 12.6042Z" fill="#E6AB3D"/>
<path d="M10.5417 16.2708H6.875C6.49917 16.2708 6.1875 15.9591 6.1875 15.5833C6.1875 15.2075 6.49917 14.8958 6.875 14.8958H10.5417C10.9175 14.8958 11.2292 15.2075 11.2292 15.5833C11.2292 15.9591 10.9175 16.2708 10.5417 16.2708Z" fill="#E6AB3D"/>
</svg>
