<svg width="24" height="24" viewBox="0 0 24 24" fill="none" xmlns="http://www.w3.org/2000/svg">
<path opacity="0.4" d="M17.52 15.84C17.41 14.62 17.08 13.31 14.7 13.31H5.22998C2.84998 13.31 2.52999 14.62 2.40999 15.84L1.98999 20.36C1.93999 20.92 2.12998 21.49 2.50998 21.91C2.89998 22.34 3.45998 22.59 4.04998 22.59H5.43998C6.63998 22.59 6.86999 21.9 7.01999 21.45L7.16998 21.01C7.33998 20.5 7.37998 20.37 8.04998 20.37H11.85C12.51 20.37 12.54 20.44 12.73 21.01L12.88 21.46C13.03 21.91 13.26 22.6 14.46 22.6H15.85C16.44 22.6 17 22.35 17.39 21.92C17.77 21.5 17.96 20.93 17.91 20.37L17.52 15.84Z" fill="#E6AB3D"/>
<path d="M16.65 11.09H15.91C15.9 11.09 15.9 11.09 15.89 11.09L15.61 9.73999C15.34 8.43999 14.79 7.25 12.58 7.25H10.53H9.41998H7.36998C5.15998 7.25 4.59998 8.43999 4.33998 9.73999L4.05998 11.09C4.04998 11.09 4.04998 11.09 4.03998 11.09H3.29999C2.98999 11.09 2.73999 11.34 2.73999 11.65C2.73999 11.96 2.98999 12.21 3.29999 12.21H3.82999L3.51999 13.69C3.91999 13.46 4.47998 13.32 5.24998 13.32H14.72C15.49 13.32 16.05 13.46 16.45 13.69L16.14 12.21H16.67C16.98 12.21 17.23 11.96 17.23 11.65C17.21 11.34 16.96 11.09 16.65 11.09Z" fill="#E6AB3D"/>
<path d="M7.74995 17.39H5.51996C5.20996 17.39 4.95996 17.14 4.95996 16.83C4.95996 16.52 5.20996 16.27 5.51996 16.27H7.74995C8.05995 16.27 8.30995 16.52 8.30995 16.83C8.29995 17.14 8.05995 17.39 7.74995 17.39Z" fill="#E6AB3D"/>
<path d="M14.43 17.39H12.2C11.89 17.39 11.64 17.14 11.64 16.83C11.64 16.52 11.89 16.27 12.2 16.27H14.43C14.74 16.27 14.99 16.52 14.99 16.83C14.98 17.14 14.73 17.39 14.43 17.39Z" fill="#E6AB3D"/>
<circle cx="17" cy="11" r="5" fill="white"/>
<path opacity="0.4" d="M12.8333 11.3667V10.6333C12.8333 10.2 13.1875 9.84168 13.625 9.84168C14.3791 9.84168 14.6875 9.30835 14.3083 8.65418C14.0916 8.27918 14.2208 7.79168 14.6 7.57501L15.3208 7.16251C15.65 6.96668 16.075 7.08335 16.2708 7.41251L16.3166 7.49168C16.6916 8.14585 17.3083 8.14585 17.6875 7.49168L17.7333 7.41251C17.9291 7.08335 18.3541 6.96668 18.6833 7.16251L19.4041 7.57501C19.7833 7.79168 19.9125 8.27918 19.6958 8.65418C19.3166 9.30835 19.625 9.84168 20.3791 9.84168C20.8125 9.84168 21.1708 10.1958 21.1708 10.6333V11.3667C21.1708 11.8 20.8166 12.1583 20.3791 12.1583C19.625 12.1583 19.3166 12.6917 19.6958 13.3458C19.9125 13.725 19.7833 14.2083 19.4041 14.425L18.6833 14.8375C18.3541 15.0333 17.9291 14.9167 17.7333 14.5875L17.6875 14.5083C17.3125 13.8542 16.6958 13.8542 16.3166 14.5083L16.2708 14.5875C16.075 14.9167 15.65 15.0333 15.3208 14.8375L14.6 14.425C14.2208 14.2083 14.0916 13.7208 14.3083 13.3458C14.6875 12.6917 14.3791 12.1583 13.625 12.1583C13.1875 12.1583 12.8333 11.8 12.8333 11.3667Z" fill="#E6AB3D"/>
<path d="M17 12.3541C17.7479 12.3541 18.3541 11.7479 18.3541 11C18.3541 10.2521 17.7479 9.64581 17 9.64581C16.2521 9.64581 15.6458 10.2521 15.6458 11C15.6458 11.7479 16.2521 12.3541 17 12.3541Z" fill="#E6AB3D"/>
</svg>
