<svg width="40" height="40" viewBox="0 0 40 40" fill="none" xmlns="http://www.w3.org/2000/svg">
<path d="M5.8335 36.6667V8.33337C5.8335 5.00004 8.06683 3.33337 10.8335 3.33337H24.1668C26.9335 3.33337 29.1668 5.00004 29.1668 8.33337V36.6667H5.8335Z" stroke="#E6AB3D" stroke-width="3" stroke-linecap="round" stroke-linejoin="round"/>
<path d="M3.3335 36.6666H31.6668" stroke="#E6AB3D" stroke-width="3" stroke-linecap="round" stroke-linejoin="round"/>
<path d="M13.9835 16.6666H21.0335C22.7668 16.6666 24.1835 15.8333 24.1835 13.5166V11.4666C24.1835 9.14998 22.7668 8.31665 21.0335 8.31665H13.9835C12.2502 8.31665 10.8335 9.14998 10.8335 11.4666V13.5166C10.8335 15.8333 12.2502 16.6666 13.9835 16.6666Z" stroke="#E6AB3D" stroke-width="3" stroke-linecap="round" stroke-linejoin="round"/>
<path d="M10.8335 21.6666H15.8335" stroke="#E6AB3D" stroke-width="1.5" stroke-linecap="round" stroke-linejoin="round"/>
<path d="M29.1665 26.6833L36.6665 26.6667V16.6667L33.3332 15" stroke="#E6AB3D" stroke-width="3" stroke-linecap="round" stroke-linejoin="round"/>
</svg>
