<svg width="18" height="19" viewBox="0 0 18 19" fill="none" xmlns="http://www.w3.org/2000/svg">
<path d="M16.5 9.5C16.5 5.36 13.14 2 9 2C4.86 2 1.5 5.36 1.5 9.5C1.5 13.64 4.86 17 9 17" stroke="white" stroke-width="1.5" stroke-linecap="round" stroke-linejoin="round"/>
<path d="M6.0002 2.75H6.7502C5.2877 7.13 5.2877 11.87 6.7502 16.25H6.0002" stroke="white" stroke-width="1.5" stroke-linecap="round" stroke-linejoin="round"/>
<path d="M11.25 2.75C11.9775 4.94 12.345 7.22 12.345 9.5" stroke="white" stroke-width="1.5" stroke-linecap="round" stroke-linejoin="round"/>
<path d="M2.25 12.5V11.75C4.44 12.4775 6.72 12.845 9 12.845" stroke="white" stroke-width="1.5" stroke-linecap="round" stroke-linejoin="round"/>
<path d="M2.25 7.24995C6.63 5.78745 11.37 5.78745 15.75 7.24995" stroke="white" stroke-width="1.5" stroke-linecap="round" stroke-linejoin="round"/>
<path d="M13.65 16.55C14.9755 16.55 16.05 15.4755 16.05 14.15C16.05 12.8245 14.9755 11.75 13.65 11.75C12.3245 11.75 11.25 12.8245 11.25 14.15C11.25 15.4755 12.3245 16.55 13.65 16.55Z" stroke="white" stroke-width="1.5" stroke-linecap="round" stroke-linejoin="round"/>
<path d="M16.5 17L15.75 16.25" stroke="white" stroke-width="1.5" stroke-linecap="round" stroke-linejoin="round"/>
</svg>
