<svg width="20" height="21" viewBox="0 0 20 21" fill="none" xmlns="http://www.w3.org/2000/svg">
<path d="M6.34985 5.37313C6.55045 4.33074 6.82388 3.39463 7.14985 2.60298C7.50926 1.72776 7.92359 1.05791 8.35344 0.617313C8.7809 0.17791 9.18568 0 9.55224 0C9.91881 0 10.3236 0.17791 10.751 0.617313C11.1809 1.0591 11.5952 1.72776 11.9546 2.60298C12.2806 3.39463 12.554 4.33074 12.7546 5.37313H6.34985ZM6.04538 2.14925C6.30025 1.50672 6.6318 0.897332 7.03284 0.334328C5.72072 0.694559 4.50043 1.33028 3.45328 2.19913C2.40613 3.06798 1.55616 4.15001 0.960006 5.37313H5.13553C5.35284 4.17074 5.66209 3.07821 6.04538 2.14925V2.14925ZM13.0591 2.14925C12.8041 1.50715 12.4726 0.898164 12.0716 0.335522C13.3837 0.69562 14.6039 1.33116 15.651 2.1998C16.6982 3.06843 17.5482 4.15023 18.1445 5.37313H13.969C13.7516 4.17074 13.4424 3.07821 13.0591 2.14925V2.14925ZM14.1493 6.56716H18.6293C18.9567 7.56485 19.1173 8.60973 19.1045 9.6597C18.4477 9.1105 17.6735 8.71948 16.8417 8.51681C16.0099 8.31413 15.1427 8.30522 14.3069 8.49074C14.2803 7.84769 14.2277 7.20597 14.1493 6.56716V6.56716ZM9.86627 13.7313C9.85605 13.8732 9.85087 14.0154 9.85075 14.1576C9.85075 15.4591 10.3451 16.7081 11.2155 17.9116C11.0775 18.1165 10.9221 18.309 10.751 18.4872C10.3236 18.9266 9.91881 19.1045 9.55224 19.1045C9.18568 19.1045 8.7809 18.9266 8.35344 18.4872C7.92359 18.0454 7.50926 17.3767 7.14866 16.5015C6.79153 15.6068 6.52395 14.6788 6.34985 13.7313H9.86627V13.7313ZM10.0764 12.5373C10.2985 11.7497 10.6851 11.0181 11.2108 10.391C11.7365 9.76384 12.3893 9.25535 13.126 8.8991C13.1061 8.11924 13.0463 7.34091 12.9469 6.56716H6.15762C6.03101 7.55712 5.9684 8.55422 5.97015 9.55224C5.97015 10.597 6.03702 11.5988 6.15881 12.5373H10.0752H10.0764ZM0.960006 13.7313C1.55642 14.9544 2.40664 16.0362 3.454 16.9049C4.50135 17.7735 5.72181 18.409 7.03403 18.7689C6.63274 18.2068 6.30078 17.5982 6.04538 16.9564C5.66329 16.0251 5.35284 14.9337 5.13553 13.7313H0.960006V13.7313ZM4.95523 12.5373H0.47523C0.15924 11.5739 -0.00118038 10.5662 6.53822e-06 9.55224C6.53822e-06 8.50985 0.167171 7.50686 0.47523 6.56716H4.95523C4.83821 7.51642 4.77612 8.51821 4.77612 9.55224C4.77612 10.5863 4.83821 11.5881 4.95523 12.5373ZM15.5224 9.55224C17.9952 9.55224 20 11.6143 20 14.1576C20 16.0645 18.5875 18.0621 15.8209 20.1958C15.7356 20.2622 15.6305 20.2983 15.5224 20.2983C15.4143 20.2983 15.3092 20.2622 15.2239 20.1958C12.4573 18.0621 11.0448 16.0645 11.0448 14.1576C11.0448 11.6143 13.0496 9.55224 15.5224 9.55224ZM15.5224 12.6221C14.6985 12.6221 14.0299 13.3098 14.0299 14.1576C14.0299 15.0054 14.6985 15.6931 15.5224 15.6931C16.3463 15.6931 17.0149 15.0054 17.0149 14.1576C17.0149 13.3098 16.3463 12.6221 15.5224 12.6221Z" fill="#E6AB3D"/>
</svg>
