<svg width="160" height="50" viewBox="0 0 160 50" fill="none" xmlns="http://www.w3.org/2000/svg">
<path d="M20.332 44.2092C19.9138 44.0162 19.6242 43.9197 19.399 43.7589C13.1901 40.4131 7.01325 37.0995 0.804272 33.7859C0.225196 33.4642 0 33.1425 0 32.4669C0.0321709 25.5823 -4.91368e-07 18.6977 0.0321704 11.8132C0.0321704 11.395 0.38605 10.8159 0.73993 10.5907C6.85239 7.08407 12.9649 3.60962 19.1095 0.167333C19.4634 -0.0256918 20.1068 -0.0578629 20.4285 0.102991C26.6696 3.64179 32.8786 7.14841 39.0876 10.6872C39.2163 10.7515 39.3128 10.8481 39.5058 11.0089C35.967 13.0357 32.4604 15.0303 28.9538 16.9927C26.3801 18.4404 23.8064 19.9202 21.2006 21.3679C20.5572 21.7218 20.332 22.14 20.332 22.88C20.3642 29.5393 20.3642 36.1987 20.3642 42.8259C20.332 43.2441 20.332 43.6623 20.332 44.2092ZM1.09381 11.588C1.02947 12.0384 0.997296 12.1992 0.997296 12.3923C0.997296 18.8908 0.965126 25.3893 1.02947 31.92C1.02947 32.3382 1.44769 32.8851 1.80157 33.1103C7.27061 36.1022 12.7718 39.0619 18.2731 42.0216C18.5304 42.1503 18.82 42.2468 19.2382 42.4077C19.2703 41.8929 19.3025 41.4747 19.3025 41.0887C19.3025 35.0727 19.2703 29.0568 19.3347 23.073C19.3347 22.1722 19.013 21.7218 18.2731 21.3036C14.0908 18.9873 9.9408 16.5745 5.75858 14.226C4.24655 13.3574 2.76669 12.5209 1.09381 11.588ZM19.206 20.628C19.206 14.0973 19.206 7.824 19.206 1.29331C13.4474 4.54257 7.88186 7.69532 2.12328 10.9767C7.88186 14.226 13.4474 17.3787 19.206 20.628ZM20.3963 20.6602C26.1549 17.3787 31.7205 14.226 37.4791 10.9767C31.6883 7.69532 26.1227 4.54257 20.3963 1.29331C20.3963 7.824 20.3963 14.0973 20.3963 20.6602Z" fill="#E2AD34"/>
<path d="M1.09383 11.588C2.73455 12.521 4.24658 13.3252 5.72644 14.1939C9.90865 16.5423 14.0587 18.9551 18.2409 21.2714C18.9808 21.6897 19.3025 22.1401 19.3025 23.0408C19.2704 29.0568 19.2704 35.0727 19.2704 41.0565C19.2704 41.4426 19.2382 41.8608 19.206 42.3755C18.7878 42.2147 18.4983 42.1182 18.2409 41.9895C12.7397 39.0298 7.23847 36.07 1.76942 33.0782C1.38337 32.8851 0.997319 32.306 0.997319 31.8878C0.965148 25.3893 0.965149 18.8908 0.965149 12.3601C0.99732 12.1993 1.02949 12.0384 1.09383 11.588Z" fill="#444143"/>
<path d="M19.206 20.628C13.4474 17.3788 7.88188 14.226 2.12329 10.9768C7.88188 7.69534 13.4474 4.54259 19.206 1.29333C19.206 7.82402 19.206 14.0973 19.206 20.628Z" fill="#444143"/>
<path d="M20.3964 20.6602C20.3964 14.0973 20.3964 7.82402 20.3964 1.29333C26.1228 4.54259 31.6883 7.69534 37.4791 10.9768C31.7205 14.226 26.1549 17.3788 20.3964 20.6602Z" fill="#444143"/>
<path d="M30.5623 25.7753C29.3398 25.7753 28.3425 25.0998 28.0852 24.199C28.053 24.3277 28.0208 24.4563 28.0208 24.6172V43.2763C28.0208 44.3701 29.1468 45.2387 30.5623 45.2387C31.9457 45.2387 33.1038 44.3701 33.1038 43.2763V24.6172C33.1038 24.4885 33.0716 24.3277 33.0395 24.199C32.7821 25.0998 31.7848 25.7753 30.5623 25.7753Z" fill="#E2AD34"/>
<path d="M30.5945 24.2311C31.8027 24.2311 32.7821 23.2517 32.7821 22.0435C32.7821 20.8353 31.8027 19.8559 30.5945 19.8559C29.3863 19.8559 28.4069 20.8353 28.4069 22.0435C28.4069 23.2517 29.3863 24.2311 30.5945 24.2311Z" fill="#444143"/>
<path d="M39.9241 44.6596C39.731 44.6596 39.5702 44.5953 39.4415 44.4666C39.3128 44.3379 39.2485 44.1771 39.2485 43.984V30.7297C39.2485 30.5366 39.3128 30.3758 39.4415 30.2471C39.5702 30.1184 39.731 30.0541 39.9241 30.0541H42.2404C42.4334 30.0541 42.5942 30.1184 42.7229 30.2471C42.8516 30.3758 42.916 30.5366 42.916 30.7297V31.8878C43.3985 31.2766 44.0098 30.794 44.7819 30.3758C45.554 29.9897 46.4869 29.7645 47.6129 29.7645C48.7389 29.7645 49.7362 30.0219 50.5726 30.5366C51.4091 31.0514 52.0525 31.7913 52.535 32.7242C52.9854 33.6572 53.2106 34.7832 53.2106 36.1022V43.984C53.2106 44.1771 53.1463 44.3379 53.0176 44.4666C52.8889 44.5953 52.7281 44.6596 52.535 44.6596H50.0579C49.8649 44.6596 49.704 44.5953 49.5753 44.4666C49.4466 44.3379 49.3823 44.1771 49.3823 43.984V36.263C49.3823 35.1692 49.1249 34.3328 48.578 33.7215C48.0311 33.1103 47.259 32.7886 46.2617 32.7886C45.2966 32.7886 44.5245 33.1103 43.9454 33.7215C43.3663 34.3328 43.0768 35.2014 43.0768 36.263V43.984C43.0768 44.1771 43.0125 44.3379 42.8838 44.4666C42.7551 44.5953 42.5942 44.6596 42.4012 44.6596H39.9241V44.6596Z" fill="#444143"/>
<path d="M61.4785 44.6597C61.189 44.6597 60.9638 44.5953 60.8351 44.4345C60.7064 44.2736 60.5777 44.1449 60.4812 43.9519L55.2374 30.9549C55.2052 30.8583 55.173 30.7618 55.173 30.6975C55.173 30.5366 55.2374 30.3758 55.3661 30.2471C55.4947 30.1184 55.6234 30.0541 55.8165 30.0541H58.1006C58.3258 30.0541 58.4866 30.1184 58.6153 30.2471C58.7118 30.3758 58.8083 30.4723 58.8405 30.601L62.5723 40.4453L66.3042 30.601C66.3363 30.5045 66.4007 30.3758 66.5294 30.2471C66.6259 30.1184 66.8189 30.0541 67.0441 30.0541H69.3604C69.5212 30.0541 69.6499 30.1184 69.7786 30.2471C69.9073 30.3758 69.9716 30.5045 69.9716 30.6975C69.9716 30.7618 69.9716 30.8583 69.9395 30.9549L64.6634 43.9841C64.5991 44.1771 64.4704 44.3379 64.3417 44.4666C64.1809 44.5953 63.9557 44.6918 63.6661 44.6918H61.4785V44.6597Z" fill="#444143"/>
<path d="M78.1752 44.9492C76.0841 44.9492 74.4434 44.3379 73.2209 43.1476C71.9984 41.9573 71.355 40.2522 71.2585 38.0324C71.2263 37.8394 71.2263 37.6142 71.2263 37.3247C71.2263 37.0351 71.2263 36.8099 71.2585 36.6491C71.3228 35.2336 71.6445 34.0111 72.2236 32.9816C72.8027 31.9521 73.5748 31.18 74.6043 30.6331C75.6016 30.0862 76.7919 29.7967 78.1752 29.7967C79.6873 29.7967 80.9741 30.1184 82.0036 30.7296C83.033 31.3409 83.8051 32.2417 84.3199 33.3355C84.8346 34.4615 85.092 35.7483 85.092 37.196V37.7751C85.092 37.9681 85.0276 38.1289 84.8989 38.2576C84.7703 38.3863 84.6094 38.4507 84.3842 38.4507H75.0546C75.0546 38.5472 75.0546 38.6437 75.0546 38.6759C75.0868 39.3193 75.1833 39.9305 75.4407 40.4774C75.6659 41.0243 76.0198 41.4747 76.4702 41.7964C76.9206 42.1181 77.4675 42.3112 78.1109 42.3112C78.6256 42.3112 79.076 42.2468 79.4299 42.086C79.7838 41.9251 80.0733 41.7321 80.2985 41.5391C80.5237 41.346 80.6846 41.153 80.7811 41.0243C80.9419 40.7991 81.0706 40.6704 81.1993 40.6061C81.2958 40.5739 81.4567 40.5418 81.6497 40.5418H84.0625C84.2555 40.5418 84.4164 40.6061 84.5129 40.7026C84.6416 40.7991 84.6737 40.96 84.6737 41.1208C84.6416 41.4104 84.5129 41.7964 84.2233 42.2146C83.9338 42.6329 83.5156 43.0511 82.9687 43.4693C82.4218 43.8875 81.7462 44.2092 80.9419 44.4988C80.1698 44.8205 79.2369 44.9492 78.1752 44.9492ZM75.0868 36.1022H81.2958V36.0057C81.2958 35.2657 81.1671 34.6223 80.9419 34.0754C80.6846 33.5285 80.3307 33.0781 79.8803 32.7886C79.3977 32.4669 78.8508 32.3382 78.2074 32.3382C77.564 32.3382 76.9849 32.499 76.5345 32.7886C76.0519 33.1103 75.7302 33.5285 75.4729 34.0754C75.2477 34.6223 75.119 35.2657 75.119 36.0057V36.1022H75.0868Z" fill="#444143"/>
<path d="M88.7594 44.6596C88.5664 44.6596 88.4055 44.5953 88.2768 44.4666C88.1481 44.3379 88.0838 44.1771 88.0838 43.984V30.7297C88.0838 30.5366 88.1481 30.3758 88.2768 30.2471C88.4055 30.1184 88.5664 30.0541 88.7594 30.0541H91.0757C91.2687 30.0541 91.4296 30.1184 91.5583 30.2471C91.6869 30.3758 91.7513 30.5366 91.7513 30.7297V31.8878C92.2339 31.2766 92.8451 30.794 93.6172 30.3758C94.3893 29.9897 95.3222 29.7645 96.4482 29.7645C97.5742 29.7645 98.5715 30.0219 99.4079 30.5366C100.244 31.0514 100.888 31.7913 101.37 32.7242C101.821 33.6572 102.046 34.7832 102.046 36.1022V43.984C102.046 44.1771 101.982 44.3379 101.853 44.4666C101.724 44.5953 101.563 44.6596 101.37 44.6596H98.8932C98.7002 44.6596 98.5393 44.5953 98.4107 44.4666C98.282 44.3379 98.2176 44.1771 98.2176 43.984V36.263C98.2176 35.1692 97.9603 34.3328 97.4134 33.7215C96.8664 33.1103 96.0944 32.7886 95.0971 32.7886C94.1319 32.7886 93.3598 33.1103 92.7807 33.7215C92.2017 34.3328 91.9121 35.2014 91.9121 36.263V43.984C91.9121 44.1771 91.8478 44.3379 91.7191 44.4666C91.5904 44.5953 91.4296 44.6596 91.2366 44.6596H88.7594V44.6596Z" fill="#444143"/>
<path d="M112.019 44.6596C110.893 44.6596 109.96 44.4666 109.188 44.0805C108.416 43.6945 107.837 43.1154 107.483 42.3111C107.097 41.539 106.936 40.5739 106.936 39.4158V33.0459H104.716C104.523 33.0459 104.362 32.9816 104.234 32.8529C104.105 32.7242 104.041 32.5634 104.041 32.3382V30.7296C104.041 30.5366 104.105 30.3758 104.234 30.2471C104.362 30.1184 104.523 30.054 104.716 30.054H106.936V25.3893C106.936 25.1962 107 25.0354 107.129 24.9067C107.258 24.778 107.419 24.7137 107.612 24.7137H109.896C110.089 24.7137 110.25 24.778 110.378 24.9067C110.507 25.0354 110.571 25.1962 110.571 25.3893V30.054H114.046C114.239 30.054 114.4 30.1184 114.528 30.2471C114.657 30.3758 114.721 30.5366 114.721 30.7296V32.3382C114.721 32.5312 114.657 32.7242 114.528 32.8529C114.4 32.9816 114.239 33.0459 114.046 33.0459H110.539V39.1262C110.539 39.8983 110.668 40.4774 110.957 40.9278C111.215 41.346 111.697 41.5712 112.373 41.5712H114.303C114.496 41.5712 114.657 41.6356 114.786 41.7642C114.914 41.8929 114.979 42.0538 114.979 42.2468V43.984C114.979 44.1771 114.914 44.3379 114.786 44.4666C114.657 44.5953 114.496 44.6596 114.303 44.6596H112.019V44.6596Z" fill="#444143"/>
<path d="M123.922 44.9492C122.41 44.9492 121.155 44.6918 120.158 44.1771C119.129 43.6623 118.357 42.9224 117.842 41.9573C117.327 40.9921 117.005 39.8983 116.941 38.6115C116.909 38.2898 116.909 37.8716 116.909 37.389C116.909 36.9064 116.909 36.4882 116.941 36.1665C117.005 34.8797 117.327 33.7537 117.874 32.8207C118.421 31.8878 119.225 31.1479 120.223 30.6331C121.252 30.1184 122.474 29.861 123.954 29.861C125.402 29.861 126.657 30.1184 127.686 30.6331C128.716 31.1479 129.488 31.8878 130.035 32.8207C130.582 33.7537 130.903 34.8797 130.968 36.1665C131 36.4882 131 36.9064 131 37.389C131 37.8716 131 38.2898 130.968 38.6115C130.903 39.8983 130.582 40.9921 130.067 41.9573C129.552 42.9224 128.748 43.6623 127.751 44.1771C126.689 44.6918 125.434 44.9492 123.922 44.9492ZM123.922 42.1825C124.919 42.1825 125.692 41.8608 126.238 41.2495C126.785 40.6383 127.075 39.7053 127.139 38.4828C127.171 38.1933 127.171 37.8394 127.171 37.389C127.171 36.9386 127.171 36.5847 127.139 36.2952C127.075 35.0727 126.785 34.1719 126.238 33.5285C125.692 32.9173 124.919 32.5955 123.922 32.5955C122.925 32.5955 122.153 32.9173 121.606 33.5285C121.059 34.1397 120.769 35.0727 120.705 36.2952C120.673 36.5847 120.673 36.9386 120.673 37.389C120.673 37.8394 120.673 38.1933 120.705 38.4828C120.769 39.7053 121.059 40.6061 121.606 41.2495C122.153 41.8608 122.925 42.1825 123.922 42.1825Z" fill="#444143"/>
<path d="M134.764 44.6597C134.571 44.6597 134.41 44.5953 134.281 44.4666C134.153 44.3379 134.088 44.1771 134.088 43.9841V30.7618C134.088 30.5688 134.153 30.3758 134.281 30.2471C134.41 30.1184 134.571 30.0541 134.764 30.0541H137.048C137.241 30.0541 137.402 30.1184 137.53 30.2471C137.659 30.3758 137.756 30.5366 137.756 30.7618V31.92C138.174 31.3087 138.753 30.8583 139.429 30.5366C140.104 30.2149 140.908 30.0541 141.809 30.0541H142.967C143.16 30.0541 143.321 30.1184 143.45 30.2471C143.579 30.3758 143.643 30.5366 143.643 30.7297V32.7564C143.643 32.9495 143.579 33.1103 143.45 33.239C143.321 33.3677 143.16 33.432 142.967 33.432H140.748C139.847 33.432 139.139 33.6894 138.656 34.1719C138.174 34.6545 137.917 35.3623 137.917 36.2631V43.9841C137.917 44.1771 137.852 44.3379 137.723 44.4666C137.595 44.5953 137.434 44.6597 137.209 44.6597H134.764Z" fill="#444143"/>
<path d="M148.436 50C148.275 50 148.147 49.9357 148.05 49.8392C147.954 49.7426 147.889 49.5818 147.889 49.4531C147.889 49.3888 147.889 49.2923 147.889 49.2279C147.889 49.1636 147.922 49.0671 147.986 49.0027L150.174 43.8232L144.801 31.1157C144.737 30.9227 144.705 30.794 144.705 30.7297C144.737 30.5688 144.801 30.408 144.898 30.2793C144.994 30.1506 145.155 30.0862 145.316 30.0862H147.6C147.825 30.0862 147.986 30.1506 148.115 30.2471C148.211 30.3436 148.308 30.4723 148.372 30.601L152.104 39.7697L155.932 30.601C155.997 30.4401 156.061 30.3114 156.19 30.2149C156.286 30.1184 156.479 30.0541 156.704 30.0541H158.956C159.117 30.0541 159.246 30.1184 159.374 30.2149C159.503 30.3114 159.567 30.4723 159.567 30.601C159.567 30.6975 159.535 30.8584 159.471 31.0514L151.525 49.4209C151.46 49.5818 151.364 49.7105 151.235 49.807C151.139 49.9035 150.946 49.9678 150.72 49.9678H148.436V50Z" fill="#444143"/>
</svg>
