<svg width="50" height="50" viewBox="0 0 50 50" fill="none" xmlns="http://www.w3.org/2000/svg">
<path d="M39.5837 18.7501C39.5837 21.7709 38.6878 24.5418 37.1462 26.8543C34.8962 30.1876 31.3337 32.5418 27.1878 33.1459C26.4795 33.2709 25.7503 33.3334 25.0003 33.3334C24.2503 33.3334 23.5212 33.2709 22.8128 33.1459C18.667 32.5418 15.1045 30.1876 12.8545 26.8543C11.3128 24.5418 10.417 21.7709 10.417 18.7501C10.417 10.6876 16.9378 4.16675 25.0003 4.16675C33.0628 4.16675 39.5837 10.6876 39.5837 18.7501Z" stroke="#6DBDFA" stroke-width="3" stroke-linecap="round" stroke-linejoin="round"/>
<path d="M44.2711 38.4792L40.8336 39.2916C40.0627 39.4791 39.4586 40.0625 39.2919 40.8334L38.5627 43.8959C38.1669 45.5625 36.0419 46.0625 34.9377 44.75L25.0002 33.3333L15.0627 44.7708C13.9586 46.0833 11.8336 45.5833 11.4377 43.9167L10.7086 40.8541C10.5211 40.0833 9.91691 39.4792 9.16691 39.3125L5.72941 38.5C4.14608 38.125 3.58358 36.1458 4.72941 35L12.8544 26.875C15.1044 30.2083 18.6669 32.5625 22.8127 33.1667C23.5211 33.2917 24.2502 33.3542 25.0002 33.3542C25.7502 33.3542 26.4794 33.2917 27.1877 33.1667C31.3336 32.5625 34.8961 30.2083 37.1461 26.875L45.2711 35C46.4169 36.125 45.8544 38.1042 44.2711 38.4792Z" stroke="#6DBDFA" stroke-width="3" stroke-linecap="round" stroke-linejoin="round"/>
<path d="M26.2081 12.4583L27.4373 14.9166C27.6039 15.2499 28.0414 15.5832 28.4373 15.6457L30.6664 16.0207C32.0831 16.2499 32.4164 17.2916 31.3956 18.3124L29.6664 20.0416C29.3748 20.3332 29.2081 20.8958 29.3123 21.3124L29.8123 23.4582C30.2081 25.1457 29.3123 25.8124 27.8123 24.9165L25.7289 23.6874C25.3539 23.4582 24.7289 23.4582 24.3539 23.6874L22.2706 24.9165C20.7706 25.7915 19.8748 25.1457 20.2706 23.4582L20.7706 21.3124C20.8539 20.9166 20.7081 20.3332 20.4164 20.0416L18.6873 18.3124C17.6664 17.2916 17.9998 16.2707 19.4164 16.0207L21.6456 15.6457C22.0206 15.5832 22.4581 15.2499 22.6248 14.9166L23.8539 12.4583C24.4581 11.1249 25.5414 11.1249 26.2081 12.4583Z" stroke="#6DBDFA" stroke-width="3" stroke-linecap="round" stroke-linejoin="round"/>
</svg>
