<svg width="17" height="16" viewBox="0 0 17 16" fill="none" xmlns="http://www.w3.org/2000/svg">
<path fill-rule="evenodd" clip-rule="evenodd" d="M10.9193 1.3335H5.12424C2.85302 1.3335 1.33728 2.95523 1.33728 5.2775V10.7228C1.33728 13.0473 2.84897 14.6668 5.12424 14.6668H10.9186C13.1946 14.6668 14.7069 13.0473 14.7069 10.7228V5.2775C14.7069 2.95317 13.1947 1.3335 10.9193 1.3335ZM5.12424 2.3335H10.9193C12.6243 2.3335 13.7042 3.49014 13.7042 5.2775V10.7228C13.7042 12.5103 12.6242 13.6668 10.9187 13.6668H5.12424C3.41944 13.6668 2.34001 12.5104 2.34001 10.7228V5.2775C2.34001 3.49241 3.42317 2.3335 5.12424 2.3335ZM5.90964 6.2655C4.9496 6.2655 4.17091 7.04264 4.17091 8.00016C4.17091 8.95768 4.9496 9.73483 5.90964 9.73483C6.69588 9.73483 7.36036 9.21426 7.57565 8.50015L8.97885 8.5001V9.2345L8.98342 9.30234C9.01662 9.54639 9.22639 9.7345 9.48021 9.7345C9.7571 9.7345 9.98157 9.51064 9.98157 9.2345V8.50006L10.8696 8.50003L10.8698 9.23483L10.8744 9.30268C10.9076 9.54673 11.1173 9.73483 11.3711 9.73483C11.648 9.73483 11.8725 9.51097 11.8725 9.23483V8.00016L11.8679 7.93232C11.8347 7.68827 11.625 7.50016 11.3711 7.50016H9.49869C9.49255 7.49994 9.48639 7.49983 9.48021 7.49983C9.47402 7.49983 9.46786 7.49994 9.46173 7.50016H7.57564C7.36035 6.78606 6.69587 6.2655 5.90964 6.2655ZM5.90964 7.2655C6.31633 7.2655 6.64631 7.5947 6.64631 8.00016C6.64631 8.40563 6.31633 8.73483 5.90964 8.73483C5.50355 8.73483 5.17364 8.40556 5.17364 8.00016C5.17364 7.59476 5.50355 7.2655 5.90964 7.2655Z" fill="#59AFF1"/>
</svg>
