<svg width="17" height="16" viewBox="0 0 17 16" fill="none" xmlns="http://www.w3.org/2000/svg">
<path d="M8.12873 7.24665C8.06189 7.23998 7.98167 7.23998 7.90813 7.24665C6.31714 7.19331 5.05371 5.89331 5.05371 4.29331C5.05371 2.65998 6.37731 1.33331 8.02178 1.33331C9.65956 1.33331 10.9898 2.65998 10.9898 4.29331C10.9832 5.89331 9.71972 7.19331 8.12873 7.24665Z" stroke="#F0BA1B" stroke-width="1.5" stroke-linecap="round" stroke-linejoin="round"/>
<path d="M4.7863 9.70669C3.16857 10.7867 3.16857 12.5467 4.7863 13.62C6.62462 14.8467 9.63948 14.8467 11.4778 13.62C13.0955 12.54 13.0955 10.78 11.4778 9.70669C9.64617 8.48669 6.63131 8.48669 4.7863 9.70669Z" stroke="#F0BA1B" stroke-width="1.5" stroke-linecap="round" stroke-linejoin="round"/>
</svg>
