<svg width="10" height="8" viewBox="0 0 10 8" fill="none" xmlns="http://www.w3.org/2000/svg">
<path d="M3.78549 6.07593L0.271698 3.5529C0.188934 3.50399 0.120348 3.43435 0.072703 3.35086C0.0250581 3.26736 0 3.17288 0 3.07675C0 2.98062 0.0250581 2.88614 0.072703 2.80264C0.120348 2.71915 0.188934 2.64951 0.271698 2.6006L3.78549 0.0760301C3.86925 0.026763 3.96455 0.000534981 4.06173 8.09781e-06C4.1589 -0.000518785 4.25449 0.0246742 4.33878 0.0730301C4.42307 0.121386 4.49307 0.191183 4.54166 0.275336C4.59026 0.359488 4.61572 0.455 4.61547 0.552176V1.53754C5.7693 1.53754 9.23078 1.53754 10 7.69129C8.07695 4.22981 4.61547 4.61442 4.61547 4.61442V5.59979C4.61547 6.03055 4.14933 6.29054 3.78549 6.0767V6.07593Z" fill="black"/>
</svg>
