<svg width="50" height="50" viewBox="0 0 50 50" fill="none" xmlns="http://www.w3.org/2000/svg">
<path d="M43.5625 23.1667C43.5625 33.3542 36.1667 42.8959 26.0625 45.6875C25.375 45.875 24.625 45.875 23.9375 45.6875C13.8333 42.8959 6.4375 33.3542 6.4375 23.1667V14.0208C6.4375 12.3125 7.7292 10.375 9.33336 9.72918L20.9375 4.97925C23.5417 3.91675 26.4792 3.91675 29.0833 4.97925L40.6875 9.72918C42.2708 10.375 43.5834 12.3125 43.5834 14.0208L43.5625 23.1667Z" stroke="#FFD27C" stroke-width="3" stroke-linecap="round" stroke-linejoin="round"/>
<path d="M24.9997 26.0416C27.3009 26.0416 29.1663 24.1761 29.1663 21.8749C29.1663 19.5737 27.3009 17.7083 24.9997 17.7083C22.6985 17.7083 20.833 19.5737 20.833 21.8749C20.833 24.1761 22.6985 26.0416 24.9997 26.0416Z" stroke="#FFD27C" stroke-width="3" stroke-miterlimit="10" stroke-linecap="round" stroke-linejoin="round"/>
<path d="M25 26.0415V32.2915" stroke="#FFD27C" stroke-width="3" stroke-miterlimit="10" stroke-linecap="round" stroke-linejoin="round"/>
</svg>
