<svg width="40" height="40" viewBox="0 0 40 40" fill="none" xmlns="http://www.w3.org/2000/svg">
<path d="M5 15.1833V24.7999C5 28.3333 5 28.3333 8.33333 30.5833L17.5 35.8833C18.8833 36.6833 21.1333 36.6833 22.5 35.8833L31.6667 30.5833C35 28.3333 35 28.3333 35 24.8166V15.1833C35 11.6666 35 11.6666 31.6667 9.4166L22.5 4.1166C21.1333 3.3166 18.8833 3.3166 17.5 4.1166L8.33333 9.4166C5 11.6666 5 11.6666 5 15.1833Z" stroke="#E6AB3D" stroke-width="3" stroke-linecap="round" stroke-linejoin="round"/>
<path d="M20 25C22.7614 25 25 22.7614 25 20C25 17.2386 22.7614 15 20 15C17.2386 15 15 17.2386 15 20C15 22.7614 17.2386 25 20 25Z" stroke="#E6AB3D" stroke-width="3" stroke-linecap="round" stroke-linejoin="round"/>
</svg>
