<svg width="38" height="37" viewBox="0 0 38 37" fill="none" xmlns="http://www.w3.org/2000/svg">
<g opacity="0.4">
<path d="M1.8666 35.3733L1.00977 36.2114" stroke="#E6AB3D" stroke-linecap="round"/>
<path d="M5.67475 35.3732L5.02148 36.2212" stroke="#E6AB3D" stroke-linecap="round"/>
<path d="M9.48301 35.3731L9.00781 36.2117" stroke="#E6AB3D" stroke-linecap="round"/>
<path d="M13.2918 35.3731L13.0127 36.2134" stroke="#E6AB3D" stroke-linecap="round"/>
<path d="M17.0992 35.3732L17.0091 36.2119" stroke="#E6AB3D" stroke-linecap="round"/>
<path d="M20.9079 35.3732L21.013 36.2102" stroke="#E6AB3D" stroke-linecap="round"/>
<path d="M24.7158 35.3732L25.0099 36.2085" stroke="#E6AB3D" stroke-linecap="round"/>
<path d="M28.5244 35.3733L29.0145 36.2036" stroke="#E6AB3D" stroke-linecap="round"/>
<path d="M32.332 35.3733L33.0003 36.21" stroke="#E6AB3D" stroke-linecap="round"/>
<path d="M36.1406 35.373L36.9975 36.2112" stroke="#E6AB3D" stroke-linecap="round"/>
<path d="M1.86709 31.6481L1.01172 32.3018" stroke="#E6AB3D" stroke-linecap="round"/>
<path d="M5.67521 31.6482L5.00879 32.3" stroke="#E6AB3D" stroke-linecap="round"/>
<path d="M9.48342 31.648L9.01367 32.3042" stroke="#E6AB3D" stroke-linecap="round"/>
<path d="M13.2911 31.6482L13.0078 32.301" stroke="#E6AB3D" stroke-linecap="round"/>
<path d="M17.1001 31.6482L17.0064 32.3003" stroke="#E6AB3D" stroke-linecap="round"/>
<path d="M20.9078 31.6482L21.0131 32.2986" stroke="#E6AB3D" stroke-linecap="round"/>
<path d="M24.7158 31.6482L25.0107 32.2961" stroke="#E6AB3D" stroke-linecap="round"/>
<path d="M28.5244 31.648L29.0058 32.2961" stroke="#E6AB3D" stroke-linecap="round"/>
<path d="M32.332 31.6482L32.9985 32.3" stroke="#E6AB3D" stroke-linecap="round"/>
<path d="M36.1406 31.6483L37.0075 32.2874" stroke="#E6AB3D" stroke-linecap="round"/>
<path d="M1.86742 27.9232L1.01855 28.4026" stroke="#E6AB3D" stroke-linecap="round"/>
<path d="M5.67526 27.9232L5.0127 28.394" stroke="#E6AB3D" stroke-linecap="round"/>
<path d="M9.48383 27.923L9.00781 28.3887" stroke="#E6AB3D" stroke-linecap="round"/>
<path d="M13.2912 27.923L13.0137 28.3933" stroke="#E6AB3D" stroke-linecap="round"/>
<path d="M17.0995 27.9233L17.0069 28.3894" stroke="#E6AB3D" stroke-linecap="round"/>
<path d="M20.908 27.9232L21.0089 28.3877" stroke="#E6AB3D" stroke-linecap="round"/>
<path d="M24.7158 27.9232L25.0017 28.3887" stroke="#E6AB3D" stroke-linecap="round"/>
<path d="M28.5244 27.9233L29.0004 28.3889" stroke="#E6AB3D" stroke-linecap="round"/>
<path d="M32.332 27.9231L33.0029 28.3826" stroke="#E6AB3D" stroke-linecap="round"/>
<path d="M36.1406 27.9231L36.9979 28.3879" stroke="#E6AB3D" stroke-linecap="round"/>
<path d="M1.86667 24.198L1.0127 24.4856" stroke="#E6AB3D" stroke-linecap="round"/>
<path d="M5.67506 24.1981L5.0127 24.4866" stroke="#E6AB3D" stroke-linecap="round"/>
<path d="M9.48365 24.1981L9.00781 24.4778" stroke="#E6AB3D" stroke-linecap="round"/>
<path d="M13.2915 24.1982L13.0059 24.4775" stroke="#E6AB3D" stroke-linecap="round"/>
<path d="M17.0997 24.1982L17.0067 24.4783" stroke="#E6AB3D" stroke-linecap="round"/>
<path d="M20.9075 24.1981L21.0055 24.4766" stroke="#E6AB3D" stroke-linecap="round"/>
<path d="M24.7158 24.1982L25.0014 24.4775" stroke="#E6AB3D" stroke-linecap="round"/>
<path d="M28.5244 24.1982L29.0052 24.4697" stroke="#E6AB3D" stroke-linecap="round"/>
<path d="M32.332 24.198L32.9994 24.4751" stroke="#E6AB3D" stroke-linecap="round"/>
<path d="M36.1406 24.1982L36.9996 24.4712" stroke="#E6AB3D" stroke-linecap="round"/>
<path d="M1.86642 20.4732L1.01074 20.5759" stroke="#E6AB3D" stroke-linecap="round"/>
<path d="M5.67467 20.4733L5.00977 20.5763" stroke="#E6AB3D" stroke-linecap="round"/>
<path d="M9.48363 20.473L9.00879 20.5717" stroke="#E6AB3D" stroke-linecap="round"/>
<path d="M13.2915 20.4732L13.0068 20.5691" stroke="#E6AB3D" stroke-linecap="round"/>
<path d="M17.0998 20.4731L17.0046 20.5662" stroke="#E6AB3D" stroke-linecap="round"/>
<path d="M20.908 20.4731L21.0032 20.5662" stroke="#E6AB3D" stroke-linecap="round"/>
<path d="M24.7158 20.4732L25.0021 20.5642" stroke="#E6AB3D" stroke-linecap="round"/>
<path d="M28.5244 20.4731L29.0009 20.5637" stroke="#E6AB3D" stroke-linecap="round"/>
<path d="M32.332 20.4729L32.9987 20.5645" stroke="#E6AB3D" stroke-linecap="round"/>
<path d="M36.1406 20.4732L36.998 20.5613" stroke="#E6AB3D" stroke-linecap="round"/>
<path d="M1.86715 16.7478L1.00977 16.6597" stroke="#E6AB3D" stroke-linecap="round"/>
<path d="M5.67543 16.7481L5.00879 16.6565" stroke="#E6AB3D" stroke-linecap="round"/>
<path d="M9.48336 16.7481L9.00684 16.6575" stroke="#E6AB3D" stroke-linecap="round"/>
<path d="M13.2912 16.748L13.0049 16.657" stroke="#E6AB3D" stroke-linecap="round"/>
<path d="M17.0998 16.7481L17.0046 16.655" stroke="#E6AB3D" stroke-linecap="round"/>
<path d="M20.908 16.7481L21.0032 16.655" stroke="#E6AB3D" stroke-linecap="round"/>
<path d="M24.7158 16.748L25.0005 16.6521" stroke="#E6AB3D" stroke-linecap="round"/>
<path d="M28.5244 16.748L28.9993 16.6493" stroke="#E6AB3D" stroke-linecap="round"/>
<path d="M32.332 16.7479L32.9969 16.6449" stroke="#E6AB3D" stroke-linecap="round"/>
<path d="M36.1406 16.7481L36.9963 16.6453" stroke="#E6AB3D" stroke-linecap="round"/>
<path d="M1.86679 13.0229L1.00781 12.7499" stroke="#E6AB3D" stroke-linecap="round"/>
<path d="M5.67522 13.0229L5.00781 12.7458" stroke="#E6AB3D" stroke-linecap="round"/>
<path d="M9.48368 13.0229L9.00293 12.7514" stroke="#E6AB3D" stroke-linecap="round"/>
<path d="M13.2915 13.0229L13.0059 12.7436" stroke="#E6AB3D" stroke-linecap="round"/>
<path d="M17.0993 13.0229L17.0013 12.7445" stroke="#E6AB3D" stroke-linecap="round"/>
<path d="M20.9081 13.0229L21.0011 12.7429" stroke="#E6AB3D" stroke-linecap="round"/>
<path d="M24.7158 13.0229L25.0014 12.7436" stroke="#E6AB3D" stroke-linecap="round"/>
<path d="M28.5244 13.0229L29.0003 12.7433" stroke="#E6AB3D" stroke-linecap="round"/>
<path d="M32.332 13.0229L32.9944 12.7345" stroke="#E6AB3D" stroke-linecap="round"/>
<path d="M36.1406 13.0229L36.9946 12.7353" stroke="#E6AB3D" stroke-linecap="round"/>
<path d="M1.86705 9.29785L1.00977 8.83302" stroke="#E6AB3D" stroke-linecap="round"/>
<path d="M5.67477 9.2981L5.00391 8.8386" stroke="#E6AB3D" stroke-linecap="round"/>
<path d="M9.48383 9.2981L9.00781 8.83247" stroke="#E6AB3D" stroke-linecap="round"/>
<path d="M13.2918 9.2981L13.0059 8.83264" stroke="#E6AB3D" stroke-linecap="round"/>
<path d="M17.0998 9.2981L16.9988 8.83362" stroke="#E6AB3D" stroke-linecap="round"/>
<path d="M20.9083 9.2981L21.0009 8.83197" stroke="#E6AB3D" stroke-linecap="round"/>
<path d="M24.7158 9.2981L24.9934 8.82783" stroke="#E6AB3D" stroke-linecap="round"/>
<path d="M28.5244 9.2981L29.0004 8.83247" stroke="#E6AB3D" stroke-linecap="round"/>
<path d="M32.332 9.2981L32.9946 8.82722" stroke="#E6AB3D" stroke-linecap="round"/>
<path d="M36.1406 9.2981L36.9895 8.8187" stroke="#E6AB3D" stroke-linecap="round"/>
<path d="M1.86691 5.573L1 4.93399" stroke="#E6AB3D" stroke-linecap="round"/>
<path d="M5.67521 5.573L5.00879 4.92112" stroke="#E6AB3D" stroke-linecap="round"/>
<path d="M9.48333 5.573L9.00195 4.9249" stroke="#E6AB3D" stroke-linecap="round"/>
<path d="M13.291 5.573L12.9961 4.92509" stroke="#E6AB3D" stroke-linecap="round"/>
<path d="M17.1 5.573L16.9947 4.92261" stroke="#E6AB3D" stroke-linecap="round"/>
<path d="M20.9077 5.573L21.0014 4.92091" stroke="#E6AB3D" stroke-linecap="round"/>
<path d="M24.7158 5.573L24.9991 4.92015" stroke="#E6AB3D" stroke-linecap="round"/>
<path d="M28.5244 5.573L28.9942 4.91678" stroke="#E6AB3D" stroke-linecap="round"/>
<path d="M32.332 5.573L32.9985 4.92112" stroke="#E6AB3D" stroke-linecap="round"/>
<path d="M36.1406 5.573L36.996 4.91929" stroke="#E6AB3D" stroke-linecap="round"/>
<path d="M1.8666 1.8479L1.00977 1.00977" stroke="#E6AB3D" stroke-linecap="round"/>
<path d="M5.67513 1.8479L5.00684 1.01119" stroke="#E6AB3D" stroke-linecap="round"/>
<path d="M9.48325 1.8479L8.99316 1.01756" stroke="#E6AB3D" stroke-linecap="round"/>
<path d="M13.2911 1.8479L12.9971 1.01256" stroke="#E6AB3D" stroke-linecap="round"/>
<path d="M17.0999 1.8479L16.9948 1.0109" stroke="#E6AB3D" stroke-linecap="round"/>
<path d="M20.9076 1.8479L20.9977 1.00923" stroke="#E6AB3D" stroke-linecap="round"/>
<path d="M24.7158 1.8479L24.9949 1.00767" stroke="#E6AB3D" stroke-linecap="round"/>
<path d="M28.5244 1.8479L28.9996 1.00932" stroke="#E6AB3D" stroke-linecap="round"/>
<path d="M32.332 1.8479L32.9853 0.999912" stroke="#E6AB3D" stroke-linecap="round"/>
<path d="M36.1406 1.8479L36.9975 1.00977" stroke="#E6AB3D" stroke-linecap="round"/>
</g>
</svg>
