<svg width="38" height="37" viewBox="0 0 38 37" fill="none" xmlns="http://www.w3.org/2000/svg">
<g opacity="0.8">
<path d="M1.86684 35.3733L1.01001 36.2114" stroke="#F9C668" stroke-linecap="round"/>
<path d="M5.67511 35.3732L5.02185 36.2212" stroke="#F9C668" stroke-linecap="round"/>
<path d="M9.48326 35.3733L9.00806 36.2119" stroke="#F9C668" stroke-linecap="round"/>
<path d="M13.2914 35.3731L13.0123 36.2134" stroke="#F9C668" stroke-linecap="round"/>
<path d="M17.0996 35.3732L17.0095 36.2119" stroke="#F9C668" stroke-linecap="round"/>
<path d="M20.9078 35.373L21.0128 36.21" stroke="#F9C668" stroke-linecap="round"/>
<path d="M24.7157 35.3732L25.0097 36.2085" stroke="#F9C668" stroke-linecap="round"/>
<path d="M28.5239 35.3733L29.014 36.2036" stroke="#F9C668" stroke-linecap="round"/>
<path d="M32.3322 35.3733L33.0004 36.21" stroke="#F9C668" stroke-linecap="round"/>
<path d="M36.1401 35.3733L36.997 36.2114" stroke="#F9C668" stroke-linecap="round"/>
<path d="M1.86673 31.6481L1.01135 32.3018" stroke="#F9C668" stroke-linecap="round"/>
<path d="M5.67509 31.6484L5.00867 32.3003" stroke="#F9C668" stroke-linecap="round"/>
<path d="M9.48329 31.648L9.01355 32.3042" stroke="#F9C668" stroke-linecap="round"/>
<path d="M13.2914 31.6479L13.0081 32.3008" stroke="#F9C668" stroke-linecap="round"/>
<path d="M17.0998 31.6482L17.0061 32.3003" stroke="#F9C668" stroke-linecap="round"/>
<path d="M20.908 31.6479L21.0133 32.2983" stroke="#F9C668" stroke-linecap="round"/>
<path d="M24.7157 31.648L25.0106 32.2959" stroke="#F9C668" stroke-linecap="round"/>
<path d="M28.5239 31.6483L29.0053 32.2964" stroke="#F9C668" stroke-linecap="round"/>
<path d="M32.3322 31.6484L32.9986 32.3003" stroke="#F9C668" stroke-linecap="round"/>
<path d="M36.1401 31.6481L37.007 32.2871" stroke="#F9C668" stroke-linecap="round"/>
<path d="M1.86693 27.9229L1.01807 28.4023" stroke="#F9C668" stroke-linecap="round"/>
<path d="M5.67526 27.9232L5.0127 28.394" stroke="#F9C668" stroke-linecap="round"/>
<path d="M9.48334 27.923L9.00732 28.3887" stroke="#F9C668" stroke-linecap="round"/>
<path d="M13.2914 27.9233L13.0138 28.3936" stroke="#F9C668" stroke-linecap="round"/>
<path d="M17.0995 27.9235L17.0069 28.3896" stroke="#F9C668" stroke-linecap="round"/>
<path d="M20.9077 27.9232L21.0086 28.3877" stroke="#F9C668" stroke-linecap="round"/>
<path d="M24.7157 27.9232L25.0016 28.3887" stroke="#F9C668" stroke-linecap="round"/>
<path d="M28.5239 27.923L28.9999 28.3887" stroke="#F9C668" stroke-linecap="round"/>
<path d="M32.3322 27.9233L33.003 28.3828" stroke="#F9C668" stroke-linecap="round"/>
<path d="M36.1401 27.9234L36.9974 28.3882" stroke="#F9C668" stroke-linecap="round"/>
<path d="M1.86704 24.1982L1.01306 24.4858" stroke="#F9C668" stroke-linecap="round"/>
<path d="M5.67506 24.1979L5.0127 24.4863" stroke="#F9C668" stroke-linecap="round"/>
<path d="M9.48328 24.1979L9.00745 24.4775" stroke="#F9C668" stroke-linecap="round"/>
<path d="M13.2913 24.1982L13.0057 24.4775" stroke="#F9C668" stroke-linecap="round"/>
<path d="M17.0996 24.198L17.0066 24.478" stroke="#F9C668" stroke-linecap="round"/>
<path d="M20.9079 24.1981L21.0059 24.4766" stroke="#F9C668" stroke-linecap="round"/>
<path d="M24.7157 24.1982L25.0013 24.4775" stroke="#F9C668" stroke-linecap="round"/>
<path d="M28.5239 24.1982L29.0047 24.4697" stroke="#F9C668" stroke-linecap="round"/>
<path d="M32.3322 24.198L32.9996 24.4751" stroke="#F9C668" stroke-linecap="round"/>
<path d="M36.1401 24.1982L36.9991 24.4712" stroke="#F9C668" stroke-linecap="round"/>
<path d="M1.86691 20.4732L1.01123 20.5759" stroke="#F9C668" stroke-linecap="round"/>
<path d="M5.67516 20.473L5.01025 20.5761" stroke="#F9C668" stroke-linecap="round"/>
<path d="M9.48338 20.4732L9.00854 20.572" stroke="#F9C668" stroke-linecap="round"/>
<path d="M13.2915 20.4732L13.0068 20.5691" stroke="#F9C668" stroke-linecap="round"/>
<path d="M17.0995 20.4731L17.0043 20.5662" stroke="#F9C668" stroke-linecap="round"/>
<path d="M20.9078 20.4731L21.003 20.5662" stroke="#F9C668" stroke-linecap="round"/>
<path d="M24.7157 20.4732L25.002 20.5642" stroke="#F9C668" stroke-linecap="round"/>
<path d="M28.5239 20.4729L29.0005 20.5635" stroke="#F9C668" stroke-linecap="round"/>
<path d="M32.3322 20.4729L32.9988 20.5645" stroke="#F9C668" stroke-linecap="round"/>
<path d="M36.1401 20.4732L36.9975 20.5613" stroke="#F9C668" stroke-linecap="round"/>
<path d="M1.8669 16.7478L1.00952 16.6597" stroke="#F9C668" stroke-linecap="round"/>
<path d="M5.67506 16.7481L5.00842 16.6565" stroke="#F9C668" stroke-linecap="round"/>
<path d="M9.48312 16.7481L9.00659 16.6575" stroke="#F9C668" stroke-linecap="round"/>
<path d="M13.2913 16.7478L13.005 16.6568" stroke="#F9C668" stroke-linecap="round"/>
<path d="M17.0995 16.7479L17.0043 16.6547" stroke="#F9C668" stroke-linecap="round"/>
<path d="M20.9078 16.7479L21.003 16.6547" stroke="#F9C668" stroke-linecap="round"/>
<path d="M24.7157 16.7483L25.0004 16.6524" stroke="#F9C668" stroke-linecap="round"/>
<path d="M28.5239 16.7482L28.9988 16.6495" stroke="#F9C668" stroke-linecap="round"/>
<path d="M32.3322 16.7479L32.9971 16.6449" stroke="#F9C668" stroke-linecap="round"/>
<path d="M36.1401 16.7478L36.9958 16.645" stroke="#F9C668" stroke-linecap="round"/>
<path d="M1.86716 13.0229L1.00818 12.7499" stroke="#F9C668" stroke-linecap="round"/>
<path d="M5.67522 13.0229L5.00781 12.7458" stroke="#F9C668" stroke-linecap="round"/>
<path d="M9.48332 13.0229L9.00256 12.7514" stroke="#F9C668" stroke-linecap="round"/>
<path d="M13.2913 13.0229L13.0057 12.7436" stroke="#F9C668" stroke-linecap="round"/>
<path d="M17.0995 13.0229L17.0015 12.7445" stroke="#F9C668" stroke-linecap="round"/>
<path d="M20.9077 13.0229L21.0007 12.7429" stroke="#F9C668" stroke-linecap="round"/>
<path d="M24.7157 13.0229L25.0013 12.7436" stroke="#F9C668" stroke-linecap="round"/>
<path d="M28.5239 13.0229L28.9998 12.7433" stroke="#F9C668" stroke-linecap="round"/>
<path d="M32.3322 13.0229L32.9945 12.7345" stroke="#F9C668" stroke-linecap="round"/>
<path d="M36.1401 13.0229L36.9941 12.7353" stroke="#F9C668" stroke-linecap="round"/>
<path d="M1.86705 9.29785L1.00977 8.83302" stroke="#F9C668" stroke-linecap="round"/>
<path d="M5.67514 9.29785L5.00427 8.83836" stroke="#F9C668" stroke-linecap="round"/>
<path d="M9.48334 9.29785L9.00732 8.83222" stroke="#F9C668" stroke-linecap="round"/>
<path d="M13.2916 9.29785L13.0057 8.8324" stroke="#F9C668" stroke-linecap="round"/>
<path d="M17.0999 9.29785L16.999 8.83338" stroke="#F9C668" stroke-linecap="round"/>
<path d="M20.9078 9.29785L21.0004 8.83173" stroke="#F9C668" stroke-linecap="round"/>
<path d="M24.7157 9.29785L24.9933 8.82759" stroke="#F9C668" stroke-linecap="round"/>
<path d="M28.5239 9.29785L28.9999 8.83222" stroke="#F9C668" stroke-linecap="round"/>
<path d="M32.3322 9.29785L32.9947 8.82698" stroke="#F9C668" stroke-linecap="round"/>
<path d="M36.1401 9.29785L36.989 8.81846" stroke="#F9C668" stroke-linecap="round"/>
<path d="M1.86691 5.57275L1 4.93375" stroke="#F9C668" stroke-linecap="round"/>
<path d="M5.67509 5.57275L5.00867 4.92087" stroke="#F9C668" stroke-linecap="round"/>
<path d="M9.48333 5.57275L9.00195 4.92465" stroke="#F9C668" stroke-linecap="round"/>
<path d="M13.2914 5.57275L12.9965 4.92484" stroke="#F9C668" stroke-linecap="round"/>
<path d="M17.0998 5.57275L16.9945 4.92236" stroke="#F9C668" stroke-linecap="round"/>
<path d="M20.908 5.57275L21.0017 4.92066" stroke="#F9C668" stroke-linecap="round"/>
<path d="M24.7157 5.57275L24.999 4.91991" stroke="#F9C668" stroke-linecap="round"/>
<path d="M28.5239 5.57275L28.9937 4.91653" stroke="#F9C668" stroke-linecap="round"/>
<path d="M32.3322 5.57275L32.9986 4.92087" stroke="#F9C668" stroke-linecap="round"/>
<path d="M36.1403 5.57275L36.9956 4.91905" stroke="#F9C668" stroke-linecap="round"/>
<path d="M1.86684 1.84814L1.01001 1.01001" stroke="#F9C668" stroke-linecap="round"/>
<path d="M5.67513 1.84814L5.00684 1.01144" stroke="#F9C668" stroke-linecap="round"/>
<path d="M9.48325 1.84814L8.99316 1.01781" stroke="#F9C668" stroke-linecap="round"/>
<path d="M13.2915 1.84814L12.9974 1.01281" stroke="#F9C668" stroke-linecap="round"/>
<path d="M17.0996 1.84814L16.9946 1.01114" stroke="#F9C668" stroke-linecap="round"/>
<path d="M20.9078 1.84814L20.9979 1.00947" stroke="#F9C668" stroke-linecap="round"/>
<path d="M24.7157 1.84814L24.9948 1.00792" stroke="#F9C668" stroke-linecap="round"/>
<path d="M28.5239 1.84814L28.9991 1.00957" stroke="#F9C668" stroke-linecap="round"/>
<path d="M32.3322 1.84814L32.9854 1.00016" stroke="#F9C668" stroke-linecap="round"/>
<path d="M36.1403 1.84814L36.9971 1.01001" stroke="#F9C668" stroke-linecap="round"/>
</g>
</svg>
