<svg width="38" height="37" viewBox="0 0 38 37" fill="none" xmlns="http://www.w3.org/2000/svg">
<path d="M1.8669 35.3733L1.01007 36.2114" stroke="#3D95E5" stroke-linecap="round"/>
<path d="M5.67511 35.3732L5.02185 36.2212" stroke="#3D95E5" stroke-linecap="round"/>
<path d="M9.48332 35.3733L9.00812 36.2119" stroke="#3D95E5" stroke-linecap="round"/>
<path d="M13.2914 35.3731L13.0123 36.2134" stroke="#3D95E5" stroke-linecap="round"/>
<path d="M17.0997 35.3732L17.0096 36.2119" stroke="#3D95E5" stroke-linecap="round"/>
<path d="M20.9078 35.373L21.0128 36.21" stroke="#3D95E5" stroke-linecap="round"/>
<path d="M24.7156 35.3732L25.0097 36.2085" stroke="#3D95E5" stroke-linecap="round"/>
<path d="M28.5239 35.3733L29.014 36.2036" stroke="#3D95E5" stroke-linecap="round"/>
<path d="M32.3321 35.3733L33.0004 36.21" stroke="#3D95E5" stroke-linecap="round"/>
<path d="M36.1402 35.3733L36.997 36.2114" stroke="#3D95E5" stroke-linecap="round"/>
<path d="M1.86679 31.6481L1.01141 32.3018" stroke="#3D95E5" stroke-linecap="round"/>
<path d="M5.67509 31.6484L5.00867 32.3003" stroke="#3D95E5" stroke-linecap="round"/>
<path d="M9.48329 31.648L9.01355 32.3042" stroke="#3D95E5" stroke-linecap="round"/>
<path d="M13.2914 31.6479L13.0081 32.3008" stroke="#3D95E5" stroke-linecap="round"/>
<path d="M17.0998 31.6482L17.0061 32.3003" stroke="#3D95E5" stroke-linecap="round"/>
<path d="M20.908 31.6479L21.0133 32.2983" stroke="#3D95E5" stroke-linecap="round"/>
<path d="M24.7156 31.648L25.0105 32.2959" stroke="#3D95E5" stroke-linecap="round"/>
<path d="M28.5239 31.6483L29.0053 32.2964" stroke="#3D95E5" stroke-linecap="round"/>
<path d="M32.3321 31.6484L32.9985 32.3003" stroke="#3D95E5" stroke-linecap="round"/>
<path d="M36.1402 31.6481L37.0071 32.2871" stroke="#3D95E5" stroke-linecap="round"/>
<path d="M1.86699 27.9229L1.01813 28.4023" stroke="#3D95E5" stroke-linecap="round"/>
<path d="M5.6752 27.9232L5.01263 28.394" stroke="#3D95E5" stroke-linecap="round"/>
<path d="M9.4834 27.923L9.00739 28.3887" stroke="#3D95E5" stroke-linecap="round"/>
<path d="M13.2914 27.9233L13.0139 28.3936" stroke="#3D95E5" stroke-linecap="round"/>
<path d="M17.0996 27.9235L17.007 28.3896" stroke="#3D95E5" stroke-linecap="round"/>
<path d="M20.9077 27.9232L21.0086 28.3877" stroke="#3D95E5" stroke-linecap="round"/>
<path d="M24.7156 27.9232L25.0015 28.3887" stroke="#3D95E5" stroke-linecap="round"/>
<path d="M28.5239 27.923L28.9999 28.3887" stroke="#3D95E5" stroke-linecap="round"/>
<path d="M32.3321 27.9233L33.003 28.3828" stroke="#3D95E5" stroke-linecap="round"/>
<path d="M36.1402 27.9234L36.9975 28.3882" stroke="#3D95E5" stroke-linecap="round"/>
<path d="M1.86704 24.1982L1.01306 24.4858" stroke="#3D95E5" stroke-linecap="round"/>
<path d="M5.675 24.1979L5.01263 24.4863" stroke="#3D95E5" stroke-linecap="round"/>
<path d="M9.48334 24.1979L9.00751 24.4775" stroke="#3D95E5" stroke-linecap="round"/>
<path d="M13.2913 24.1982L13.0057 24.4775" stroke="#3D95E5" stroke-linecap="round"/>
<path d="M17.0997 24.198L17.0066 24.478" stroke="#3D95E5" stroke-linecap="round"/>
<path d="M20.9078 24.1981L21.0058 24.4766" stroke="#3D95E5" stroke-linecap="round"/>
<path d="M24.7156 24.1982L25.0012 24.4775" stroke="#3D95E5" stroke-linecap="round"/>
<path d="M28.5239 24.1982L29.0047 24.4697" stroke="#3D95E5" stroke-linecap="round"/>
<path d="M32.3321 24.198L32.9995 24.4751" stroke="#3D95E5" stroke-linecap="round"/>
<path d="M36.1402 24.1982L36.9992 24.4712" stroke="#3D95E5" stroke-linecap="round"/>
<path d="M1.86685 20.4732L1.01117 20.5759" stroke="#3D95E5" stroke-linecap="round"/>
<path d="M5.67516 20.473L5.01025 20.5761" stroke="#3D95E5" stroke-linecap="round"/>
<path d="M9.48338 20.4732L9.00854 20.572" stroke="#3D95E5" stroke-linecap="round"/>
<path d="M13.2915 20.4732L13.0068 20.5691" stroke="#3D95E5" stroke-linecap="round"/>
<path d="M17.0995 20.4731L17.0043 20.5662" stroke="#3D95E5" stroke-linecap="round"/>
<path d="M20.9078 20.4731L21.003 20.5662" stroke="#3D95E5" stroke-linecap="round"/>
<path d="M24.7156 20.4732L25.002 20.5642" stroke="#3D95E5" stroke-linecap="round"/>
<path d="M28.5239 20.4729L29.0005 20.5635" stroke="#3D95E5" stroke-linecap="round"/>
<path d="M32.3322 20.4729L32.9988 20.5645" stroke="#3D95E5" stroke-linecap="round"/>
<path d="M36.1402 20.4732L36.9976 20.5613" stroke="#3D95E5" stroke-linecap="round"/>
<path d="M1.8669 16.7478L1.00952 16.6597" stroke="#3D95E5" stroke-linecap="round"/>
<path d="M5.67506 16.7481L5.00842 16.6565" stroke="#3D95E5" stroke-linecap="round"/>
<path d="M9.48318 16.7481L9.00665 16.6575" stroke="#3D95E5" stroke-linecap="round"/>
<path d="M13.2914 16.7478L13.0051 16.6568" stroke="#3D95E5" stroke-linecap="round"/>
<path d="M17.0995 16.7479L17.0043 16.6547" stroke="#3D95E5" stroke-linecap="round"/>
<path d="M20.9078 16.7479L21.003 16.6547" stroke="#3D95E5" stroke-linecap="round"/>
<path d="M24.7156 16.7483L25.0003 16.6524" stroke="#3D95E5" stroke-linecap="round"/>
<path d="M28.5239 16.7482L28.9988 16.6495" stroke="#3D95E5" stroke-linecap="round"/>
<path d="M32.3322 16.7479L32.9971 16.6449" stroke="#3D95E5" stroke-linecap="round"/>
<path d="M36.1402 16.7478L36.9959 16.645" stroke="#3D95E5" stroke-linecap="round"/>
<path d="M1.86716 13.0229L1.00818 12.7499" stroke="#3D95E5" stroke-linecap="round"/>
<path d="M5.67522 13.0229L5.00781 12.7458" stroke="#3D95E5" stroke-linecap="round"/>
<path d="M9.48332 13.0229L9.00256 12.7514" stroke="#3D95E5" stroke-linecap="round"/>
<path d="M13.2913 13.0229L13.0057 12.7436" stroke="#3D95E5" stroke-linecap="round"/>
<path d="M17.0995 13.0229L17.0015 12.7445" stroke="#3D95E5" stroke-linecap="round"/>
<path d="M20.9077 13.0229L21.0007 12.7429" stroke="#3D95E5" stroke-linecap="round"/>
<path d="M24.7156 13.0229L25.0012 12.7436" stroke="#3D95E5" stroke-linecap="round"/>
<path d="M28.5239 13.0229L28.9998 12.7433" stroke="#3D95E5" stroke-linecap="round"/>
<path d="M32.3322 13.0229L32.9945 12.7345" stroke="#3D95E5" stroke-linecap="round"/>
<path d="M36.1402 13.0229L36.9942 12.7353" stroke="#3D95E5" stroke-linecap="round"/>
<path d="M1.86699 9.29785L1.0097 8.83302" stroke="#3D95E5" stroke-linecap="round"/>
<path d="M5.67514 9.29785L5.00427 8.83836" stroke="#3D95E5" stroke-linecap="round"/>
<path d="M9.4834 9.29785L9.00739 8.83222" stroke="#3D95E5" stroke-linecap="round"/>
<path d="M13.2916 9.29785L13.0057 8.8324" stroke="#3D95E5" stroke-linecap="round"/>
<path d="M17.0998 9.29785L16.9989 8.83338" stroke="#3D95E5" stroke-linecap="round"/>
<path d="M20.9078 9.29785L21.0005 8.83173" stroke="#3D95E5" stroke-linecap="round"/>
<path d="M24.7156 9.29785L24.9932 8.82759" stroke="#3D95E5" stroke-linecap="round"/>
<path d="M28.5239 9.29785L28.9999 8.83222" stroke="#3D95E5" stroke-linecap="round"/>
<path d="M32.3322 9.29785L32.9947 8.82698" stroke="#3D95E5" stroke-linecap="round"/>
<path d="M36.1402 9.29785L36.9891 8.81846" stroke="#3D95E5" stroke-linecap="round"/>
<path d="M1.86691 5.57275L1 4.93375" stroke="#3D95E5" stroke-linecap="round"/>
<path d="M5.67509 5.57275L5.00867 4.92087" stroke="#3D95E5" stroke-linecap="round"/>
<path d="M9.48333 5.57275L9.00195 4.92465" stroke="#3D95E5" stroke-linecap="round"/>
<path d="M13.2914 5.57275L12.9965 4.92484" stroke="#3D95E5" stroke-linecap="round"/>
<path d="M17.0997 5.57275L16.9944 4.92236" stroke="#3D95E5" stroke-linecap="round"/>
<path d="M20.9079 5.57275L21.0016 4.92066" stroke="#3D95E5" stroke-linecap="round"/>
<path d="M24.7156 5.57275L24.9989 4.91991" stroke="#3D95E5" stroke-linecap="round"/>
<path d="M28.5239 5.57275L28.9937 4.91653" stroke="#3D95E5" stroke-linecap="round"/>
<path d="M32.3322 5.57275L32.9986 4.92087" stroke="#3D95E5" stroke-linecap="round"/>
<path d="M36.1403 5.57275L36.9957 4.91905" stroke="#3D95E5" stroke-linecap="round"/>
<path d="M1.8669 1.84814L1.01007 1.01001" stroke="#3D95E5" stroke-linecap="round"/>
<path d="M5.67507 1.84814L5.00677 1.01144" stroke="#3D95E5" stroke-linecap="round"/>
<path d="M9.48325 1.84814L8.99316 1.01781" stroke="#3D95E5" stroke-linecap="round"/>
<path d="M13.2915 1.84814L12.9974 1.01281" stroke="#3D95E5" stroke-linecap="round"/>
<path d="M17.0996 1.84814L16.9945 1.01114" stroke="#3D95E5" stroke-linecap="round"/>
<path d="M20.9078 1.84814L20.9979 1.00947" stroke="#3D95E5" stroke-linecap="round"/>
<path d="M24.7156 1.84814L24.9947 1.00792" stroke="#3D95E5" stroke-linecap="round"/>
<path d="M28.5239 1.84814L28.9991 1.00957" stroke="#3D95E5" stroke-linecap="round"/>
<path d="M32.3322 1.84814L32.9854 1.00016" stroke="#3D95E5" stroke-linecap="round"/>
<path d="M36.1403 1.84814L36.9972 1.01001" stroke="#3D95E5" stroke-linecap="round"/>
</svg>
