<svg width="126" height="34" viewBox="0 0 126 34" fill="none" xmlns="http://www.w3.org/2000/svg">
<path opacity="0.6" fill-rule="evenodd" clip-rule="evenodd" d="M1.33748 33.9964C1.44675 33.9568 1.55093 33.8973 1.64463 33.8175C1.90245 33.598 2.16025 33.3796 2.41803 33.1624C2.84037 32.8065 2.89424 32.1757 2.53836 31.7533C2.18248 31.331 1.55161 31.2771 1.12928 31.633C0.868893 31.8524 0.608517 32.073 0.348145 32.2946C0.30481 32.3315 0.265404 32.3713 0.229965 32.4135L1.33748 33.9964ZM76.2827 0.985849C76.2906 0.433621 76.7447 -0.00761974 77.297 0.000309466C77.6366 0.00518596 77.9762 0.0120227 78.3158 0.0208204C78.8679 0.0351217 79.3039 0.494281 79.2896 1.04638C79.2753 1.59848 78.8161 2.03445 78.264 2.02015C77.9321 2.01155 77.6002 2.00487 77.2682 2.0001C76.716 1.99217 76.2748 1.53808 76.2827 0.985849ZM73.2456 1.02989C73.2695 1.58166 72.8416 2.04834 72.2898 2.07225C71.9581 2.08662 71.6263 2.10291 71.2946 2.12111C70.7431 2.15136 70.2716 1.72884 70.2413 1.17738C70.2111 0.625928 70.6336 0.154361 71.185 0.124109C71.5244 0.105491 71.8638 0.0888277 72.2032 0.0741206C72.755 0.0502114 73.2217 0.478125 73.2456 1.02989ZM82.3181 1.21215C82.3641 0.661777 82.8475 0.252877 83.3979 0.298842C83.7367 0.327137 84.0755 0.357384 84.4143 0.389584C84.9641 0.44184 85.3674 0.929909 85.3152 1.47972C85.2629 2.02952 84.7748 2.43287 84.225 2.38061C83.8938 2.34913 83.5626 2.31956 83.2314 2.2919C82.6811 2.24594 82.2722 1.76251 82.3181 1.21215ZM67.2193 1.43003C67.2809 1.97887 66.8859 2.47372 66.3371 2.53533C66.0066 2.57242 65.6761 2.61141 65.3456 2.6523C64.7974 2.7201 64.2981 2.33074 64.2303 1.78264C64.1625 1.23453 64.5519 0.735235 65.1 0.66743C65.438 0.625619 65.776 0.585743 66.114 0.547805C66.6628 0.486204 67.1577 0.881188 67.2193 1.43003ZM88.3225 1.85186C88.4057 1.30587 88.9157 0.930678 89.4617 1.01384C89.7974 1.06497 90.133 1.11802 90.4687 1.17298C91.0137 1.26223 91.3832 1.77641 91.294 2.32144C91.2047 2.86646 90.6905 3.23594 90.1455 3.1467C89.8172 3.09293 89.4888 3.04104 89.1605 2.99104C88.6145 2.90787 88.2394 2.39784 88.3225 1.85186ZM61.2357 2.23843C61.3338 2.78193 60.9728 3.30207 60.4293 3.40018C60.1022 3.45922 59.7751 3.52012 59.4481 3.58287C58.9057 3.68694 58.3816 3.3316 58.2775 2.78921C58.1735 2.24681 58.5288 1.72276 59.0712 1.6187C59.4054 1.55457 59.7397 1.49234 60.074 1.432C60.6174 1.33388 61.1376 1.69493 61.2357 2.23843ZM94.2729 2.89404C94.3918 2.35471 94.9254 2.0139 95.4647 2.13282C95.7952 2.20568 96.1256 2.28041 96.4561 2.35699C96.9941 2.48168 97.3291 3.01892 97.2045 3.55694C97.0798 4.09497 96.5425 4.43004 96.0045 4.30535C95.681 4.23037 95.3575 4.15723 95.0341 4.08591C94.4948 3.96699 94.154 3.43337 94.2729 2.89404ZM55.3162 3.44076C55.4491 3.97681 55.1223 4.51912 54.5862 4.65203C54.2645 4.7318 53.9428 4.81337 53.621 4.89673C53.0864 5.03524 52.5407 4.71411 52.4022 4.17948C52.2637 3.64485 52.5848 3.09915 53.1194 2.96065C53.4479 2.87554 53.7764 2.79227 54.1049 2.71081C54.641 2.5779 55.1833 2.90471 55.3162 3.44076ZM100.15 4.32247C100.303 3.79174 100.857 3.48532 101.387 3.63808C101.711 3.73116 102.034 3.82602 102.357 3.92266C102.887 4.0808 103.187 4.63797 103.029 5.16713C102.871 5.69629 102.314 5.99706 101.785 5.83892C101.468 5.74421 101.151 5.65125 100.834 5.56005C100.303 5.4073 99.997 4.85321 100.15 4.32247ZM49.4782 5.01818C49.6438 5.54505 49.3509 6.10641 48.824 6.27201C48.5092 6.37095 48.1944 6.47161 47.8796 6.57399C47.3544 6.74477 46.7902 6.45745 46.6194 5.93223C46.4486 5.40702 46.7359 4.8428 47.2611 4.67201C47.5822 4.56761 47.9033 4.46495 48.2243 4.36403C48.7512 4.19843 49.3126 4.4913 49.4782 5.01818ZM105.931 6.11492C106.116 5.5943 106.687 5.32168 107.208 5.506C107.525 5.6183 107.842 5.73232 108.159 5.84805C108.678 6.03736 108.945 6.61141 108.756 7.13024C108.567 7.64907 107.993 7.9162 107.474 7.72689C107.163 7.61334 106.851 7.50149 106.54 7.39132C106.02 7.207 105.747 6.63554 105.931 6.11492ZM43.7362 6.94845C43.9321 7.46481 43.6724 8.04224 43.156 8.23817C42.8488 8.35473 42.5416 8.47293 42.2344 8.59276C41.7198 8.79343 41.14 8.539 40.9394 8.02447C40.7387 7.50993 40.9931 6.93014 41.5076 6.72946C41.8206 6.60741 42.1335 6.48701 42.4465 6.36825C42.9629 6.17232 43.5403 6.43209 43.7362 6.94845ZM111.573 8.23428C111.786 7.72484 112.372 7.48475 112.882 7.69802C113.196 7.82981 113.511 7.96328 113.826 8.09845C114.333 8.31636 114.568 8.9044 114.35 9.41188C114.132 9.91936 113.544 10.1541 113.037 9.93618C112.728 9.80341 112.418 9.67231 112.109 9.54288C111.6 9.3296 111.36 8.74372 111.573 8.23428ZM38.1432 9.18923C38.3668 9.69423 38.1387 10.2849 37.6337 10.5085C37.3269 10.6443 37.0201 10.7818 36.7132 10.9208C36.2102 11.1489 35.6176 10.9259 35.3896 10.4229C35.1616 9.91989 35.3845 9.32727 35.8875 9.09926C36.1997 8.95777 36.5118 8.81792 36.824 8.6797C37.329 8.45611 37.9196 8.68424 38.1432 9.18923ZM117.096 10.6633C117.335 10.1657 117.933 9.95677 118.431 10.1965C118.736 10.3436 119.041 10.4922 119.346 10.6424C119.842 10.8864 120.046 11.4858 119.802 11.9813C119.558 12.4768 118.958 12.6807 118.463 12.4368C118.163 12.289 117.863 12.1428 117.562 11.9982C117.065 11.7585 116.856 11.1608 117.096 10.6633ZM32.6702 11.7258C32.919 12.2189 32.7209 12.8203 32.2279 13.0691C31.9302 13.2193 31.6325 13.371 31.3348 13.5243C30.8438 13.7771 30.2408 13.5839 29.988 13.0929C29.7352 12.6018 29.9284 11.9989 30.4194 11.7461C30.7219 11.5904 31.0244 11.4362 31.3269 11.2836C31.82 11.0348 32.4214 11.2328 32.6702 11.7258ZM122.5 13.3796C122.764 12.8944 123.371 12.7149 123.856 12.9787C124.151 13.139 124.446 13.3008 124.741 13.464C125.224 13.7316 125.399 14.3402 125.131 14.8233C124.863 15.3064 124.255 15.4812 123.772 15.2136C123.481 15.0529 123.191 14.8936 122.901 14.7358C122.416 14.472 122.236 13.8648 122.5 13.3796ZM27.3151 14.5364C27.5868 15.0173 27.4172 15.6273 26.9363 15.899C26.6484 16.0617 26.3605 16.2257 26.0726 16.3912C25.5937 16.6665 24.9825 16.5014 24.7072 16.0226C24.432 15.5438 24.597 14.9325 25.0759 14.6573C25.3681 14.4893 25.6603 14.3228 25.9525 14.1577C26.4334 13.886 27.0434 14.0556 27.3151 14.5364ZM22.0733 17.6018C22.3657 18.0704 22.2228 18.6872 21.7543 18.9796C21.4765 19.1529 21.1986 19.3276 20.9208 19.5036C20.4542 19.7991 19.8364 19.6604 19.5409 19.1939C19.2454 18.7273 19.384 18.1095 19.8506 17.814C20.1322 17.6356 20.4139 17.4585 20.6956 17.2828C21.1641 16.9904 21.781 17.1333 22.0733 17.6018ZM17.0159 20.8534C17.3267 21.31 17.2086 21.932 16.752 22.2428C16.474 22.4321 16.196 22.6226 15.918 22.8145C15.4635 23.1282 14.8407 23.0141 14.527 22.5595C14.2132 22.105 14.3274 21.4822 14.7819 21.1685C15.0635 20.9742 15.345 20.7812 15.6266 20.5895C16.0831 20.2787 16.7052 20.3969 17.0159 20.8534ZM12.0695 24.3126C12.3969 24.7574 12.3018 25.3834 11.857 25.7108C11.5892 25.9079 11.3214 26.1063 11.0536 26.3058C10.6108 26.6359 9.98426 26.5444 9.65424 26.1016C9.32421 25.6587 9.41566 25.0322 9.8585 24.7022C10.1294 24.5003 10.4004 24.2996 10.6713 24.1001C11.1161 23.7727 11.742 23.8678 12.0695 24.3126ZM7.22131 27.97C7.56378 28.4033 7.49015 29.0322 7.05687 29.3747C6.79923 29.5783 6.54158 29.7831 6.28391 29.989C5.85246 30.3337 5.22321 30.2635 4.87844 29.832C4.53366 29.4006 4.60392 28.7713 5.03537 28.4265C5.29581 28.2184 5.55625 28.0115 5.81669 27.8056C6.24998 27.4631 6.87885 27.5368 7.22131 27.97Z" fill="url(#paint0_linear_1436_27753)"/>
<defs>
<linearGradient id="paint0_linear_1436_27753" x1="-12.4464" y1="41.7505" x2="985.732" y2="37.2931" gradientUnits="userSpaceOnUse">
<stop stop-color="#FA544B"/>
<stop offset="0.201204" stop-color="#2991EC"/>
<stop offset="0.436552" stop-color="#E96AE4"/>
<stop offset="0.651042" stop-color="#12B094"/>
<stop offset="1" stop-color="#1DC91A"/>
</linearGradient>
</defs>
</svg>
