<svg width="20" height="20" viewBox="0 0 20 20" fill="none" xmlns="http://www.w3.org/2000/svg">
<path d="M18.3083 15.275C18.3083 15.575 18.2416 15.8833 18.1 16.1833C17.9583 16.4833 17.775 16.7667 17.5333 17.0333C17.125 17.4833 16.675 17.8083 16.1666 18.0167C15.6666 18.225 15.125 18.3333 14.5416 18.3333C13.6916 18.3333 12.7833 18.1333 11.825 17.725C10.8666 17.3167 9.90829 16.7667 8.95829 16.075C7.99996 15.375 7.09163 14.6 6.22496 13.7417C5.36663 12.875 4.59163 11.9667 3.89996 11.0167C3.21663 10.0667 2.66663 9.11666 2.26663 8.17499C1.86663 7.22499 1.66663 6.31666 1.66663 5.44999C1.66663 4.88332 1.76663 4.34166 1.96663 3.84166C2.16663 3.33332 2.48329 2.86666 2.92496 2.44999C3.45829 1.92499 4.04163 1.66666 4.65829 1.66666C4.89163 1.66666 5.12496 1.71666 5.33329 1.81666C5.54996 1.91666 5.74163 2.06666 5.89163 2.28332L7.82496 5.00832C7.97496 5.21666 8.08329 5.40832 8.15829 5.59166C8.23329 5.76666 8.27496 5.94166 8.27496 6.09999C8.27496 6.29999 8.21663 6.49999 8.09996 6.69166C7.99163 6.88332 7.83329 7.08332 7.63329 7.28332L6.99996 7.94166C6.90829 8.03332 6.86663 8.14166 6.86663 8.27499C6.86663 8.34166 6.87496 8.39999 6.89163 8.46666C6.91663 8.53332 6.94163 8.58332 6.95829 8.63332C7.10829 8.90832 7.36663 9.26666 7.73329 9.69999C8.10829 10.1333 8.50829 10.575 8.94163 11.0167C9.39163 11.4583 9.82496 11.8667 10.2666 12.2417C10.7 12.6083 11.0583 12.8583 11.3416 13.0083C11.3833 13.025 11.4333 13.05 11.4916 13.075C11.5583 13.1 11.625 13.1083 11.7 13.1083C11.8416 13.1083 11.95 13.0583 12.0416 12.9667L12.675 12.3417C12.8833 12.1333 13.0833 11.975 13.275 11.875C13.4666 11.7583 13.6583 11.7 13.8666 11.7C14.025 11.7 14.1916 11.7333 14.375 11.8083C14.5583 11.8833 14.75 11.9917 14.9583 12.1333L17.7166 14.0917C17.9333 14.2417 18.0833 14.4167 18.175 14.625C18.2583 14.8333 18.3083 15.0417 18.3083 15.275Z" stroke="#8D948C" stroke-width="1.5" stroke-miterlimit="10"/>
<path d="M18.3083 15.275C18.3083 15.575 18.2416 15.8833 18.1 16.1833C17.9583 16.4833 17.775 16.7667 17.5333 17.0333C17.125 17.4833 16.675 17.8083 16.1666 18.0167C15.6666 18.225 15.125 18.3333 14.5416 18.3333C13.6916 18.3333 12.7833 18.1333 11.825 17.725C10.8666 17.3167 9.90829 16.7667 8.95829 16.075C7.99996 15.375 7.09163 14.6 6.22496 13.7417C5.36663 12.875 4.59163 11.9667 3.89996 11.0167C3.21663 10.0667 2.66663 9.11666 2.26663 8.17499C1.86663 7.22499 1.66663 6.31666 1.66663 5.44999C1.66663 4.88332 1.76663 4.34166 1.96663 3.84166C2.16663 3.33332 2.48329 2.86666 2.92496 2.44999C3.45829 1.92499 4.04163 1.66666 4.65829 1.66666C4.89163 1.66666 5.12496 1.71666 5.33329 1.81666C5.54996 1.91666 5.74163 2.06666 5.89163 2.28332L7.82496 5.00832C7.97496 5.21666 8.08329 5.40832 8.15829 5.59166C8.23329 5.76666 8.27496 5.94166 8.27496 6.09999C8.27496 6.29999 8.21663 6.49999 8.09996 6.69166C7.99163 6.88332 7.83329 7.08332 7.63329 7.28332L6.99996 7.94166C6.90829 8.03332 6.86663 8.14166 6.86663 8.27499C6.86663 8.34166 6.87496 8.39999 6.89163 8.46666C6.91663 8.53332 6.94163 8.58332 6.95829 8.63332C7.10829 8.90832 7.36663 9.26666 7.73329 9.69999C8.10829 10.1333 8.50829 10.575 8.94163 11.0167C9.39163 11.4583 9.82496 11.8667 10.2666 12.2417C10.7 12.6083 11.0583 12.8583 11.3416 13.0083C11.3833 13.025 11.4333 13.05 11.4916 13.075C11.5583 13.1 11.625 13.1083 11.7 13.1083C11.8416 13.1083 11.95 13.0583 12.0416 12.9667L12.675 12.3417C12.8833 12.1333 13.0833 11.975 13.275 11.875C13.4666 11.7583 13.6583 11.7 13.8666 11.7C14.025 11.7 14.1916 11.7333 14.375 11.8083C14.5583 11.8833 14.75 11.9917 14.9583 12.1333L17.7166 14.0917C17.9333 14.2417 18.0833 14.4167 18.175 14.625C18.2583 14.8333 18.3083 15.0417 18.3083 15.275Z" stroke="black" stroke-opacity="0.2" stroke-width="1.5" stroke-miterlimit="10"/>
<path d="M15.4167 7.49998C15.4167 6.99998 15.025 6.23331 14.4417 5.60831C13.9083 5.03331 13.2 4.58331 12.5 4.58331" stroke="#8D948C" stroke-width="1.5" stroke-linecap="round" stroke-linejoin="round"/>
<path d="M15.4167 7.49998C15.4167 6.99998 15.025 6.23331 14.4417 5.60831C13.9083 5.03331 13.2 4.58331 12.5 4.58331" stroke="black" stroke-opacity="0.2" stroke-width="1.5" stroke-linecap="round" stroke-linejoin="round"/>
<path d="M18.3333 7.49999C18.3333 4.27499 15.725 1.66666 12.5 1.66666" stroke="#8D948C" stroke-width="1.5" stroke-linecap="round" stroke-linejoin="round"/>
<path d="M18.3333 7.49999C18.3333 4.27499 15.725 1.66666 12.5 1.66666" stroke="black" stroke-opacity="0.2" stroke-width="1.5" stroke-linecap="round" stroke-linejoin="round"/>
</svg>
