<svg width="539" height="50" viewBox="0 0 539 50" fill="none" xmlns="http://www.w3.org/2000/svg">
<rect x="0.75" y="0.75" width="537.5" height="48.5" rx="3.25" stroke="#FF6262" stroke-width="1.5"/>
<path d="M21 23.3334V21.6667C21 18.9084 21.8333 16.6667 26 16.6667C30.1667 16.6667 31 18.9084 31 21.6667V23.3334" stroke="#8D948C" stroke-width="1.5" stroke-linecap="round" stroke-linejoin="round"/>
<path d="M21 23.3334V21.6667C21 18.9084 21.8333 16.6667 26 16.6667C30.1667 16.6667 31 18.9084 31 21.6667V23.3334" stroke="black" stroke-opacity="0.2" stroke-width="1.5" stroke-linecap="round" stroke-linejoin="round"/>
<path d="M30.1667 33.3333H21.8334C18.5001 33.3333 17.6667 32.5 17.6667 29.1666V27.5C17.6667 24.1666 18.5001 23.3333 21.8334 23.3333H30.1667C33.5001 23.3333 34.3334 24.1666 34.3334 27.5V29.1666C34.3334 32.5 33.5001 33.3333 30.1667 33.3333Z" stroke="#8D948C" stroke-width="1.5" stroke-linecap="round" stroke-linejoin="round"/>
<path d="M30.1667 33.3333H21.8334C18.5001 33.3333 17.6667 32.5 17.6667 29.1666V27.5C17.6667 24.1666 18.5001 23.3333 21.8334 23.3333H30.1667C33.5001 23.3333 34.3334 24.1666 34.3334 27.5V29.1666C34.3334 32.5 33.5001 33.3333 30.1667 33.3333Z" stroke="black" stroke-opacity="0.2" stroke-width="1.5" stroke-linecap="round" stroke-linejoin="round"/>
<path d="M29.3303 28.3334H29.3378" stroke="#8D948C" stroke-width="2" stroke-linecap="round" stroke-linejoin="round"/>
<path d="M29.3303 28.3334H29.3378" stroke="black" stroke-opacity="0.2" stroke-width="2" stroke-linecap="round" stroke-linejoin="round"/>
<path d="M25.9963 28.3334H26.0038" stroke="#8D948C" stroke-width="2" stroke-linecap="round" stroke-linejoin="round"/>
<path d="M25.9963 28.3334H26.0038" stroke="black" stroke-opacity="0.2" stroke-width="2" stroke-linecap="round" stroke-linejoin="round"/>
<path d="M22.6621 28.3334H22.6696" stroke="#8D948C" stroke-width="2" stroke-linecap="round" stroke-linejoin="round"/>
<path d="M22.6621 28.3334H22.6696" stroke="black" stroke-opacity="0.2" stroke-width="2" stroke-linecap="round" stroke-linejoin="round"/>
<path d="M511.108 23.8917L506.892 28.1083C506.35 27.5667 506.017 26.825 506.017 26C506.017 24.35 507.35 23.0167 509 23.0167C509.825 23.0167 510.567 23.35 511.108 23.8917Z" stroke="#8D948C" stroke-width="1.5" stroke-linecap="round" stroke-linejoin="round"/>
<path d="M511.108 23.8917L506.892 28.1083C506.35 27.5667 506.017 26.825 506.017 26C506.017 24.35 507.35 23.0167 509 23.0167C509.825 23.0167 510.567 23.35 511.108 23.8917Z" stroke="black" stroke-opacity="0.2" stroke-width="1.5" stroke-linecap="round" stroke-linejoin="round"/>
<path d="M513.85 20.8083C512.392 19.7083 510.725 19.1083 509 19.1083C506.058 19.1083 503.317 20.8417 501.408 23.8417C500.658 25.0167 500.658 26.9917 501.408 28.1667C502.067 29.2 502.833 30.0917 503.667 30.8083" stroke="#8D948C" stroke-width="1.5" stroke-linecap="round" stroke-linejoin="round"/>
<path d="M513.85 20.8083C512.392 19.7083 510.725 19.1083 509 19.1083C506.058 19.1083 503.317 20.8417 501.408 23.8417C500.658 25.0167 500.658 26.9917 501.408 28.1667C502.067 29.2 502.833 30.0917 503.667 30.8083" stroke="black" stroke-opacity="0.2" stroke-width="1.5" stroke-linecap="round" stroke-linejoin="round"/>
<path d="M506.017 32.275C506.967 32.675 507.975 32.8917 509 32.8917C511.942 32.8917 514.683 31.1583 516.592 28.1583C517.342 26.9833 517.342 25.0083 516.592 23.8333C516.317 23.4 516.017 22.9917 515.708 22.6083" stroke="#8D948C" stroke-width="1.5" stroke-linecap="round" stroke-linejoin="round"/>
<path d="M506.017 32.275C506.967 32.675 507.975 32.8917 509 32.8917C511.942 32.8917 514.683 31.1583 516.592 28.1583C517.342 26.9833 517.342 25.0083 516.592 23.8333C516.317 23.4 516.017 22.9917 515.708 22.6083" stroke="black" stroke-opacity="0.2" stroke-width="1.5" stroke-linecap="round" stroke-linejoin="round"/>
<path d="M511.925 26.5833C511.708 27.7583 510.75 28.7166 509.575 28.9333" stroke="#8D948C" stroke-width="1.5" stroke-linecap="round" stroke-linejoin="round"/>
<path d="M511.925 26.5833C511.708 27.7583 510.75 28.7166 509.575 28.9333" stroke="black" stroke-opacity="0.2" stroke-width="1.5" stroke-linecap="round" stroke-linejoin="round"/>
<path d="M506.892 28.1083L500.667 34.3333" stroke="#8D948C" stroke-width="1.5" stroke-linecap="round" stroke-linejoin="round"/>
<path d="M506.892 28.1083L500.667 34.3333" stroke="black" stroke-opacity="0.2" stroke-width="1.5" stroke-linecap="round" stroke-linejoin="round"/>
<path d="M517.333 17.6667L511.108 23.8917" stroke="#8D948C" stroke-width="1.5" stroke-linecap="round" stroke-linejoin="round"/>
<path d="M517.333 17.6667L511.108 23.8917" stroke="black" stroke-opacity="0.2" stroke-width="1.5" stroke-linecap="round" stroke-linejoin="round"/>
</svg>
