<svg width="20" height="20" viewBox="0 0 20 20" fill="none" xmlns="http://www.w3.org/2000/svg">
<path d="M14.1667 17.5H5.83341C2.50008 17.5 1.66675 16.6667 1.66675 13.3333V6.66667C1.66675 3.33333 2.50008 2.5 5.83341 2.5H14.1667C17.5001 2.5 18.3334 3.33333 18.3334 6.66667V13.3333C18.3334 16.6667 17.5001 17.5 14.1667 17.5Z" stroke="#8D948C" stroke-width="1.5" stroke-linecap="round" stroke-linejoin="round"/>
<path d="M14.1667 17.5H5.83341C2.50008 17.5 1.66675 16.6667 1.66675 13.3333V6.66667C1.66675 3.33333 2.50008 2.5 5.83341 2.5H14.1667C17.5001 2.5 18.3334 3.33333 18.3334 6.66667V13.3333C18.3334 16.6667 17.5001 17.5 14.1667 17.5Z" stroke="black" stroke-opacity="0.2" stroke-width="1.5" stroke-linecap="round" stroke-linejoin="round"/>
<path d="M11.6667 6.66669H15.8334" stroke="#8D948C" stroke-width="1.5" stroke-linecap="round" stroke-linejoin="round"/>
<path d="M11.6667 6.66669H15.8334" stroke="black" stroke-opacity="0.2" stroke-width="1.5" stroke-linecap="round" stroke-linejoin="round"/>
<path d="M12.5 10H15.8333" stroke="#8D948C" stroke-width="1.5" stroke-linecap="round" stroke-linejoin="round"/>
<path d="M12.5 10H15.8333" stroke="black" stroke-opacity="0.2" stroke-width="1.5" stroke-linecap="round" stroke-linejoin="round"/>
<path d="M14.1667 13.3333H15.8334" stroke="#8D948C" stroke-width="1.5" stroke-linecap="round" stroke-linejoin="round"/>
<path d="M14.1667 13.3333H15.8334" stroke="black" stroke-opacity="0.2" stroke-width="1.5" stroke-linecap="round" stroke-linejoin="round"/>
<path d="M7.08328 9.40833C7.91631 9.40833 8.59162 8.73302 8.59162 7.9C8.59162 7.06697 7.91631 6.39166 7.08328 6.39166C6.25026 6.39166 5.57495 7.06697 5.57495 7.9C5.57495 8.73302 6.25026 9.40833 7.08328 9.40833Z" stroke="#8D948C" stroke-width="1.5" stroke-linecap="round" stroke-linejoin="round"/>
<path d="M7.08328 9.40833C7.91631 9.40833 8.59162 8.73302 8.59162 7.9C8.59162 7.06697 7.91631 6.39166 7.08328 6.39166C6.25026 6.39166 5.57495 7.06697 5.57495 7.9C5.57495 8.73302 6.25026 9.40833 7.08328 9.40833Z" stroke="black" stroke-opacity="0.2" stroke-width="1.5" stroke-linecap="round" stroke-linejoin="round"/>
<path d="M10.0001 13.6083C9.88341 12.4 8.92508 11.45 7.71675 11.3417C7.30008 11.3 6.87508 11.3 6.45008 11.3417C5.24175 11.4583 4.28341 12.4 4.16675 13.6083" stroke="#8D948C" stroke-width="1.5" stroke-linecap="round" stroke-linejoin="round"/>
<path d="M10.0001 13.6083C9.88341 12.4 8.92508 11.45 7.71675 11.3417C7.30008 11.3 6.87508 11.3 6.45008 11.3417C5.24175 11.4583 4.28341 12.4 4.16675 13.6083" stroke="black" stroke-opacity="0.2" stroke-width="1.5" stroke-linecap="round" stroke-linejoin="round"/>
</svg>
