<svg width="20" height="20" viewBox="0 0 20 20" fill="none" xmlns="http://www.w3.org/2000/svg">
<path d="M14.167 17.0834H5.83366C3.33366 17.0834 1.66699 15.8334 1.66699 12.9167V7.08335C1.66699 4.16669 3.33366 2.91669 5.83366 2.91669H14.167C16.667 2.91669 18.3337 4.16669 18.3337 7.08335V12.9167C18.3337 15.8334 16.667 17.0834 14.167 17.0834Z" stroke="#8F8FA2" stroke-width="1.5" stroke-miterlimit="10" stroke-linecap="round" stroke-linejoin="round"/>
<path d="M14.167 17.0834H5.83366C3.33366 17.0834 1.66699 15.8334 1.66699 12.9167V7.08335C1.66699 4.16669 3.33366 2.91669 5.83366 2.91669H14.167C16.667 2.91669 18.3337 4.16669 18.3337 7.08335V12.9167C18.3337 15.8334 16.667 17.0834 14.167 17.0834Z" stroke="black" stroke-opacity="0.2" stroke-width="1.5" stroke-miterlimit="10" stroke-linecap="round" stroke-linejoin="round"/>
<path d="M14.1663 7.5L11.558 9.58333C10.6997 10.2667 9.29134 10.2667 8.433 9.58333L5.83301 7.5" stroke="#8F8FA2" stroke-width="1.5" stroke-miterlimit="10" stroke-linecap="round" stroke-linejoin="round"/>
<path d="M14.1663 7.5L11.558 9.58333C10.6997 10.2667 9.29134 10.2667 8.433 9.58333L5.83301 7.5" stroke="black" stroke-opacity="0.2" stroke-width="1.5" stroke-miterlimit="10" stroke-linecap="round" stroke-linejoin="round"/>
</svg>
