<svg width="20" height="20" viewBox="0 0 20 20" fill="none" xmlns="http://www.w3.org/2000/svg">
<path d="M9.99967 9.99996C12.3009 9.99996 14.1663 8.13448 14.1663 5.83329C14.1663 3.53211 12.3009 1.66663 9.99967 1.66663C7.69849 1.66663 5.83301 3.53211 5.83301 5.83329C5.83301 8.13448 7.69849 9.99996 9.99967 9.99996Z" stroke="#8F8FA2" stroke-width="1.5" stroke-linecap="round" stroke-linejoin="round"/>
<path d="M9.99967 9.99996C12.3009 9.99996 14.1663 8.13448 14.1663 5.83329C14.1663 3.53211 12.3009 1.66663 9.99967 1.66663C7.69849 1.66663 5.83301 3.53211 5.83301 5.83329C5.83301 8.13448 7.69849 9.99996 9.99967 9.99996Z" stroke="black" stroke-opacity="0.2" stroke-width="1.5" stroke-linecap="round" stroke-linejoin="round"/>
<path d="M17.1585 18.3333C17.1585 15.1083 13.9501 12.5 10.0001 12.5C6.05013 12.5 2.8418 15.1083 2.8418 18.3333" stroke="#8F8FA2" stroke-width="1.5" stroke-linecap="round" stroke-linejoin="round"/>
<path d="M17.1585 18.3333C17.1585 15.1083 13.9501 12.5 10.0001 12.5C6.05013 12.5 2.8418 15.1083 2.8418 18.3333" stroke="black" stroke-opacity="0.2" stroke-width="1.5" stroke-linecap="round" stroke-linejoin="round"/>
</svg>
